<svg width="300" height="104" viewBox="0 0 300 104" xmlns="http://www.w3.org/2000/svg" role="img" aria-label="All Cars Direct logo"><rect x="12" y="10" width="84" height="84" rx="20" fill="#0E2A47"/><rect x="16" y="44" width="12" height="3.5" rx="1.75" fill="#2E8BFF"/><rect x="14" y="51" width="16" height="3.5" rx="1.75" fill="#2E8BFF" opacity="0.85"/><rect x="16" y="58" width="10" height="3.5" rx="1.75" fill="#2E8BFF" opacity="0.7"/><path fill-rule="evenodd" fill="#FFFFFF" d="M30 60 L30 54 Q30 51 34 50 L42 49 L49 43 Q50 42 52 42 L62 42 Q66 42 69 46 L77 50 L85 51 Q89 51 89 55 L89 60 Z M51 44 L61 44 L66 47 L52 48 Z"/><path fill-rule="evenodd" fill="#FFFFFF" d="M36.5 63 A6.5 6.5 0 1 0 49.5 63 A6.5 6.5 0 1 0 36.5 63 Z M40.5 63 A2.5 2.5 0 1 0 45.5 63 A2.5 2.5 0 1 0 40.5 63 Z"/><path fill-rule="evenodd" fill="#FFFFFF" d="M67.5 63 A6.5 6.5 0 1 0 80.5 63 A6.5 6.5 0 1 0 67.5 63 Z M71.5 63 A2.5 2.5 0 1 0 76.5 63 A2.5 2.5 0 1 0 71.5 63 Z"/><g fill="#0E2A47"><g transform="translate(112.00,44) scale(0.014648,-0.014648)"><path d="M1133 0 1008 360H471L346 0H51L565 1409H913L1425 0ZM739 1192 733 1170Q723 1134 709.0 1088.0Q695 1042 537 582H942L803 987L760 1123Z"/></g><g transform="translate(134.17,44) scale(0.014648,-0.014648)"><path d="M137 0V1409H432V228H1188V0Z"/></g><g transform="translate(152.99,44) scale(0.014648,-0.014648)"><path d="M137 0V1409H432V228H1188V0Z"/></g><g transform="translate(171.82,44) scale(0.014648,-0.014648)"><path d="M795 212Q1062 212 1166 480L1423 383Q1340 179 1179.5 79.5Q1019 -20 795 -20Q455 -20 269.5 172.5Q84 365 84 711Q84 1058 263.0 1244.0Q442 1430 782 1430Q1030 1430 1186.0 1330.5Q1342 1231 1405 1038L1145 967Q1112 1073 1015.5 1135.5Q919 1198 788 1198Q588 1198 484.5 1074.0Q381 950 381 711Q381 468 487.5 340.0Q594 212 795 212Z"/></g><g transform="translate(193.98,44) scale(0.014648,-0.014648)"><path d="M1133 0 1008 360H471L346 0H51L565 1409H913L1425 0ZM739 1192 733 1170Q723 1134 709.0 1088.0Q695 1042 537 582H942L803 987L760 1123Z"/></g><g transform="translate(216.15,44) scale(0.014648,-0.014648)"><path d="M1105 0 778 535H432V0H137V1409H841Q1093 1409 1230.0 1300.5Q1367 1192 1367 989Q1367 841 1283.0 733.5Q1199 626 1056 592L1437 0ZM1070 977Q1070 1180 810 1180H432V764H818Q942 764 1006.0 820.0Q1070 876 1070 977Z"/></g><g transform="translate(238.31,44) scale(0.014648,-0.014648)"><path d="M1286 406Q1286 199 1132.5 89.5Q979 -20 682 -20Q411 -20 257.0 76.0Q103 172 59 367L344 414Q373 302 457.0 251.5Q541 201 690 201Q999 201 999 389Q999 449 963.5 488.0Q928 527 863.5 553.0Q799 579 616 616Q458 653 396.0 675.5Q334 698 284.0 728.5Q234 759 199.0 802.0Q164 845 144.5 903.0Q125 961 125 1036Q125 1227 268.5 1328.5Q412 1430 686 1430Q948 1430 1079.5 1348.0Q1211 1266 1249 1077L963 1038Q941 1129 873.5 1175.0Q806 1221 680 1221Q412 1221 412 1053Q412 998 440.5 963.0Q469 928 525.0 903.5Q581 879 752 842Q955 799 1042.5 762.5Q1130 726 1181.0 677.5Q1232 629 1259.0 561.5Q1286 494 1286 406Z"/></g></g><g fill="#2E8BFF"><g transform="translate(112.00,76) scale(0.014648,-0.014648)"><path d="M1393 715Q1393 497 1307.5 334.5Q1222 172 1065.5 86.0Q909 0 707 0H137V1409H647Q1003 1409 1198.0 1229.5Q1393 1050 1393 715ZM1096 715Q1096 942 978.0 1061.5Q860 1181 641 1181H432V228H682Q872 228 984.0 359.0Q1096 490 1096 715Z"/></g><g transform="translate(138.67,76) scale(0.014648,-0.014648)"><path d="M137 0V1409H432V0Z"/></g><g transform="translate(152.00,76) scale(0.014648,-0.014648)"><path d="M1105 0 778 535H432V0H137V1409H841Q1093 1409 1230.0 1300.5Q1367 1192 1367 989Q1367 841 1283.0 733.5Q1199 626 1056 592L1437 0ZM1070 977Q1070 1180 810 1180H432V764H818Q942 764 1006.0 820.0Q1070 876 1070 977Z"/></g><g transform="translate(178.67,76) scale(0.014648,-0.014648)"><path d="M137 0V1409H1245V1181H432V827H1184V599H432V228H1286V0Z"/></g><g transform="translate(203.67,76) scale(0.014648,-0.014648)"><path d="M795 212Q1062 212 1166 480L1423 383Q1340 179 1179.5 79.5Q1019 -20 795 -20Q455 -20 269.5 172.5Q84 365 84 711Q84 1058 263.0 1244.0Q442 1430 782 1430Q1030 1430 1186.0 1330.5Q1342 1231 1405 1038L1145 967Q1112 1073 1015.5 1135.5Q919 1198 788 1198Q588 1198 484.5 1074.0Q381 950 381 711Q381 468 487.5 340.0Q594 212 795 212Z"/></g><g transform="translate(230.34,76) scale(0.014648,-0.014648)"><path d="M773 1181V0H478V1181H23V1409H1229V1181Z"/></g></g></svg>