<svg width="96" height="96" viewBox="0 0 96 96" xmlns="http://www.w3.org/2000/svg" role="img" aria-label="All Cars Direct app icon">
  <g transform="translate(-6,-4)">
    <rect x="12" y="10" width="84" height="84" rx="20" fill="#0E2A47"/>
    <rect x="16" y="44" width="12" height="3.5" rx="1.75" fill="#2E8BFF"/>
    <rect x="14" y="51" width="16" height="3.5" rx="1.75" fill="#2E8BFF" opacity="0.85"/>
    <rect x="16" y="58" width="10" height="3.5" rx="1.75" fill="#2E8BFF" opacity="0.7"/>
    <path fill-rule="evenodd" fill="#FFFFFF" d="M30 60 L30 54 Q30 51 34 50 L42 49 L49 43 Q50 42 52 42 L62 42 Q66 42 69 46 L77 50 L85 51 Q89 51 89 55 L89 60 Z M51 44 L61 44 L66 47 L52 48 Z"/>
    <path fill-rule="evenodd" fill="#FFFFFF" d="M36.5 63 A6.5 6.5 0 1 0 49.5 63 A6.5 6.5 0 1 0 36.5 63 Z M40.5 63 A2.5 2.5 0 1 0 45.5 63 A2.5 2.5 0 1 0 40.5 63 Z"/>
    <path fill-rule="evenodd" fill="#FFFFFF" d="M67.5 63 A6.5 6.5 0 1 0 80.5 63 A6.5 6.5 0 1 0 67.5 63 Z M71.5 63 A2.5 2.5 0 1 0 76.5 63 A2.5 2.5 0 1 0 71.5 63 Z"/>
  </g>
</svg>
