<svg width="512" height="512" viewBox="0 0 512 512" fill="none" xmlns="http://www.w3.org/2000/svg">
<path d="M447.16 255.998C447.16 361.573 361.575 447.157 256 447.157C150.425 447.157 64.8398 361.572 64.8398 255.998C64.8398 150.423 150.425 64.8379 256 64.8379C361.575 64.8379 447.16 150.423 447.16 255.998Z" fill="#1E1D51"/>
<path d="M255.256 121.827C238.93 122.134 223.267 125.039 208.706 130.122V235.064H255.256V121.827ZM170.584 153.101C146.309 173.704 129.19 202.12 123.37 234.313H170.584V153.101ZM207.059 272.296V382.006C222.003 387.08 238.076 389.981 254.831 390.288V272.296H207.059ZM123.217 272.594C128.056 306.878 145.537 337.203 170.883 358.881V272.594H123.217Z" fill="white"/>
<path d="M258.643 123.178C330.773 124.588 388.823 183.533 388.823 256C388.823 328.467 330.772 387.38 258.643 388.789V123.178Z" fill="#2F7FBE"/>
<path d="M205.238 131.788V238.038H254.529V269.403H205.238V380.486C193.843 375.782 183.23 369.584 173.654 362.131V269.403H122.303C121.874 265.043 121.652 260.622 121.652 256.15C121.652 250.007 122.069 243.963 122.872 238.038H173.654V150.149C183.229 142.694 193.843 136.494 205.238 131.788Z" fill="#D50D16"/>
<path d="M337.961 167.908H292.268V174.284H337.961V167.908Z" fill="#9D0D16"/>
<path d="M256.558 55.1526C187.018 55.0424 119.309 91.0718 82.0671 155.578C26.6356 251.589 59.5714 374.499 155.581 429.93C251.591 485.361 374.502 452.426 429.934 356.416C485.365 260.406 452.429 137.495 356.419 82.0639C324.915 63.8757 290.519 55.2067 256.558 55.1526ZM256 64.8361C361.521 64.8361 447.162 150.477 447.162 255.997C447.162 361.517 361.521 447.159 256 447.159C150.48 447.159 64.8388 361.517 64.8388 255.997C64.8388 150.477 150.48 64.8361 256 64.8361ZM244.49 71.5306V111.154H256.564V97.8044L266.314 111.154L282.201 113.478L268.433 95.6857C271.454 95.0574 277.12 91.85 277.12 85.0926C277.12 74.976 268.01 71.7433 262.29 71.7433L244.49 71.5306ZM259.746 80.2176C263.029 80.2176 265.358 82.4435 265.464 84.8799C265.57 87.3164 263.885 89.9604 260.171 89.9604H256.352L256.146 80.4298L259.746 80.2176ZM316.663 82.4687C316.449 82.4677 316.232 82.4713 316.019 82.4754C305.602 82.6876 296.795 89.0035 294.686 99.3185C292.587 109.592 301.917 121.748 313.323 124.337C325.697 127.145 337.245 121.269 339.849 107.932C342.078 96.5112 333.684 85.2971 321.219 82.9204C319.686 82.6284 318.163 82.478 316.663 82.4687ZM170.551 92.9294L159.746 98.6479L164.826 143.351L176.269 134.877L174.788 128.103L187.288 120.684L193.006 124.922L206.144 119.629L170.551 92.9294ZM316.942 93.4207C317.677 93.4228 318.422 93.4902 319.174 93.6334C325.188 94.7803 329.006 99.9797 327.954 105.495C326.902 111.01 321.376 114.764 315.362 113.617C309.347 112.471 306.38 106.646 307.432 101.131C308.351 96.3057 311.801 93.4068 316.942 93.4207ZM170.976 107.122L180.081 114.116L173.513 117.928L170.976 107.122ZM372.458 112.847L338.56 136.364L348.516 144.201L364.834 131.489L356.565 152.038L360.803 156.063L381.571 147.588L369.071 164.538L376.696 175.343L400.638 141.02L393.007 131.914L373.514 139.751L381.358 120.046L372.458 112.847ZM256 117.855C179.774 117.855 117.851 179.778 117.851 256.004C117.851 332.23 179.774 394.146 256 394.146C332.226 394.146 394.149 332.229 394.149 256.004C394.149 179.778 332.226 117.855 256 117.855ZM129.447 122.378L112.923 141.445L141.733 167.081L149.79 157.763L138.772 148.013L146.821 139.326L139.827 132.971L131.778 141.87L127.754 138.058L136.441 128.521L129.447 122.378ZM253.33 123.182V232.819H210.353V131.211C223.797 126.29 238.256 123.479 253.33 123.182ZM258.644 123.182C309.231 124.17 352.889 153.46 374.457 195.866C374.178 195.493 373.896 195.128 373.608 194.77C368.323 188.205 361.666 183.852 355.995 180.205C355.543 179.916 355.016 179.77 354.48 179.786C353.654 179.81 352.885 180.218 352.402 180.889C351.082 182.717 348.59 184.236 345.342 184.236H320.869C319.64 184.236 318.474 184.571 317.467 185.299C316.462 186.027 315.568 187.33 315.568 188.872V191.662C315.556 191.678 315.534 191.72 315.429 191.801C315.189 191.985 314.718 192.18 314.194 192.18H293.106L293.126 190.42V190.4V190.386C293.126 187.176 291.489 184.259 288.962 182.417L288.922 182.384L288.889 182.364L279.671 176.114L279.658 176.101L279.645 176.095C278.177 175.126 276.537 174.667 274.989 174.7C274.473 174.711 273.967 174.78 273.481 174.899C271.537 175.376 269.954 176.605 268.932 178.174C266.887 181.313 267.356 186.274 271.289 189.086L275.613 192.393L275.646 192.42L275.679 192.44C276.589 193.091 277.094 193.877 277.094 194.093L276.987 201.1V201.12V201.14C276.987 201.226 276.975 201.247 276.968 201.28C276.846 201.279 276.614 201.252 276.131 201.094C275.109 200.759 274.333 200.326 273.129 199.872C271.925 199.417 270.378 199.055 268.387 199.055C264.882 199.055 262.002 200.636 260.198 202.741C259.566 203.478 259.05 204.268 258.644 205.085V123.182H258.644ZM205.04 133.289V238.132H253.33V269.08H205.04V378.692C193.876 374.05 183.479 367.934 174.098 360.58V269.08H123.788C123.368 264.778 123.151 260.417 123.151 256.004C123.151 249.942 123.559 243.978 124.346 238.131H174.097V151.408C183.478 144.051 193.876 137.933 205.04 133.289ZM295.092 153.712C292.921 153.712 291.16 155.474 291.16 157.644C291.16 159.814 292.921 161.576 295.092 161.576C297.262 161.576 299.023 159.814 299.023 157.644C299.023 155.473 297.262 153.712 295.092 153.712ZM305.107 153.712C302.937 153.712 301.175 155.474 301.175 157.644C301.175 159.814 302.937 161.576 305.107 161.576C307.278 161.576 309.039 159.814 309.039 157.644C309.039 155.473 307.277 153.712 305.107 153.712ZM315.116 153.712C312.945 153.712 311.184 155.474 311.184 157.644C311.184 159.814 312.945 161.576 315.116 161.576C317.286 161.576 319.047 159.814 319.047 157.644C319.047 155.473 317.286 153.712 315.116 153.712ZM325.124 153.712C322.954 153.712 321.193 155.474 321.193 157.644C321.193 159.814 322.954 161.576 325.124 161.576C327.295 161.576 329.056 159.814 329.056 157.644C329.056 155.473 327.295 153.712 325.124 153.712ZM335.14 153.712C332.969 153.712 331.208 155.474 331.208 157.644C331.208 159.814 332.969 161.576 335.14 161.576C337.31 161.576 339.072 159.814 339.072 157.644C339.072 155.473 337.31 153.712 335.14 153.712ZM168.784 155.804V232.819H125.17C130.547 202.288 146.358 175.343 168.784 155.804ZM292.269 163.987V170.362H337.963V163.987H292.269ZM292.269 172.567V178.943H337.963V172.567H292.269ZM419.493 172.594L383.476 187.211L393.644 210.942L403.175 206.917L397.882 194.836L402.332 192.717L407.419 204.373L416.099 200.767L411.231 189.543L415.469 187.637L420.549 199.712L429.449 196.112L419.493 172.594ZM90.4611 177.044L85.3806 188.268L120.547 204.586L131.778 181.699L123.091 177.25L116.31 189.118L90.4611 177.044ZM275.141 179.999C275.559 179.975 276.049 180.084 276.715 180.524L285.907 186.76C287.053 187.595 287.813 189.14 287.813 190.386L287.707 199V199.014V199.034C287.707 202.426 289.423 205.317 291.639 207.336C292.945 208.526 294.441 209.465 296.042 210.039C294.441 210.613 292.945 211.552 291.639 212.742C289.423 214.76 287.707 217.652 287.707 221.044V221.064V221.077L287.813 229.725C287.813 230.971 286.973 232.536 285.827 233.371L276.689 239.567C275.801 240.153 275.258 240.145 274.743 240.019C274.229 239.893 273.723 239.528 273.381 239.003C272.697 237.953 272.4 236.731 274.378 235.317L274.411 235.291L274.444 235.264L278.84 231.91C280.327 230.846 282.407 229.058 282.407 225.986V225.966V225.946L282.301 218.899C282.301 217.396 281.76 215.698 280.242 214.549C278.723 213.399 276.553 213.257 274.477 213.937C272.995 214.424 272.025 214.946 271.249 215.239C270.473 215.532 269.816 215.711 268.386 215.711C266.384 215.711 265.155 214.958 264.229 213.877C263.303 212.797 262.827 211.292 262.827 210.304V209.773C262.827 208.784 263.303 207.28 264.229 206.2C265.155 205.119 266.385 204.366 268.386 204.366C269.815 204.366 270.473 204.544 271.249 204.838C272.025 205.131 272.995 205.653 274.477 206.139C276.553 206.82 278.723 206.678 280.242 205.528C281.76 204.378 282.301 202.641 282.301 201.138L282.407 194.132V194.111V194.091C282.407 191.019 280.261 189.185 278.774 188.121L274.444 184.814L274.411 184.787L274.378 184.761C272.4 183.346 272.697 182.124 273.381 181.074C273.723 180.549 274.229 180.184 274.743 180.058C274.871 180.027 275.001 180.007 275.141 179.999ZM354.985 185.903C360.069 189.227 365.343 192.979 369.47 198.104C374.1 203.856 377.379 211.256 377.379 222.166C377.379 242.662 358.238 259.125 339.828 259.125H295.337C294.073 259.125 292.779 259.704 291.997 260.599C291.214 261.495 290.899 262.575 290.907 263.608C290.916 264.641 291.248 265.697 292.023 266.577C292.798 267.457 294.071 268.045 295.337 268.045H338.773C354.389 268.045 362.715 278.096 362.715 289.962C362.715 301.526 354.067 312.397 338.879 312.397H294.122C293.038 312.397 291.885 312.888 291.173 313.679C290.462 314.469 290.165 315.429 290.17 316.349C290.176 317.268 290.476 318.213 291.18 318.992C291.884 319.771 293.034 320.267 294.122 320.267H327.436C334.607 320.267 340.706 327.255 340.706 333.929C340.706 337.313 339.744 340.437 337.618 342.709C335.491 344.981 332.094 346.627 326.381 346.627H306.403C305.606 346.627 304.769 346.802 303.999 347.358C303.228 347.914 302.598 348.978 302.631 350.081C302.663 351.185 303.299 352.131 304.039 352.658C304.778 353.184 305.604 353.375 306.403 353.375H319.653C321.522 353.375 322.904 354.193 323.997 355.521C325.088 356.848 325.724 358.709 325.724 360.196C325.724 362.048 325.039 363.76 323.831 364.832C323.047 365.527 321.963 366.01 320.477 366.127C320.55 365.362 320.562 364.495 320.052 363.457C319.446 362.225 317.756 361.245 316.32 361.245H308.369C305.6 361.245 302.544 360.202 300.287 358.23C298.029 356.259 296.481 353.466 296.481 349.444C296.481 345.745 298.027 343.108 300.22 341.214C302.413 339.32 305.327 338.332 307.473 338.332H327.012C327.894 338.332 328.753 338.18 329.576 337.681C330.398 337.182 331.244 336.131 331.243 334.825C331.241 333.518 330.39 332.467 329.569 331.969C328.747 331.471 327.894 331.325 327.012 331.325H296.401C284.623 331.325 278.065 322.99 278.065 314.004C278.065 305.987 284.931 296.483 295.339 296.483H340.893C342.133 296.483 343.409 295.905 344.167 295.022C344.926 294.139 345.223 293.089 345.216 292.087C345.209 291.084 344.898 290.053 344.147 289.185C343.396 288.315 342.135 287.73 340.893 287.73H294.495C281.525 287.73 271.264 278.112 271.264 263.588C271.264 251.457 281.19 239.015 295.87 239.015H337.924C340.217 239.015 342.274 237.983 343.536 236.478C344.797 234.973 345.359 233.118 345.369 231.291C345.379 229.464 344.834 227.593 343.569 226.077C342.304 224.561 340.232 223.533 337.924 223.533H293.054L293.021 221.016C293.021 219.462 293.866 217.899 295.22 216.666C296.574 215.432 298.395 214.726 299.51 214.726H324.655C325.628 214.726 326.591 214.501 327.537 213.85C328.484 213.198 329.363 211.792 329.363 210.038C329.363 208.23 328.825 207.316 327.537 206.226C326.591 205.574 325.628 205.349 324.655 205.349H299.51C298.395 205.349 296.574 204.643 295.22 203.409C293.866 202.176 293.021 200.587 293.021 199.032L293.041 197.491H323.731C325.43 197.491 326.981 196.947 328.202 196.01C329.422 195.074 330.42 193.638 330.42 191.826V189.548H345.343C349.213 189.55 352.576 188.107 354.985 185.903ZM382.062 214.05C386.448 227.237 388.823 241.345 388.823 256.004C388.823 302.405 365.027 343.246 328.969 366.996C330.377 364.993 331.035 362.579 331.035 360.195C331.035 357.355 330.016 354.475 328.1 352.145C328.024 352.053 327.933 351.97 327.854 351.88C333.897 351.588 338.498 349.543 341.495 346.34C344.735 342.879 346.018 338.331 346.018 333.927C346.018 327.422 342.376 321.162 336.86 317.709H338.879C356.678 317.709 368.028 304.263 368.028 289.961C368.028 277.835 360.141 266.972 347.021 263.734C365.858 260.195 382.693 243.245 382.693 222.165C382.693 219.28 382.468 216.581 382.062 214.05ZM258.644 214.993C259.05 215.81 259.565 216.6 260.198 217.337C262.001 219.442 264.882 221.024 268.386 221.024C270.377 221.024 271.925 220.661 273.129 220.207C274.332 219.752 275.108 219.32 276.13 218.985C276.614 218.827 276.846 218.8 276.967 218.799C276.975 218.832 276.987 218.856 276.987 218.939V218.959V218.979L277.094 226.025C277.094 226.242 276.589 226.989 275.679 227.639L275.646 227.66L275.613 227.686L271.223 231.047C267.29 233.858 266.887 238.767 268.932 241.905C269.801 243.241 271.079 244.325 272.638 244.914C268.382 250.242 265.95 256.899 265.95 263.59C265.95 278.347 275.52 289.535 288.212 292.34C278.706 295.589 272.751 305.085 272.751 314.005C272.751 325.701 282.014 336.639 296.401 336.639H297.444C297.211 336.821 296.973 336.994 296.747 337.19C293.559 339.942 291.168 344.187 291.168 349.444C291.168 354.906 293.478 359.347 296.787 362.235C300.095 365.123 304.31 366.559 308.369 366.559H315.024C314.886 367.044 314.732 367.495 314.732 367.495C314.406 368.233 314.433 369.077 314.805 369.793C315.177 370.509 315.854 371.018 316.645 371.175C318.546 371.551 320.344 371.577 321.972 371.301C303.249 382.035 281.664 388.345 258.645 388.794V214.993H258.644ZM115.466 219.622L74.15 233.183L72.6689 245.47L111.867 266.656L111.654 252.464L105.73 249.721L106.62 235.13L113.56 233.396L115.466 219.622ZM419.281 220.897C405.451 220.897 398.52 232.229 398.52 243.564C398.52 254.899 406.721 266.238 419.281 266.238C431.836 266.238 440.255 255.958 440.255 243.564C440.254 231.382 432.897 220.897 419.281 220.897ZM293.113 228.847H337.923C338.831 228.847 339.164 229.094 339.49 229.485C339.817 229.876 340.059 230.549 340.055 231.265C340.051 231.98 339.8 232.663 339.464 233.064C339.128 233.466 338.792 233.702 337.923 233.702H295.87C294.589 233.702 293.338 233.784 292.118 233.935C292.762 232.638 293.127 231.198 293.127 229.691V229.677V229.657L293.113 228.847ZM419.546 233.184C425.642 233.184 429.196 238.876 429.196 243.565C429.196 248.147 425.51 253.945 419.546 253.945C413.579 253.945 410.109 248.914 410.109 243.565C410.109 238.216 413.451 233.184 419.546 233.184ZM97.3225 237.454L96.8178 245.584L85.5938 240.383L97.3225 237.454ZM124.412 274.394H168.784V356.183C145.191 335.635 128.917 306.892 124.412 274.394ZM210.353 274.394H253.33V388.793C238.256 388.497 223.797 385.683 210.353 380.764V274.394Z" fill="#F8E45E"/>
<path d="M275.14 179.999C275.559 179.975 276.049 180.084 276.715 180.524L285.906 186.76C287.052 187.595 287.812 189.14 287.812 190.386L287.706 199V199.014V199.034C287.706 202.426 289.422 205.317 291.638 207.335C292.944 208.526 294.44 209.464 296.042 210.039C294.441 210.612 292.944 211.552 291.638 212.742C289.422 214.76 287.706 217.651 287.706 221.044V221.064V221.077L287.812 229.725C287.812 230.97 286.972 232.535 285.827 233.371L276.688 239.567C275.801 240.153 275.257 240.145 274.743 240.019C274.228 239.893 273.723 239.528 273.381 239.003C272.697 237.953 272.4 236.731 274.378 235.317L274.411 235.291L274.443 235.264L278.84 231.91C280.327 230.846 282.406 229.058 282.406 225.986V225.966V225.946L282.3 218.899C282.3 217.395 281.76 215.698 280.241 214.549C278.723 213.399 276.553 213.257 274.477 213.937C272.994 214.423 272.025 214.946 271.249 215.239C270.472 215.532 269.815 215.71 268.386 215.71C266.384 215.71 265.154 214.957 264.229 213.877C263.303 212.797 262.827 211.292 262.827 210.304V209.772C262.827 208.784 263.303 207.28 264.229 206.199C265.155 205.119 266.384 204.366 268.386 204.366C269.815 204.366 270.472 204.544 271.249 204.838C272.025 205.131 272.994 205.653 274.477 206.139C276.553 206.82 278.723 206.678 280.241 205.528C281.76 204.378 282.3 202.641 282.3 201.138L282.406 194.131V194.111V194.091C282.406 191.019 280.26 189.185 278.774 188.121L274.443 184.813L274.411 184.787L274.378 184.76C272.4 183.346 272.697 182.124 273.381 181.074C273.722 180.549 274.228 180.184 274.743 180.058C274.87 180.027 275.001 180.007 275.14 179.999Z" fill="#9D0D16"/>
<path d="M354.985 185.903C360.069 189.227 365.343 192.979 369.47 198.104C374.1 203.856 377.379 211.256 377.379 222.165C377.379 242.662 358.238 259.125 339.828 259.125H295.337C294.073 259.125 292.779 259.704 291.997 260.599C291.214 261.494 290.899 262.575 290.907 263.608C290.916 264.641 291.248 265.697 292.023 266.577C292.798 267.457 294.071 268.045 295.337 268.045H338.773C354.389 268.045 362.715 278.096 362.715 289.962C362.715 301.525 354.067 312.397 338.879 312.397H294.122C293.038 312.397 291.885 312.888 291.173 313.679C290.462 314.469 290.165 315.429 290.17 316.349C290.176 317.268 290.476 318.213 291.18 318.992C291.884 319.771 293.034 320.267 294.122 320.267H327.436C334.607 320.267 340.706 327.255 340.706 333.929C340.706 337.313 339.744 340.437 337.618 342.709C335.491 344.981 332.094 346.627 326.381 346.627H306.403C305.606 346.627 304.769 346.802 303.999 347.358C303.228 347.914 302.598 348.978 302.631 350.081C302.663 351.185 303.299 352.131 304.039 352.658C304.778 353.184 305.604 353.375 306.403 353.375H319.653C321.522 353.375 322.904 354.193 323.997 355.521C325.088 356.848 325.724 358.708 325.724 360.196C325.724 362.048 325.039 363.76 323.831 364.832C323.047 365.527 321.963 366.01 320.477 366.127C320.55 365.362 320.562 364.494 320.052 363.457C319.446 362.225 317.756 361.245 316.319 361.245H308.369C305.6 361.245 302.544 360.201 300.287 358.23C298.029 356.259 296.481 353.466 296.481 349.444C296.481 345.745 298.027 343.108 300.22 341.214C302.413 339.32 305.327 338.332 307.473 338.332H327.012C327.894 338.332 328.753 338.18 329.576 337.681C330.398 337.182 331.244 336.131 331.243 334.825C331.241 333.518 330.39 332.467 329.569 331.969C328.747 331.471 327.894 331.325 327.012 331.325H296.401C284.623 331.325 278.065 322.99 278.065 314.004C278.065 305.987 284.931 296.483 295.339 296.483H340.893C342.133 296.483 343.408 295.905 344.167 295.022C344.926 294.139 345.223 293.089 345.216 292.087C345.209 291.084 344.898 290.053 344.147 289.185C343.396 288.315 342.135 287.73 340.893 287.73H294.495C281.525 287.73 271.264 278.112 271.264 263.588C271.264 251.457 281.19 239.015 295.87 239.015H337.924C340.217 239.015 342.274 237.983 343.536 236.478C344.797 234.973 345.359 233.117 345.369 231.291C345.379 229.464 344.834 227.593 343.569 226.077C342.304 224.561 340.232 223.533 337.924 223.533H293.054L293.021 221.016C293.021 219.462 293.865 217.899 295.22 216.666C296.574 215.432 298.395 214.726 299.51 214.726H324.655C325.628 214.726 326.591 214.501 327.537 213.85C328.484 213.198 329.363 211.792 329.363 210.038C329.363 208.23 328.825 207.316 327.537 206.226C326.591 205.574 325.628 205.349 324.655 205.349H299.51C298.395 205.349 296.574 204.643 295.22 203.409C293.865 202.176 293.021 200.586 293.021 199.032L293.041 197.491H323.731C325.43 197.491 326.981 196.946 328.202 196.01C329.422 195.074 330.42 193.638 330.42 191.826V189.548H345.343C349.213 189.55 352.576 188.106 354.985 185.903Z" fill="#157031"/>
</svg>
