<svg width="512" height="512" viewBox="0 0 512 512" fill="none" xmlns="http://www.w3.org/2000/svg">
<path d="M255.69 38C135.371 38 38 135.456 38 256.5C38 377.544 135.371 475 256.31 475C377.249 475 474 376.923 474 256.5C474 135.456 376.009 38 255.69 38ZM255.69 451.412C148.395 451.412 60.9474 363.888 60.9474 256.5C60.9474 149.112 147.775 60.9673 255.69 60.9673C363.605 60.9673 450.432 148.492 450.432 255.879C451.053 363.888 363.605 451.412 255.69 451.412Z" fill="black"/>
<path d="M291.679 156.396H206.839V186.172H122V295.351C122 358.004 170.303 421.278 172.161 425C174.638 421.278 208.078 377.234 219.225 325.747C229.133 349.94 241.518 373.512 257 395.224C259.477 391.502 292.917 347.459 304.064 295.971C313.972 320.164 326.977 343.737 341.839 365.448C344.317 361.106 392 298.452 392 235.799V126H291.679V156.396ZM206.839 296.591C206.839 344.357 174.638 387.78 172.78 391.502C170.922 388.4 138.101 344.357 138.101 296.591V202.301H206.839V296.591ZM291.679 266.815C291.679 314.581 259.477 358.004 257.619 361.726C255.761 358.624 222.94 314.581 222.94 266.815V171.905H291.679V266.815ZM307.78 142.129H376.518V237.039C376.518 284.805 344.317 328.228 341.839 331.95C339.982 328.849 307.161 285.425 307.161 237.039L307.78 142.129Z" fill="black"/>
<path d="M373 221.345V145H311L371.76 253C372.38 248.034 373 238.103 373 221.345Z" fill="black"/>
<path d="M364 283.271L311 191V239.303C311 269.647 327.212 303.706 342.176 326C351.529 312.376 358.388 298.133 364 283.271Z" fill="black"/>
<path d="M288 251.724V176H226L286.76 284C287.38 278.414 288 268.483 288 251.724Z" fill="black"/>
<path d="M279 312.954L226 220V268.661C226 299.229 242.212 333.541 257.176 356C265.906 342.275 272.765 327.927 279 312.954Z" fill="black"/>
<path d="M204 281.345V205H141L202.74 313C203.37 308.034 204 298.103 204 281.345Z" fill="black"/>
<path d="M194 342.89L141 250V298.303C141 328.647 157.212 362.706 172.176 385C180.906 371.995 188.388 357.752 194 342.89Z" fill="black"/>
</svg>
