<svg width="512" height="512" viewBox="0 0 512 512" fill="none" xmlns="http://www.w3.org/2000/svg">
<path d="M255.631 343.865C221.117 338.471 151.741 324.515 121.261 317.298C97.6671 311.693 94.9038 304.002 92.0501 290.894L91.94 290.386C91.0646 286.373 83.6652 246.536 80.5923 229.781L50 186.649H462.505L431.912 229.781C429 245.664 421.442 286.338 420.566 290.381L420.455 290.894C417.602 304.002 414.838 311.693 391.246 317.297C360.852 324.495 291.472 338.446 256.828 343.865L256.229 343.959L255.631 343.865Z" fill="white"/>
<path d="M455.026 190.511L428.261 228.245C425.326 244.27 417.656 285.547 416.785 289.564C414.267 301.117 413.059 308.144 390.352 313.54C360.119 320.698 290.967 334.616 256.23 340.05C221.505 334.622 152.387 320.698 122.154 313.54C99.4462 308.144 98.2395 301.117 95.7197 289.564C94.8494 285.573 87.1785 244.27 84.2437 228.245L57.4805 190.511H455.026Z" fill="black"/>
<path d="M433.92 197.605H78.6113L99.7165 227.699C104.992 258.997 108.257 279.118 109.609 286.133C111.957 298.338 112.372 303.6 124.997 306.999C150.098 312.927 222.844 327.865 256.276 332.903C289.707 327.865 362.46 312.947 387.575 306.999C400.198 303.6 400.614 298.338 402.961 286.133C404.281 279.118 407.578 258.997 412.855 227.699L433.92 197.605Z" fill="white"/>
<path d="M433.92 197.605H78.6113L99.7165 227.699C104.992 258.997 108.257 279.118 109.609 286.133C111.957 298.338 112.372 303.6 124.997 306.999C150.098 312.927 222.844 327.865 256.276 332.903C289.707 327.865 362.46 312.947 387.575 306.999C400.198 303.6 400.614 298.338 402.961 286.133C404.281 279.118 407.578 258.997 412.855 227.699L433.92 197.605Z" fill="white"/>
<path d="M144.34 258.365H110.216L107.578 242.748H254.098V258.365H250.142V246.41H143.1L144.34 258.365Z" fill="black"/>
<path d="M106.984 239.185H254.06V227.738H105.078L106.984 239.185Z" fill="black"/>
<path d="M198.975 277.59H254.078V269.39H198.995L198.975 277.59Z" fill="black"/>
<path d="M103.641 224.095H138.497L131.902 212.642H250.149V224.049H254.106V208.683H92.8438L103.641 224.095Z" fill="black"/>
<path d="M314.031 208.683H258.439V231.69H314.057L314.031 208.683Z" fill="black"/>
<path d="M118.15 297.395C119.053 298.765 120.728 300.36 126.289 301.868C128.979 302.527 131.974 303.186 136.116 304.107H195.123V295.986H117.385C117.59 296.478 117.843 296.951 118.137 297.395H118.15Z" fill="black"/>
<path d="M114.78 284.987H195.124V262.046H110.83L114.78 284.987Z" fill="black"/>
<path d="M198.975 317.168C219.552 321.211 239.668 324.946 254.111 327.206V288.708H198.975V317.168Z" fill="black"/>
<path d="M317.844 258.365H402.316L406.175 235.351H317.844V258.365Z" fill="black"/>
<path d="M317.844 216.001V224.168L408.7 224.135L414.398 216.001H317.844Z" fill="black"/>
<path d="M258.439 277.59H262.396V266.004H367.512C367.374 267.131 366.391 274.896 365.884 277.623H399.078L401.716 262.046H258.439V277.59Z" fill="black"/>
<path d="M258.439 292.594H396.282L398.51 281.193H258.439V292.594Z" fill="black"/>
<path d="M314.058 242.755H258.439V250.968H314.058V242.755Z" fill="black"/>
<path d="M289.602 317.714C284.108 318.762 268.701 321.442 262.397 322.582V299.931H359.803C355.139 305.411 345.544 307.038 289.602 317.714ZM258.439 295.986V327.193C293.481 321.469 361.524 307.993 386.283 301.842C391.876 300.452 393.531 298.765 394.435 297.396C394.732 296.954 394.981 296.482 395.174 295.986H258.439Z" fill="black"/>
</svg>
