<svg width="512" height="512" viewBox="0 0 512 512" fill="none" xmlns="http://www.w3.org/2000/svg">
<path d="M510.243 238.787C502.885 240.544 495.527 241.532 487.949 241.752C487.729 241.752 370.768 245.925 367.253 246.255C361.653 246.364 356.161 248.122 351.549 251.197C343.202 256.468 333.977 260.312 324.313 262.728C312.342 265.364 300.262 267.011 288.071 267.45C287.193 267.45 292.354 267.011 292.354 267.011C296.637 266.682 300.92 266.133 305.204 265.364C316.406 263.826 327.278 260.751 337.601 256.139L338.59 255.59C343.751 255.59 343.422 254.162 343.422 254.162L337.162 254.381C332.549 254.491 327.717 254.601 326.509 254.601C326.29 253.832 315.637 253.173 315.637 253.173H342.214H342.983C344.74 252.075 346.826 250.867 348.803 249.549C354.404 249.549 354.075 248.012 354.075 248.012C348.034 248.122 336.833 248.341 334.856 248.231C334.636 247.463 322.665 246.694 322.665 246.694H353.306H353.526C358.687 244.717 364.178 243.729 369.67 243.838L488.059 241.422C495.417 241.093 502.665 240.214 509.804 238.787L511.78 238.347C511.78 237.908 510.462 237.798 508.046 237.798L474.001 237.359C421.945 236.92 325.191 236.041 320.798 236.041H319.7C314.648 235.821 309.487 236.48 304.764 238.128L302.787 238.677C297.296 240.654 291.586 241.862 285.875 242.301C279.834 242.521 256.772 242.521 255.893 242.521C255.015 242.521 231.842 242.521 225.912 242.301C220.091 241.752 214.49 240.544 208.999 238.677L207.022 238.128C202.19 236.48 197.138 235.821 191.976 236.041H190.988C186.595 236.041 89.7312 236.48 37.785 236.92L3.63007 237.359C1.32379 237.359 -0.103909 237.578 0.00591372 237.908L1.98273 238.347C9.12121 239.775 16.3695 240.763 23.7276 240.983C37.6751 241.203 139.591 243.838 142.007 243.838C147.498 243.729 152.989 244.717 158.151 246.694H190.109C190.109 246.694 177.26 247.463 177.04 248.231H176.272C173.087 248.231 163.312 248.231 157.821 248.012C157.821 248.012 157.382 249.549 162.983 249.549C164.96 250.867 167.046 252.075 168.913 253.173C169.353 253.173 170.012 253.173 170.671 253.173H196.369C196.369 253.173 185.607 253.832 185.387 254.601C184.069 254.601 179.456 254.491 174.954 254.381L168.694 254.162C168.694 254.162 168.364 255.48 173.526 255.59L174.405 256.139C184.728 260.751 195.6 263.826 206.802 265.364C211.085 266.133 215.369 266.792 219.652 267.011C219.652 267.011 224.813 267.45 223.935 267.45C211.744 267.011 199.554 265.364 187.693 262.728C178.029 260.422 168.913 256.468 160.457 251.197C155.735 248.122 150.353 246.364 144.752 246.255C141.128 246.035 24.2768 241.422 24.0571 241.422C16.5892 241.203 9.12121 240.104 1.76308 238.457L0.115735 237.908C0.115735 238.237 0.884497 239.116 1.65326 239.665C5.27741 242.85 18.8954 249.549 26.9125 251.416C40.7502 254.711 125.973 265.583 141.128 267.341L149.475 268.329C172.318 270.745 201.092 273.93 215.808 275.468C218.553 276.017 221.519 275.797 224.154 275.028C234.368 271.184 245.24 269.317 256.113 269.537C266.985 269.427 277.858 271.294 288.181 275.028C290.817 275.797 293.672 276.017 296.418 275.468C311.024 274.04 339.908 270.855 362.641 268.329L371.097 267.341C386.253 265.693 471.366 255.26 485.203 251.856C493.22 249.879 506.838 243.289 510.462 240.104C511.121 239.445 512 238.677 512 238.347L510.243 238.787ZM261.604 259.433H250.402C233.489 259.433 216.686 259.214 211.854 258.006C200.213 255.15 194.832 249.769 193.843 248.231C192.965 246.584 193.184 246.694 194.612 246.694H317.394C318.822 246.694 318.931 246.804 318.163 248.231C317.394 249.659 311.903 255.15 300.262 258.006C295.32 259.214 278.517 259.433 261.604 259.433Z" fill="black"/>
<path d="M252.6 251.746L249.854 250.099H246.56L250.623 252.734V254.821H253.369V252.734L257.103 250.099H255.236L252.6 251.746Z" fill="black"/>
<path d="M272.474 250.099H269.618V254.821H278.843V253.942H272.474V250.099Z" fill="black"/>
<path d="M284.01 252.954H290.38V252.075H284.01V250.977H290.6V250.099H281.265V254.821H290.6V253.942H284.01V252.954Z" fill="black"/>
<path d="M230.082 251.966H224.151V250.099H221.296V254.821H224.151V252.844H230.082V254.821H232.937V250.099H230.082V251.966Z" fill="black"/>
<path d="M246.01 251.417C246.01 250.758 245.022 250.099 241.837 250.099H235.357V254.821H238.323V250.977C240.849 250.867 243.155 251.087 243.155 251.636C243.155 252.075 242.716 252.405 239.86 252.295C240.519 252.844 243.484 254.931 243.484 254.931H246.669L243.045 252.844C244.802 252.625 246.01 252.075 246.01 251.417Z" fill="black"/>
<path d="M297.408 252.295C298.066 252.844 301.032 254.931 301.032 254.931H304.217L300.592 252.844C302.459 252.734 303.667 252.185 303.667 251.526C303.667 250.867 302.679 250.208 299.494 250.208H293.015V254.931H295.98V250.977C298.506 250.867 300.812 251.087 300.812 251.636C300.812 252.075 300.263 252.405 297.408 252.295Z" fill="black"/>
<path d="M264.791 251.856L262.375 251.636C261.496 251.636 260.837 251.416 260.837 251.087C260.837 250.757 261.277 250.648 263.034 250.648C264.242 250.648 265.34 250.757 266.548 250.977L266.768 250.099C265.34 249.879 263.803 249.769 262.375 249.769C260.727 249.769 258.092 249.989 258.092 251.197C258.092 252.405 258.97 252.515 260.947 252.734L263.034 252.954C264.022 252.954 264.681 253.174 264.681 253.393C264.681 253.723 264.571 253.942 262.265 253.942C260.947 253.942 259.519 253.833 258.202 253.613L257.872 254.601C259.3 254.821 260.837 254.931 262.265 254.931C265.011 254.931 267.646 254.491 267.646 253.283C267.537 252.624 266.658 252.075 264.791 251.856Z" fill="black"/>
<path d="M215.261 250.757C217.018 250.757 218.775 250.977 219.105 250.977L218.775 249.989C218.336 249.989 216.689 249.769 214.602 249.769C210.978 249.769 207.793 250.648 207.793 252.405C207.793 254.162 210.978 255.041 214.602 255.041C216.579 255.041 218.336 254.821 218.775 254.821L219.105 253.833C218.665 253.833 217.018 254.052 215.261 254.052C213.504 254.052 210.758 253.613 210.758 252.515C210.758 251.416 213.394 250.757 215.261 250.757Z" fill="black"/>
</svg>
