<svg width="512" height="512" viewBox="0 0 512 512" fill="none" xmlns="http://www.w3.org/2000/svg">
<path d="M249.155 79.1426C250.483 79.8066 250.981 80.3046 252.309 80.6366C253.471 80.9686 255.131 81.7986 255.463 80.8026C255.961 79.8066 255.297 78.4786 254.467 77.3167C253.139 75.1587 252.475 74.6607 250.649 71.6727C250.317 71.0087 249.985 70.3447 249.321 70.3447C249.321 70.3447 249.155 72.5027 248.491 73.8307C247.993 74.9927 246.665 75.8227 246.831 76.6527C246.997 77.4826 247.827 78.4786 249.155 79.1426Z" fill="black"/>
<path d="M387.929 221.403C386.435 223.395 385.771 227.379 383.613 230.699C380.626 235.347 376.31 240.991 374.152 240.991C372.99 240.991 372.658 238.335 372.658 238.335C372.658 238.335 371.164 233.853 373.654 228.209C375.48 224.225 376.476 223.063 378.8 220.075C380.958 217.253 382.286 215.759 383.779 212.772C385.107 210.116 385.439 209.618 386.269 205.468C386.435 204.472 386.103 202.314 385.107 202.48C383.78 202.48 380.128 210.448 376.31 214.93C372.658 219.079 365.852 224.391 365.852 224.391C365.852 224.391 365.188 224.889 365.188 223.561C365.022 222.399 364.856 218.913 365.52 215.759C366.184 212.606 367.18 209.452 370.002 204.638C373.156 199.16 377.14 195.342 379.132 193.35C379.962 192.52 382.452 191.026 381.124 190.196C379.962 189.532 376.476 192.52 373.82 194.512C370.5 197.002 369.338 197.666 366.018 201.65C362.698 205.634 361.868 207.294 361.868 207.294C361.868 207.294 358.714 212.44 357.884 217.419C357.054 222.399 357.054 225.221 357.054 225.221C357.054 225.221 357.054 229.703 357.552 232.359C357.884 235.181 359.046 239.497 359.046 239.497C359.046 239.497 360.706 244.311 361.37 247.299C362.034 250.287 363.196 259.085 363.196 259.085C363.196 259.085 364.026 265.393 363.528 271.369C363.03 277.345 362.532 280.831 361.868 282.657C361.204 284.483 359.378 289.297 356.39 292.617C353.568 295.771 352.904 296.269 352.904 296.269C352.904 296.269 349.916 298.759 347.426 300.087C344.936 301.415 341.284 303.075 339.624 303.573C337.964 303.905 335.64 304.071 335.474 304.071H333.316L332.652 303.573L332.32 302.245C332.32 302.245 330.66 295.771 328.668 291.621C327.008 288.135 323.522 283.321 323.522 283.321C323.522 283.321 317.546 275.187 312.898 270.705C307.586 265.393 301.61 261.409 297.958 258.587C296.63 257.591 293.642 255.765 293.642 255.765C293.642 255.765 281.525 243.647 277.209 234.019C274.221 227.379 272.229 222.565 273.059 215.261C273.225 213.602 273.889 210.448 274.221 210.448L276.379 211.112C276.545 211.278 278.537 213.104 280.363 213.768C281.359 214.1 283.185 214.432 283.185 214.432C283.185 214.432 284.679 214.597 285.509 214.763C286.339 215.095 287.833 215.593 288.829 216.091C289.825 216.589 291.319 217.585 291.319 217.585L294.14 219.743L297.128 222.067C297.128 222.067 298.788 223.229 299.286 223.395C299.784 223.561 300.116 223.727 300.282 223.727H300.946C300.946 223.727 301.61 223.561 301.776 222.897C301.942 222.067 300.946 222.731 299.452 221.071C297.792 219.577 297.128 218.249 297.128 218.249C297.128 218.249 296.796 216.921 295.468 215.427C294.14 213.934 292.48 212.606 292.48 212.606C292.48 212.606 291.319 211.776 289.659 211.278C287.999 210.78 287.501 210.78 287.335 210.116C287.169 209.452 289.327 209.784 289.327 209.784C289.327 209.784 291.816 210.116 293.808 211.112C295.8 212.108 296.962 213.27 296.962 213.27L298.29 214.432L299.12 215.261L299.95 215.759C299.95 215.759 300.78 216.589 300.946 215.427C301.112 214.432 300.78 213.602 300.614 213.436L299.784 212.606L296.464 209.784C295.468 208.788 294.804 208.124 293.808 207.46C292.812 206.796 291.319 205.8 289.493 205.136C287.833 204.472 286.837 204.638 285.177 203.808C284.015 203.31 283.019 202.978 282.355 201.982C282.189 201.816 281.359 201.152 282.853 201.484C284.347 201.816 285.343 202.314 287.003 202.646C289.659 203.31 291.319 203.31 293.808 204.14C294.804 204.472 296.132 205.136 296.132 205.136L299.286 206.464C299.286 206.464 303.602 208.788 306.59 208.954C309.578 209.12 312.068 208.456 313.064 207.958C314.06 207.626 315.886 206.464 316.384 205.966C316.882 205.468 317.214 204.97 317.214 204.97L317.546 204.14V203.476C316.716 202.48 315.056 205.136 312.4 205.634C309.578 206.132 309.744 206.464 307.918 206.132C305.926 205.8 304.764 205.302 303.27 203.808C300.614 201.318 299.618 198.994 296.132 197.5C294.638 196.836 291.982 196.172 291.982 196.172C291.982 196.172 288.331 195.01 286.339 193.848C284.845 193.018 281.691 192.52 282.687 191.192C283.185 190.528 287.169 192.852 290.157 193.184C292.314 193.516 293.808 193.35 295.468 193.35C297.128 193.35 299.452 192.852 299.784 192.852C300.116 192.686 301.444 192.852 302.606 193.184C303.768 193.516 304.432 194.014 305.594 194.512C306.756 195.01 308.084 195.84 308.416 195.84L309.08 196.006L309.412 195.674L309.578 195.342L309.412 195.01L308.914 194.678L307.918 194.014C307.918 194.014 306.424 193.184 305.096 191.856C303.768 190.528 302.606 189.034 300.614 188.37C298.622 187.706 296.298 187.374 296.298 187.374L293.974 187.208L292.978 187.042C292.978 187.042 291.319 186.544 292.646 186.212C293.974 185.88 294.638 185.714 294.97 185.714C295.136 185.548 297.46 185.382 298.788 185.88C300.116 186.378 302.274 187.54 302.44 187.54C302.606 187.706 304.598 189.2 306.756 189.698C308.914 190.196 311.736 190.362 311.736 190.362L313.064 190.03L313.728 189.864L314.226 189.532L314.06 188.702C314.06 188.702 314.06 188.038 313.064 187.872C312.068 187.706 310.076 187.374 308.25 186.046C306.424 184.718 305.096 183.39 305.096 183.39C305.096 183.39 303.768 182.228 301.112 181.564C298.622 180.9 297.792 180.9 297.792 180.9L296.962 180.568L295.136 179.738C295.136 179.738 294.306 179.24 293.642 178.41C292.979 177.58 291.982 176.086 294.804 176.916C297.626 177.746 298.29 178.244 298.29 178.244C298.29 178.244 299.784 179.738 301.112 179.904C301.942 180.07 302.606 180.236 303.104 179.572C303.934 178.742 301.61 177.746 299.95 176.584C298.622 175.754 297.294 173.596 297.294 173.596C297.294 173.596 296.298 172.766 297.792 173.098C299.286 173.43 301.942 175.09 301.942 175.09C301.942 175.09 303.27 175.754 303.934 175.92C304.432 176.086 305.76 176.916 306.424 177.248C306.922 177.414 308.416 177.746 309.412 178.244C310.74 179.074 311.404 180.402 312.068 180.9C312.732 181.398 313.23 182.228 314.06 182.394C314.89 182.56 315.056 182.892 315.554 182.56C316.052 182.228 316.218 182.062 316.218 182.062C316.218 182.062 316.384 181.73 315.554 181.232C314.724 180.734 313.728 179.406 313.728 179.406L313.396 178.742L313.23 178.078L312.4 176.75L310.906 174.592C310.906 174.592 308.582 171.438 306.424 170.276C304.432 169.114 302.938 168.45 302.938 168.45C302.938 168.45 301.942 167.952 301.444 167.62C300.614 166.956 300.282 166.458 299.618 165.628C298.788 164.632 298.456 163.968 297.46 162.972C295.634 161.146 289.991 160.15 292.148 158.822C293.31 158.158 294.804 158.49 295.468 158.656C296.132 158.822 297.626 159.486 299.12 159.984C300.116 160.316 300.78 160.316 301.776 160.648C302.772 160.98 303.934 161.146 304.432 161.478C304.93 161.81 305.428 162.474 305.76 162.64C305.926 162.806 307.254 164.964 309.578 166.126C311.902 167.288 313.064 168.118 315.388 168.284C317.214 168.45 320.202 167.786 320.202 167.786C320.202 167.786 321.032 167.454 320.368 166.624C319.538 165.794 319.538 165.628 318.874 165.462C316.218 164.466 314.06 164.798 312.068 162.806C311.238 161.976 310.906 161.81 310.242 160.482C309.578 159.154 309.91 158.822 309.412 157.992C309.08 157.162 308.25 156 308.25 156C308.25 156 305.76 153.012 303.104 151.518C300.282 150.024 298.29 148.53 297.958 148.198C297.46 147.866 296.464 146.538 296.464 146.538L295.634 145.21L295.136 144.214C294.804 142.388 298.124 144.712 299.95 145.376C302.938 146.372 304.432 147.7 307.42 148.696C309.08 149.194 310.076 149.194 311.736 149.858C314.558 151.02 315.388 153.842 318.376 154.174C320.036 154.34 323.356 155.004 322.692 153.51C322.028 151.85 318.708 151.85 317.048 149.858C316.218 149.028 316.218 148.198 315.388 147.368C314.06 145.708 310.906 144.214 310.906 144.214C310.906 144.214 309.91 143.384 308.748 141.06C307.752 138.736 305.262 137.076 300.78 134.918C297.792 133.424 291.816 133.092 294.14 131.598C295.468 130.602 296.63 130.768 298.456 131.266C300.282 131.93 300.946 132.76 302.44 133.424C303.934 134.088 304.598 134.254 304.93 134.42C305.262 134.586 306.424 135.084 306.922 135.084C307.254 135.25 309.744 135.582 310.408 135.748L313.728 136.578L316.384 137.574C316.384 137.574 317.712 138.072 318.542 138.072C319.372 138.072 320.7 137.74 320.7 137.74L321.696 137.076L321.862 136.744C321.862 136.744 322.36 135.914 321.032 135.748C319.87 135.582 319.206 135.582 319.04 135.582L317.878 135.25L317.38 135.084C317.38 135.084 315.056 133.258 313.064 132.428C310.906 131.598 310.574 131.432 310.574 131.432L309.744 131.266L308.748 131.1C308.748 131.1 307.918 131.1 306.59 129.938C305.262 128.776 304.764 128.112 303.602 126.95L302.108 125.456C302.108 125.456 300.78 124.46 300.78 123.63C300.946 122.303 303.768 125.124 303.768 125.124L305.76 126.452C305.76 126.452 307.42 127.614 310.408 127.78C313.396 127.946 317.048 126.95 317.048 126.95C317.048 126.95 317.546 126.618 319.206 127.116C320.866 127.614 322.194 128.61 322.194 128.61L323.522 129.772L325.514 131.93L325.846 131.764C326.012 131.598 326.842 130.768 325.348 128.942C323.854 127.116 321.364 125.456 321.364 125.456C321.364 125.456 318.044 123.464 314.724 122.8C311.404 122.137 309.91 122.137 309.91 122.137C309.91 122.137 307.42 122.137 305.926 120.477C304.432 118.817 303.436 117.157 303.436 117.157L302.938 114.833C302.938 114.833 302.108 113.837 300.448 113.173C298.954 112.509 297.294 111.513 297.294 111.513C297.294 111.513 294.804 110.683 294.638 109.521C294.14 107.363 298.788 109.521 301.278 110.019C303.602 110.517 304.598 111.347 306.922 111.845C308.914 112.343 310.076 112.509 312.234 112.343C313.396 112.343 314.06 112.177 315.222 112.011C316.384 112.011 317.214 111.845 318.376 112.011C320.036 112.343 320.7 113.173 322.36 113.837C323.356 114.335 323.854 114.833 325.016 114.999C326.012 115.165 328.004 115.829 327.672 114.833L327.174 114.169C326.344 113.007 325.348 113.007 324.352 112.177C322.194 110.517 321.198 109.189 318.708 108.027C317.048 107.197 316.052 106.865 314.226 106.533C312.898 106.367 311.902 106.699 310.574 106.367C309.08 105.869 308.582 105.205 307.088 104.375C304.764 103.047 303.436 101.885 300.946 100.889C299.286 100.225 296.464 99.5608 296.464 99.5608L295.302 99.3948L294.804 99.2288C292.48 98.3988 298.954 96.5728 301.942 95.7428C303.436 95.4108 304.1 95.0788 305.594 95.2448C306.922 95.4108 308.416 97.2368 309.91 96.4068C312.068 95.2448 307.42 92.0908 305.926 91.5928C303.934 90.7629 300.448 91.4268 300.448 91.4268L292.812 91.2608L290.655 90.9289C290.655 90.9289 289.327 90.9288 288.331 89.7669C287.335 88.6049 283.517 83.9569 279.201 83.2929C274.719 82.6289 273.391 83.2929 273.059 82.9609C269.241 76.985 265.257 75.657 262.269 72.835C261.439 72.0051 260.111 70.1791 259.779 70.3451C259.447 70.5111 258.949 73.001 258.119 75.159C257.123 77.649 257.787 78.811 258.285 79.807C258.949 80.803 259.779 81.467 258.119 82.4629C256.459 83.4589 254.301 83.1269 254.301 83.1269C254.301 83.1269 252.475 82.7949 250.981 81.9649C249.487 81.301 246.333 79.973 246.333 79.973C246.333 79.973 243.345 79.143 241.353 79.309C239.361 79.475 239.195 79.641 237.701 79.807C236.871 79.807 236.539 79.807 235.709 79.973C235.045 80.139 234.215 79.641 234.215 80.471C234.215 81.301 235.875 81.301 237.037 81.7989C238.199 82.2969 240.855 82.2969 240.357 82.9609C239.693 83.6249 237.203 83.7909 237.037 83.6249C236.871 83.6249 235.211 83.2929 233.883 83.2929C231.725 83.4589 231.559 83.4589 228.405 84.9529C227.907 85.1189 228.073 86.2809 229.069 85.9489C230.231 85.6169 231.891 85.2849 233.717 85.2849C235.709 85.2849 236.871 85.9489 238.863 86.4469C240.523 86.9449 240.689 87.2769 243.179 87.6089C243.677 87.6089 244.673 87.2769 244.673 87.9409C244.673 88.2729 244.009 88.7709 244.009 88.7709C244.009 88.7709 242.515 89.1029 242.681 89.6009C243.013 90.2649 244.341 89.6009 245.005 89.6009C245.669 89.6009 246.665 89.7669 246.499 90.4309L246.167 90.9289C244.341 91.4268 243.345 91.7588 241.685 92.4228C237.535 94.0828 235.875 96.0748 231.891 98.0668C228.073 99.8928 221.931 102.217 221.931 102.217C221.931 102.217 220.105 103.213 217.449 103.877C214.793 104.541 214.627 104.375 212.801 104.707C210.975 104.873 210.145 105.205 208.651 106.035C207.655 106.533 207.157 107.031 206.327 107.861L204.003 111.347L202.675 113.339C202.343 114.003 202.011 114.335 201.845 114.999C201.513 115.829 201.347 116.161 201.181 116.991C200.683 118.983 201.181 120.145 201.513 122.137C201.679 122.635 201.679 122.966 201.845 123.464C202.011 123.962 202.675 124.46 202.675 124.46L203.339 124.626C203.339 124.626 205.663 124.46 207.157 124.128C208.651 123.796 210.809 123.298 210.809 123.298L213.631 122.469L215.457 121.805C215.457 121.805 216.619 121.805 216.785 122.469C216.951 122.966 216.453 123.796 216.453 123.796C216.453 123.796 215.457 124.294 214.627 124.626C213.797 124.958 211.805 125.456 211.639 125.622L209.481 126.286L207.655 126.452C207.655 126.452 207.323 126.618 206.991 127.116C206.659 127.614 206.659 127.614 206.659 127.946C206.991 128.278 207.157 128.61 207.489 128.942C208.153 129.44 208.485 129.772 209.315 129.938C210.477 130.436 211.141 130.27 212.303 130.27C213.963 130.27 214.959 129.938 216.453 129.274C217.781 128.444 218.279 128.444 220.105 127.78C220.603 127.614 221.599 127.448 221.931 127.448C225.085 127.116 226.911 127.614 230.065 128.112C233.219 128.61 234.713 129.606 237.867 130.104C241.187 130.602 243.179 131.598 246.665 130.768C248.325 130.436 249.321 129.606 250.151 131.266C250.981 132.76 250.815 133.59 250.815 133.59C250.815 133.59 250.815 134.586 249.653 137.74C248.491 140.894 244.839 148.696 244.839 148.696L242.349 153.676C242.349 153.676 240.357 157.66 235.709 162.806C231.061 167.952 230.729 168.284 230.729 168.284C230.729 168.284 228.239 170.11 225.749 173.264C223.259 176.418 223.259 177.58 220.935 179.904C219.441 181.398 218.611 182.228 216.785 183.39C214.959 184.552 212.801 184.22 206.991 188.204C202.011 191.69 199.356 194.512 199.024 194.346C198.692 194.18 197.032 192.852 196.368 192.52C195.87 192.188 186.242 185.714 186.242 185.714L182.258 183.058L180.432 181.896L180.1 181.232L179.104 179.904C179.104 179.904 177.61 178.078 175.784 176.584C173.958 174.924 171.966 173.596 168.978 172.932C166.156 172.102 164.33 171.604 161.508 172.6C159.682 173.264 158.686 173.928 157.358 175.256C155.698 176.916 155.366 178.244 154.038 180.236C152.71 182.228 151.382 184.054 150.718 185.05C150.054 186.046 148.726 188.702 148.726 188.702C148.726 188.702 145.406 194.014 143.58 197.5C141.422 201.318 140.592 203.642 138.6 207.294C135.446 213.104 130.964 219.079 129.802 221.735C128.64 224.391 128.474 224.723 128.474 224.723C128.474 224.723 128.142 226.217 127.976 227.213C127.81 228.209 127.81 229.869 127.644 230.533C127.478 231.363 126.98 232.193 126.814 232.359C126.648 232.525 124.822 236.343 124.158 238.833C123.494 241.323 122 249.125 123.826 250.121C125.652 251.117 139.098 245.307 140.924 239.663C142.086 236.011 137.272 234.185 138.6 230.865C139.098 229.703 139.43 229.537 140.26 228.375C141.588 226.217 141.09 221.735 143.58 217.585C145.406 214.598 149.058 210.78 154.038 205.136C157.192 201.65 160.18 196.006 160.18 196.006C160.18 196.006 160.844 194.014 162.172 194.346C163.666 194.678 164.994 194.512 164.994 194.512L165.658 195.01L166.986 196.338L168.978 199.326C168.978 199.326 172.298 204.14 173.46 205.468C174.622 206.796 175.784 207.792 177.444 209.12C179.27 210.78 179.934 211.61 182.258 213.436C185.578 216.091 184.416 217.087 180.1 214.763C178.606 213.934 176.282 213.104 174.456 212.606C172.464 212.108 164.994 210.116 161.176 209.618C157.524 209.12 156.86 209.286 156.86 209.286C156.86 209.286 155.034 209.12 152.876 210.448C150.718 211.776 149.556 212.772 149.556 212.772C149.556 212.772 147.066 215.593 146.9 216.091C146.734 216.589 145.572 218.581 145.572 218.581C145.572 218.581 144.908 219.577 144.742 220.739C144.41 221.901 144.576 223.063 144.576 223.063L144.742 225.553L144.908 227.877C144.908 227.877 145.406 233.687 146.568 239.497C146.9 241.157 147.232 243.813 147.232 243.813L148.062 249.789C148.062 249.789 148.56 256.097 149.058 258.255C149.556 260.247 149.888 260.413 150.22 261.741C150.884 264.231 149.722 265.393 150.884 268.381C152.046 271.369 153.042 271.037 154.204 272.863C155.034 274.191 155.366 274.523 156.03 276.183C156.694 277.843 158.852 283.321 161.342 287.305C163.998 291.455 167.484 296.601 169.808 296.103C172.132 295.605 173.792 291.953 173.792 291.953C173.792 291.953 176.448 284.815 174.788 277.843C173.128 270.705 165.492 274.025 164.496 268.879C164.33 267.717 164.496 265.891 164.496 265.891C164.496 265.891 164.33 263.733 163.998 263.069C163.666 262.405 161.01 257.425 160.014 253.275C159.184 250.121 159.35 239.995 158.686 237.173C156.86 229.869 156.694 230.533 157.69 229.205C158.852 227.877 159.848 228.209 159.848 228.209L161.342 228.375L162.504 228.873C162.504 228.873 163.832 229.703 164.662 230.201C165.326 230.699 167.65 232.525 167.65 232.525L173.294 236.177C173.294 236.177 176.448 238.003 177.776 238.667C179.104 239.331 180.266 240.161 180.266 240.161L181.76 241.157L184.25 242.983L184.748 243.481L185.08 244.145C185.08 244.145 186.242 246.801 191.222 249.623C195.206 251.947 198.692 251.283 200.185 253.109C200.517 253.441 203.339 257.259 204.667 259.583C206.327 262.239 208.319 265.393 208.983 266.389C209.647 267.385 213.797 272.531 213.797 272.531L219.275 278.507L226.413 285.147L232.887 290.625L237.037 293.945C237.037 293.945 240.689 297.431 244.839 300.253C248.823 302.909 248.989 303.241 251.645 305.067C253.637 306.395 256.293 308.22 258.949 310.212C261.605 312.37 264.593 316.354 263.431 317.682C262.601 318.18 261.107 316.022 258.285 313.532C255.961 311.54 254.799 310.544 252.475 308.884C249.487 306.56 247.993 305.398 244.673 303.407C243.013 302.411 240.025 300.585 239.859 300.917C238.697 304.403 238.863 307.722 239.029 312.038C239.195 315.026 239.693 318.014 240.689 321.832C241.519 325.484 242.349 327.476 243.677 330.962C245.005 334.448 247.495 339.926 247.495 339.926L251.313 347.562L254.799 353.372L256.625 356.36L257.289 357.356C257.289 357.356 258.119 359.348 257.289 360.676C256.459 362.004 255.463 364.826 253.969 364.992C252.475 365.324 248.989 365.49 248.989 365.49L229.235 365.158L218.943 364.328C218.943 364.328 217.781 363.664 211.805 363.664C208.319 363.664 205.497 365.158 203.505 365.324C201.845 365.49 193.712 364.826 188.234 366.984C183.088 369.142 180.764 369.64 178.938 372.96C177.61 375.45 185.412 379.434 191.886 380.928C202.343 383.252 199.356 378.77 203.339 375.948C203.837 375.616 204.003 375.284 204.501 375.118C207.157 374.288 208.651 376.446 211.307 376.446C214.295 376.446 215.955 375.45 218.943 374.952C234.049 372.96 257.621 380.098 257.621 380.098C257.621 380.098 263.431 381.924 266.087 381.426C269.241 380.762 268.577 379.6 269.573 377.774C270.403 376.28 270.071 375.948 270.237 374.288C270.237 373.292 270.071 372.794 269.905 371.798C269.241 368.976 267.415 364.992 267.415 364.992C267.415 364.992 266.087 362.004 265.589 360.51C264.925 358.352 264.261 357.024 263.929 354.7C262.933 348.558 263.099 349.056 263.099 345.57C263.099 339.262 263.763 335.776 265.423 329.634C267.913 320.67 272.561 316.852 276.047 308.22C277.043 305.896 277.043 302.577 278.205 302.245C279.533 302.079 279.367 306.394 278.703 308.884C276.545 317.516 271.233 321.168 268.743 329.966C266.917 336.772 265.921 340.756 266.419 347.728C266.585 351.546 268.079 357.522 268.079 357.522C268.079 357.522 270.071 364.162 271.067 366.652C272.063 369.142 274.055 373.292 274.055 373.292L278.537 381.26L280.861 385.078C280.861 385.078 282.521 386.572 281.691 389.062C280.861 391.552 279.201 393.046 277.209 395.203C271.565 401.843 258.451 411.637 255.131 413.961C250.483 417.447 250.649 418.443 250.317 419.439C248.491 424.751 243.179 424.917 237.369 431.225C236.041 432.553 232.555 436.205 233.219 439.359C233.551 440.521 247.827 443.011 256.127 439.525C262.601 436.703 256.957 433.549 258.783 430.395C260.111 428.071 263.431 428.071 264.925 426.079C267.415 422.759 265.755 422.925 267.913 420.269C275.051 411.637 279.699 406.657 292.48 398.855C293.642 398.191 295.8 397.195 295.8 397.195C295.8 397.195 297.626 396.366 298.29 395.37C299.12 394.042 298.954 392.88 298.954 391.386C298.954 390.39 298.788 389.892 298.788 388.896C298.788 387.734 298.954 387.07 298.622 385.908C298.29 384.082 297.128 382.588 296.464 381.592C295.8 380.762 294.638 379.268 293.974 376.114C293.144 372.96 293.144 370.304 294.472 366.818C295.8 363.332 298.788 360.51 298.788 360.51L306.258 355.53C306.258 355.53 312.732 350.882 314.724 349.056C316.882 347.23 321.032 343.412 324.02 339.096C327.506 334.282 329.332 331.294 330.826 325.484C331.324 323.326 331.822 320.006 331.822 320.006C331.822 320.006 331.822 317.682 333.15 317.516C334.478 317.35 334.81 317.848 334.81 317.848C334.81 317.848 335.972 318.512 336.304 321.832C336.47 325.152 335.474 328.97 335.474 328.97C335.474 328.97 334.478 332.788 334.146 335.112C333.98 336.606 333.98 337.436 333.98 339.096C333.98 341.918 335.142 344.242 335.142 344.242C335.142 344.242 335.806 344.74 335.806 343.578C335.806 342.25 336.138 340.258 336.636 338.266C337.134 336.606 337.466 336.938 338.462 334.116C339.79 330.464 338.628 330.796 339.292 328.638C339.624 327.642 340.454 326.646 341.45 326.646C342.446 326.646 342.612 327.974 342.612 327.974C342.612 327.974 343.608 332.29 342.778 336.274C341.948 340.258 338.96 345.736 338.96 345.736L336.636 349.72C336.636 349.72 334.976 352.542 334.312 354.368C333.648 356.36 333.482 357.19 333.814 359.016C334.312 361.008 335.806 363.664 336.636 363.166C337.3 362.668 335.64 361.008 337.632 357.024C339.624 353.04 342.28 350.55 342.28 350.55C342.28 350.55 345.932 346.234 347.592 342.914C349.086 339.926 350.58 335.112 350.58 335.112C350.58 335.112 351.742 330.796 351.41 327.144C351.244 323.658 350.58 321.832 350.58 321.832L349.086 319.176L348.256 317.184L348.588 316.022C348.92 315.856 350.082 316.686 351.078 318.014C352.074 319.342 353.07 321.002 353.568 323.326C354.066 324.986 354.232 326.48 354.232 327.974C354.232 329.302 353.734 334.78 355.726 338.266C356.556 339.926 358.548 343.744 358.714 342.084C359.046 338.266 357.386 336.44 357.552 332.954C357.718 328.97 358.714 329.966 359.046 327.974C359.378 325.816 359.876 325.318 359.544 322.496C359.212 319.84 358.05 316.354 358.05 316.354L356.888 313.698L356.39 312.702C356.39 312.702 356.722 312.204 357.22 312.204L361.204 310.876C361.204 310.876 366.35 308.552 368.342 306.892C370.5 305.398 372.99 302.743 372.99 302.743C372.99 302.743 376.31 298.593 377.97 295.605C381.954 288.135 381.954 278.673 381.788 274.357C381.622 270.207 380.46 264.729 380.46 264.729C380.46 264.729 379.132 258.089 379.464 253.773C379.796 249.457 380.128 247.465 380.128 247.465C380.128 247.465 379.962 243.149 383.613 238.501C387.265 233.853 388.925 230.865 389.589 227.379C390.253 224.391 389.257 219.577 387.929 221.403ZM278.039 191.524C277.541 191.524 276.877 190.86 276.877 190.86C276.877 190.86 276.711 190.694 277.209 190.362C277.707 190.03 278.371 190.196 278.371 190.196L278.869 190.362L279.699 191.524C279.533 192.022 278.537 191.69 278.039 191.524ZM280.031 186.046C279.533 185.88 278.703 185.382 278.703 185.382C278.703 185.382 278.537 185.05 279.035 184.718C279.533 184.386 280.363 184.552 280.363 184.552L280.861 184.884C281.027 185.05 281.857 185.88 281.857 186.212C281.857 186.71 280.695 186.212 280.031 186.046ZM281.857 180.402C281.193 180.236 280.197 179.572 280.197 179.572C280.197 179.572 280.031 179.24 280.695 178.908C281.359 178.576 282.355 178.742 282.355 178.742L283.019 179.074C283.351 179.406 284.181 180.236 284.181 180.734C284.015 181.232 282.521 180.568 281.857 180.402ZM283.351 175.256C282.687 175.09 281.691 174.426 281.691 174.426C281.691 174.426 281.525 174.094 282.189 173.762C282.853 173.43 283.849 173.596 283.849 173.596L284.513 173.928C284.845 174.26 285.675 175.09 285.675 175.588C285.509 175.92 284.015 175.256 283.351 175.256ZM284.845 169.114C284.015 168.948 283.019 168.118 283.019 168.118C283.019 168.118 282.853 167.786 283.517 167.288C284.181 166.79 285.343 167.122 285.343 167.122L286.007 167.454C286.339 167.786 287.335 168.782 287.335 169.28C287.335 169.944 285.509 169.114 284.845 169.114ZM285.841 162.474C284.845 162.308 283.517 161.312 283.517 161.312C283.517 161.312 283.185 160.814 284.181 160.316C285.011 159.818 286.339 159.984 286.339 159.984L287.169 160.482C287.501 160.814 288.663 162.142 288.829 162.806C288.829 163.47 286.837 162.64 285.841 162.474ZM286.505 155.834C285.343 155.668 283.683 154.34 283.683 154.34C283.683 154.34 283.351 153.842 284.347 153.178C285.343 152.514 287.003 152.846 287.003 152.846C287.003 152.846 287.501 153.012 287.999 153.344C288.497 153.842 289.825 155.336 289.991 156.166C290.157 156.996 287.667 156 286.505 155.834ZM287.501 148.198C286.173 148.032 284.347 146.538 284.347 146.538C284.347 146.538 284.015 145.874 285.177 145.21C286.339 144.38 288.165 144.878 288.165 144.878C288.165 144.878 288.829 145.044 289.327 145.542C289.825 146.04 291.484 147.866 291.65 148.696C291.65 149.692 288.829 148.364 287.501 148.198ZM286.837 117.323C285.841 117.157 284.513 116.161 284.513 116.161C284.513 116.161 284.181 115.829 285.177 115.331C286.173 114.833 287.501 115.165 287.501 115.165C287.501 115.165 287.999 115.331 288.331 115.663C288.663 115.995 289.991 117.157 289.991 117.821C289.991 118.319 287.833 117.489 286.837 117.323ZM290.489 124.792C290.655 125.456 288.331 124.626 287.169 124.46C286.173 124.294 284.679 123.132 284.679 123.132C284.679 123.132 284.347 122.635 285.343 122.137C286.339 121.473 287.667 121.805 287.667 121.805C287.667 121.805 288.165 121.971 288.663 122.303C289.161 122.801 290.323 124.128 290.489 124.792ZM285.675 137.076C286.671 136.412 288.331 136.744 288.331 136.744C288.331 136.744 288.829 136.91 289.327 137.242C289.825 137.74 291.153 139.234 291.319 140.064C291.485 140.894 288.995 139.898 287.833 139.566C286.671 139.4 285.011 138.072 285.011 138.072C285.011 138.072 284.679 137.74 285.675 137.076ZM287.833 131.432C286.671 131.266 285.011 129.938 285.011 129.938C285.011 129.938 284.679 129.44 285.675 128.776C286.671 128.112 288.331 128.444 288.331 128.444C288.331 128.444 288.829 128.61 289.327 128.942C289.825 129.44 291.153 130.934 291.319 131.764C291.485 132.76 288.995 131.764 287.833 131.432ZM289.991 106.533C291.318 106.865 291.651 107.695 290.987 107.695C290.323 107.861 289.991 107.861 289.493 107.861C287.999 107.861 288.165 107.197 286.173 108.193C284.181 109.189 285.675 108.691 282.853 109.687C280.197 110.683 280.861 108.027 280.861 108.027C280.861 108.027 281.027 107.529 281.359 106.201C281.691 104.873 283.351 106.201 284.513 106.201C286.671 106.201 288.497 106.201 289.991 106.533ZM282.521 96.2408L283.351 96.7388C283.683 97.0708 284.845 98.3988 285.011 99.0628C285.177 99.7268 283.019 98.8968 282.189 98.7308C281.193 98.5648 279.865 97.5688 279.865 97.5688C279.865 97.5688 279.533 97.0708 280.529 96.5728C281.359 95.9088 282.521 96.2408 282.521 96.2408ZM276.545 88.2729C277.375 87.7749 278.703 87.9409 278.703 87.9409L279.533 88.4389C279.865 88.7709 281.027 90.0989 281.193 90.7629C281.359 91.4268 279.201 90.5969 278.371 90.4309C277.375 90.2649 276.047 89.2689 276.047 89.2689C276.047 89.2689 275.715 88.7709 276.545 88.2729ZM274.885 195.84C275.383 195.508 276.047 195.674 276.047 195.674L276.545 195.84L277.375 197.002C277.375 197.334 276.379 196.836 275.881 196.836C275.383 196.836 274.719 196.172 274.719 196.172C274.719 196.172 274.387 196.006 274.885 195.84ZM208.319 116.825C207.821 117.157 207.489 117.323 206.825 117.821C205.995 118.485 205.165 120.145 204.667 119.647C204.003 119.149 204.335 117.323 204.335 117.323C204.335 117.323 204.833 115.995 205.497 114.667C206.327 113.339 207.323 113.339 207.323 113.339C208.319 113.339 210.145 114.003 210.145 115.497C210.311 116.991 209.149 116.327 208.319 116.825ZM221.931 121.971C221.931 121.971 221.267 122.137 221.101 120.975C220.935 119.813 221.931 119.647 221.931 119.647C221.931 119.647 223.923 118.651 223.923 119.979C224.089 121.141 221.931 121.971 221.931 121.971ZM239.693 99.3948C239.693 99.3948 237.535 102.881 234.547 104.209C231.559 105.537 229.567 106.201 223.923 106.699C223.093 106.699 223.425 106.201 223.425 106.201C223.425 106.201 229.899 104.375 233.551 102.383C235.543 101.221 237.867 99.7268 238.531 99.0628C240.855 97.0708 239.693 99.3948 239.693 99.3948ZM128.142 243.149C128.142 243.979 127.146 245.473 126.814 245.473C126.482 245.473 125.818 243.979 125.984 243.149C126.15 242.319 126.316 239.995 127.644 240.327C128.64 240.493 128.142 242.319 128.142 243.149ZM132.458 224.391C132.458 224.391 130.964 227.545 130.466 226.217C129.968 225.055 130.964 222.897 130.964 222.897C132.292 221.735 132.79 220.075 133.454 220.739C133.952 221.403 132.458 224.391 132.458 224.391ZM153.042 192.022C151.548 193.682 146.9 202.48 145.904 200.986C144.908 199.824 150.386 191.524 151.548 189.864C152.71 188.038 153.706 188.37 153.706 188.37L154.038 188.702C153.872 188.702 154.536 190.362 153.042 192.022ZM165.492 178.908C165.492 178.908 162.172 179.572 162.67 178.41C163.334 177.248 165.658 176.75 165.658 176.75C167.484 177.082 167.816 177.248 167.65 178.078C167.816 178.908 165.492 178.908 165.492 178.908ZM178.938 202.148C177.444 203.642 176.946 201.65 174.788 199.16C172.63 196.836 173.128 194.844 173.128 194.844H173.46L173.792 195.01L174.622 195.342L175.12 195.84L176.78 197.5C177.444 198.496 179.27 201.816 178.938 202.148ZM153.208 251.781C152.71 251.781 152.212 250.785 152.212 250.785C152.212 250.785 150.884 248.793 150.386 247.299C149.888 245.971 149.722 243.813 149.722 243.813C149.722 243.813 149.39 240.991 149.39 239.995C149.556 238.667 149.556 237.505 149.722 236.841C149.888 236.177 150.552 236.343 150.552 236.343C151.548 236.343 151.548 237.173 151.548 237.173V237.671C151.548 237.671 151.548 240.659 151.714 242.983C151.714 243.647 153.54 251.117 153.54 251.117C153.54 251.117 153.872 251.781 153.208 251.781ZM152.876 216.921C151.714 218.747 150.884 218.747 150.884 218.747C150.884 218.581 150.552 217.917 151.548 215.925C152.544 213.934 153.54 214.1 153.54 214.1L153.872 214.432C153.872 214.432 154.038 215.095 152.876 216.921ZM164.662 286.475C164.994 285.811 167.152 287.471 167.152 287.471C167.982 287.637 168.812 289.131 168.812 289.131C168.812 289.131 169.144 290.293 168.148 290.625C167.152 291.123 166.488 290.127 166.488 290.127C166.488 290.127 164.33 287.139 164.662 286.475ZM180.266 235.679C177.942 235.181 172.962 231.363 170.97 230.367C168.978 229.371 165.658 229.039 167.152 227.711C167.318 227.545 167.484 227.213 167.816 227.213C168.148 227.213 169.642 227.711 169.642 227.711L173.294 229.205C173.46 229.205 175.286 230.035 176.78 230.865C178.108 231.695 180.432 233.189 180.432 233.189L181.428 234.019C181.428 234.351 182.59 236.177 180.266 235.679ZM200.517 202.646C200.517 202.646 197.696 206.464 196.036 208.788C193.878 211.942 191.222 216.755 190.724 216.257C190.226 215.759 193.048 210.448 194.542 207.626C196.202 204.14 198.692 202.314 199.688 201.982C201.845 200.986 200.517 202.646 200.517 202.646ZM191.554 368.81C191.554 368.81 191.554 369.474 190.392 370.304C189.23 371.134 188.732 370.636 188.566 370.636C188.4 370.636 187.238 369.972 187.238 369.308C187.404 368.644 189.23 368.146 189.23 368.146C192.384 367.98 191.554 368.81 191.554 368.81ZM217.283 367.814C216.121 367.648 215.955 367.316 216.121 367.15C216.121 366.984 216.453 366.652 217.781 366.652C219.109 366.652 219.109 367.316 219.109 367.316C219.109 367.814 218.611 367.98 217.283 367.814ZM246.831 369.474C244.341 370.138 243.345 369.806 241.187 369.972C239.361 370.138 238.531 370.304 236.705 370.304C233.551 370.304 233.219 370.47 228.737 369.142C227.907 368.81 226.911 367.814 227.243 367.482C227.575 366.984 228.239 367.15 228.239 367.15C228.239 367.15 233.883 368.146 237.535 368.312C240.191 368.478 241.519 368.644 244.175 368.478C245.669 368.478 244.839 368.312 247.163 368.312C247.993 368.146 247.495 369.308 246.831 369.474ZM262.601 364.826C262.435 364.992 261.439 365.324 260.609 365.49C259.613 365.656 260.111 364.826 260.111 364.826C260.111 364.826 260.775 363.83 261.605 363.332C262.601 362.834 263.099 363.332 263.099 363.332C263.431 363.996 262.767 364.66 262.601 364.826ZM274.885 332.954C273.723 335.444 273.391 336.274 273.225 338.598C272.893 341.088 274.387 348.06 272.063 345.404C271.233 344.242 270.403 338.764 271.067 336.108C272.229 330.132 277.043 328.472 274.885 332.954ZM241.353 434.379C240.357 435.043 242.349 437.035 239.195 436.869C237.369 436.703 238.365 435.043 238.531 434.877L239.693 433.217C240.523 432.055 241.021 431.889 241.851 431.391C242.681 430.893 243.345 432.221 243.345 432.221C243.345 432.221 243.677 432.719 243.677 433.383C243.677 433.881 242.183 433.715 241.353 434.379ZM258.783 417.613L257.289 418.775C257.123 418.775 256.127 419.605 255.795 419.107C255.463 418.609 255.961 417.945 255.961 417.779C255.961 417.613 256.957 416.451 257.787 416.119C258.617 415.621 259.115 416.119 259.115 416.119C259.613 417.281 258.783 417.613 258.783 417.613ZM266.585 126.784C266.585 126.784 265.921 128.942 264.593 129.44C262.933 129.938 256.625 130.104 256.459 129.606C256.293 129.108 263.763 128.444 266.585 125.622C267.249 124.958 266.585 126.784 266.585 126.784ZM264.261 121.307C264.759 120.477 264.427 122.635 264.427 122.635C264.427 122.635 263.929 124.792 262.767 125.456C261.273 126.286 257.621 127.282 257.289 126.784C257.289 126.452 262.103 124.958 264.261 121.307ZM253.969 96.4068C253.969 96.4068 254.633 96.4068 255.629 96.9048C256.625 97.5688 257.289 99.5608 257.289 99.5608C257.289 99.5608 257.455 99.8928 256.625 99.8928C256.127 99.8928 256.127 99.0628 255.629 98.7308C254.965 98.2328 254.467 98.0668 253.637 97.7348C252.807 97.4028 251.645 97.9008 251.479 97.0708C251.479 96.0748 253.969 96.4068 253.969 96.4068ZM246.333 101.885C246.333 101.885 246.665 100.889 248.159 100.059C249.487 99.2288 251.313 99.2288 251.313 99.2288C251.313 99.2288 252.309 99.2288 253.471 100.059C254.633 100.889 255.629 103.711 255.629 103.711C255.629 103.711 255.961 105.537 255.131 106.201C254.301 106.865 252.973 105.703 252.309 104.707C251.479 103.711 250.981 103.379 249.819 103.047C248.491 102.549 246.499 104.043 246.167 103.047C246.167 102.715 246.333 101.885 246.333 101.885ZM245.835 124.792C244.839 124.958 245.503 123.962 245.503 123.962C245.503 123.962 248.325 122.801 250.151 121.805C253.139 120.311 258.783 114.335 257.289 117.157C256.625 118.485 254.633 120.145 254.633 120.145C254.633 120.145 252.309 123.464 251.811 123.962C249.653 125.622 246.997 124.626 245.835 124.792ZM222.429 189.2L222.595 188.868C222.595 188.868 227.575 185.548 235.377 186.544C240.025 187.208 244.507 191.358 243.843 191.856C243.179 192.354 242.183 191.856 241.851 191.856L240.191 191.026L237.701 190.362C237.701 190.362 233.219 189.366 229.899 189.532C226.579 189.698 223.591 190.86 223.591 190.86C223.591 190.86 222.263 191.524 221.931 190.694C221.765 189.698 222.429 189.2 222.429 189.2ZM234.713 282.657C223.259 273.859 209.315 255.931 210.975 254.271C212.469 252.943 218.113 261.243 226.579 270.373C235.543 280.001 246.001 289.131 246.333 290.293C246.997 292.285 239.029 285.977 234.713 282.657ZM260.775 158.656C255.961 166.956 249.321 173.264 249.321 173.264C246.997 174.924 248.491 171.936 248.491 171.936C248.491 171.936 254.965 162.972 257.953 156.664C260.111 152.182 261.439 146.206 262.435 145.044C264.759 142.222 263.597 153.676 260.775 158.656ZM274.055 249.623C269.075 243.647 265.423 237.173 264.261 229.039C263.929 227.213 263.929 224.557 265.589 224.889C267.083 225.055 266.917 227.877 266.917 228.541C267.415 233.355 269.407 238.169 273.059 243.979C278.205 252.113 286.505 258.421 286.173 258.919C285.343 259.749 277.043 253.275 274.055 249.623ZM275.549 404.831C272.727 407.487 267.913 411.139 267.913 411.139H267.249V410.309L267.415 409.977L267.747 409.479L268.079 408.981L268.411 408.483L269.407 407.321L271.731 405.163L274.055 403.005L277.707 399.353C277.707 399.353 279.035 397.859 279.533 397.527C280.031 397.195 280.363 396.863 280.861 396.531C281.525 396.199 282.355 395.702 282.687 396.034V396.698C282.853 397.195 278.537 402.009 275.549 404.831ZM285.841 281.993C283.683 283.487 282.853 283.321 281.525 284.815C280.031 286.641 279.533 292.783 278.039 290.293C276.545 287.803 277.541 284.317 280.031 281.661C283.019 278.175 289.493 279.337 285.841 281.993ZM293.642 391.22C294.638 390.888 295.136 391.054 295.136 391.054L295.468 391.718C295.468 391.884 294.14 393.71 293.476 393.71C292.646 393.544 292.978 392.548 292.978 392.548C292.978 392.548 292.646 391.552 293.642 391.22ZM322.028 323.658C320.534 322.662 322.858 319.674 322.858 317.184C322.858 315.192 322.526 313.698 322.526 312.038C322.526 310.378 324.186 309.88 324.186 309.88C324.518 309.88 325.182 310.212 326.012 311.872C326.842 313.532 324.684 325.318 322.028 323.658ZM372.824 276.183C372.492 283.155 372.16 288.135 368.01 293.447C363.03 299.921 354.398 306.56 356.224 301.249C357.386 298.095 365.022 294.111 368.01 285.313C369.67 280.001 370.002 275.021 370.002 275.021L369.67 264.895C369.67 264.895 369.504 264.065 369.504 262.903C370.002 261.575 370.666 262.571 370.666 262.571L370.998 263.069C370.998 263.401 372.99 271.203 372.824 276.183Z" fill="black"/>
</svg>
