<svg width="512" height="512" viewBox="0 0 512 512" fill="none" xmlns="http://www.w3.org/2000/svg">
<path d="M246.608 212.968C241.734 213.985 230.392 217.301 215.683 221.987L209.258 224.021L197.296 223.977C184.758 223.889 166.637 223.181 102.261 220.263C46.1262 217.699 49.7592 217.787 50.2022 218.539C52.5061 222.43 57.0696 225.569 61.7659 226.409C66.5509 227.337 83.254 228.929 137.484 233.748C152.592 235.119 168.542 236.578 172.928 237.064C195.878 239.585 200.619 241.795 207.132 252.937C213.689 264.212 216.79 268.766 222.151 274.823C228.753 282.295 240.76 291.359 251.26 296.753L256.001 299.185L260.741 296.753C271.109 291.447 283.248 282.295 289.85 274.823C295.211 268.766 298.312 264.212 304.869 252.937C311.382 241.795 316.123 239.585 339.073 237.064C343.459 236.578 359.409 235.119 374.517 233.748C428.747 228.929 445.45 227.337 450.235 226.409C454.932 225.569 459.495 222.43 461.799 218.539C462.242 217.787 465.875 217.699 409.74 220.263C357.681 222.606 330.301 223.756 316.699 224.066C303.407 224.375 305.401 224.729 285.995 218.76C268.716 213.41 263.488 212.216 256.887 212.039C252.722 211.907 250.817 212.084 246.608 212.968ZM267.609 221.192C276.957 223.535 288.565 227.382 293.527 229.769C298.49 232.201 299.686 233.572 299.553 236.843C299.42 242.149 292.597 257.668 287.103 265.317C283.736 270.048 276.957 277.034 271.729 281.234C267.52 284.638 257.994 290.917 256.532 291.315C254.716 291.757 244.57 285.036 236.861 278.316C229.019 271.463 223.082 263.725 218.518 254.44C216.037 249.356 212.803 240.425 212.36 237.285C211.784 233.483 214.531 231.096 223.215 227.735C230.614 224.861 245.766 220.573 253.342 219.202C255.691 218.804 260.919 219.512 267.609 221.192Z" fill="black"/>
<path d="M224.057 239.408C221.974 240.778 221.133 243.431 221.974 245.996C222.993 249.312 226.759 250.771 230.702 249.4C232.032 248.914 232.076 248.825 232.076 246.305V243.697H230.082C228.133 243.697 227.424 244.36 228.753 244.846C229.152 245.023 229.418 245.686 229.418 246.615C229.418 247.985 229.329 248.118 228.088 248.118C224.943 248.118 223.392 243.962 225.474 241.265C226.316 240.248 226.715 240.115 228.266 240.248C229.285 240.381 230.437 240.602 230.88 240.778C231.5 241.088 231.633 240.911 231.633 240.027C231.633 238.789 230.747 238.391 227.601 238.391C226.228 238.391 225.076 238.7 224.057 239.408Z" fill="black"/>
<path d="M233.715 238.7C233.538 238.833 233.582 239.187 233.848 239.496C234.069 239.761 234.335 242.149 234.379 244.846L234.512 249.665L238.411 249.798C242.044 249.931 242.266 249.886 242.266 249.002C242.266 248.206 242 248.118 239.563 248.118H236.905L237.038 246.438C237.171 244.802 237.171 244.802 239.297 244.669C240.759 244.581 241.38 244.36 241.38 243.873C241.38 243.431 240.804 243.254 239.164 243.254H236.949V241.707V240.159H239.652C241.956 240.159 242.31 240.071 242.088 239.452C241.956 239.054 241.823 238.656 241.823 238.568C241.823 238.258 234.025 238.391 233.715 238.7Z" fill="black"/>
<path d="M243.772 238.921C243.595 239.187 243.683 239.54 243.949 239.629C244.304 239.717 244.481 241.353 244.481 244.89C244.481 249.886 244.481 249.931 245.5 249.798C246.386 249.665 246.475 249.356 246.696 246.615L246.918 243.52L249.487 246.747C251.481 249.179 252.323 249.886 253.032 249.798C253.962 249.665 254.006 249.444 254.006 244.139C254.006 238.789 253.962 238.612 253.032 238.479C252.101 238.347 252.057 238.523 251.924 241.884L251.791 245.465L249 241.928C246.918 239.231 245.987 238.391 245.19 238.391C244.569 238.391 243.949 238.612 243.772 238.921Z" fill="black"/>
<path d="M256.001 239.01C256.001 239.364 256.223 239.806 256.444 239.938C256.71 240.115 256.887 242.282 256.887 245.067V249.886H260.653C264.109 249.886 264.419 249.798 264.419 249.002C264.419 248.206 264.109 248.118 261.982 248.118H259.545V246.349V244.581H261.761C263.444 244.581 263.976 244.404 263.976 243.918C263.976 243.431 263.444 243.254 261.761 243.254H259.545V241.707V240.159H262.027C264.109 240.159 264.463 240.027 264.33 239.364C264.197 238.745 263.577 238.612 260.077 238.479C256.71 238.391 256.001 238.479 256.001 239.01Z" fill="black"/>
<path d="M267.608 238.833C267.077 239.054 266.412 239.761 266.191 240.425C265.526 242.149 266.501 243.697 269.071 245.111C271.64 246.482 272.039 247.808 270.045 248.029C269.336 248.118 268.184 247.985 267.476 247.72C266.191 247.278 266.146 247.322 266.279 248.472C266.412 249.621 266.545 249.665 269.115 249.798C271.286 249.886 271.995 249.754 272.969 249.002C275.229 247.234 274.432 244.713 271.064 243.033C269.469 242.237 268.849 241.663 268.849 240.955C268.849 240.115 269.026 240.071 271.286 240.292C273.457 240.513 273.723 240.425 273.723 239.717C273.723 239.275 273.412 238.789 273.014 238.656C271.995 238.258 268.805 238.391 267.608 238.833Z" fill="black"/>
<path d="M275.672 238.921C275.495 239.187 275.584 239.54 275.85 239.629C276.204 239.717 276.381 241.353 276.381 244.846V249.886H277.71H279.039V244.139V238.391H277.533C276.691 238.391 275.85 238.612 275.672 238.921Z" fill="black"/>
<path d="M282.982 239.054C280.413 240.469 281.166 243.21 284.577 244.979C286.084 245.775 286.793 246.438 286.793 247.013C286.793 248.074 284.976 248.427 282.982 247.72C281.698 247.278 281.653 247.322 281.786 248.472C281.919 249.621 282.052 249.665 284.622 249.798C287.989 249.975 289.673 248.87 289.673 246.615C289.673 245.023 289.097 244.36 286.261 242.812C285.02 242.149 284.356 241.442 284.356 240.911C284.356 240.115 284.577 240.071 286.793 240.292C288.964 240.513 289.229 240.425 289.229 239.717C289.229 239.275 288.919 238.789 288.521 238.656C287.28 238.17 284.179 238.391 282.982 239.054Z" fill="black"/>
<path d="M62.9175 232.112C63.0061 232.333 64.5568 233.837 66.3733 235.517C79.4877 247.455 89.0576 251.08 113.337 253.158C124.413 254.131 139.521 255.059 157.864 255.855C166.636 256.253 174.877 256.784 176.206 257.049C177.846 257.359 179.042 257.933 180.194 258.95C181.08 259.746 181.656 260.542 181.523 260.675C181.257 260.94 149.313 260.409 131.281 259.834C125.61 259.658 122.996 259.702 123.306 260.011C124.325 261.028 146.477 267.218 158.706 269.915L164.953 271.286L182.232 271.33C200.973 271.374 200.84 271.374 203.233 273.894L204.252 275L202.346 275.265C200.175 275.53 187.992 276.415 186.397 276.415C185.776 276.415 185.555 276.592 185.821 276.813C186.308 277.343 202.036 281.632 209.037 283.224C215.549 284.638 226.759 286.716 226.98 286.495C227.069 286.407 226.05 285.434 224.676 284.373C218.961 279.819 212.492 271.993 204.119 259.613C199.777 253.158 195.346 248.339 192.289 246.659C188.169 244.448 178.82 242.812 158.971 240.823C107.489 235.782 65.3986 231.759 63.4934 231.759C63.0947 231.759 62.8289 231.936 62.9175 232.112Z" fill="black"/>
<path d="M430.121 233.35C421.482 234.146 404.114 235.826 391.575 237.064C379.037 238.302 362.688 239.894 355.245 240.646C333.225 242.768 323.965 244.36 319.712 246.659C316.655 248.339 312.224 253.158 307.883 259.613C299.509 271.993 293.04 279.819 287.325 284.373C285.951 285.434 284.932 286.407 285.021 286.495C285.243 286.716 296.452 284.638 302.965 283.224C309.965 281.632 325.693 277.343 326.181 276.813C326.447 276.592 326.225 276.415 325.605 276.415C324.01 276.415 311.826 275.53 309.655 275.265L307.75 275L308.769 273.894C311.161 271.374 311.028 271.374 329.769 271.33L347.048 271.286L353.296 269.915C365.48 267.218 387.677 261.028 388.696 260.011C389.006 259.702 386.436 259.658 380.942 259.834C363.574 260.365 330.744 260.94 330.478 260.675C330.345 260.542 330.921 259.746 331.807 258.95C332.959 257.933 334.156 257.359 335.795 257.049C337.124 256.784 345.365 256.253 354.137 255.855C372.48 255.059 387.544 254.131 398.664 253.158C422.899 251.08 432.514 247.455 445.628 235.517C447.444 233.837 449.039 232.333 449.084 232.112C449.305 231.582 447.4 231.715 430.121 233.35Z" fill="black"/>
</svg>
