<svg width="512" height="512" viewBox="0 0 512 512" fill="none" xmlns="http://www.w3.org/2000/svg">
<path d="M343.751 301.694L256 183.672L168.249 301.694C138.615 298.815 87.6899 279.529 87.6899 245.273C87.6899 202.095 162.494 161.794 256.288 161.794C354.972 161.794 424.885 202.095 424.885 245.273C424.885 279.817 373.673 299.103 344.327 301.406M256 149.129C134.587 149.129 50 196.625 50 257.939C50 286.725 68.4134 318.965 107.542 338.54C144.081 356.675 195.293 363.008 202.486 363.871L256 207.564L309.514 363.871C342.246 360.203 374.247 351.665 404.458 338.54C443.587 318.965 462 286.725 462 257.939C461.712 196.337 377.413 149.129 256 149.129Z" fill="#231F20"/>
</svg>
