<svg width="512" height="512" viewBox="0 0 512 512" fill="none" xmlns="http://www.w3.org/2000/svg">
<path d="M84.6748 195.676C84.8042 195.487 85.3284 193.534 87.9837 193.286C87.9837 193.286 89.3181 193.192 90.8568 193.68C90.8568 193.68 89.9786 196.114 86.3769 196.551L84.3684 196.755L84.6748 195.676ZM439.672 306.855C438.759 309.288 434.885 312.283 430.365 313.938C425.605 315.606 415.57 315.657 410.443 313.857C410.443 313.857 409.347 312.626 405.813 311.467C397.426 308.822 394.689 306.993 390.467 302.752C387.458 299.815 384.129 296.041 380.97 292.492C379.513 290.896 376.054 287.238 369.933 286.101C363.615 284.95 348.017 283.675 342.25 281.452C338.397 280.009 333.753 277.225 328.048 268.022C325.291 263.613 323.187 262.324 319.211 259.627C319.211 259.627 322.254 262.185 323.854 265.304C326.128 269.822 327.258 273.05 328.497 275.477C329.811 277.925 331.241 280.031 333.542 282.006C336.368 284.454 338.227 284.986 341.447 285.708C344.49 286.349 354.982 286.859 363.962 287.201C372.8 287.602 376.592 290.51 379.336 292.987C381.889 295.261 385.919 301.826 388.779 304.523C392.564 308.071 392.66 308.166 397.065 311.066C399.311 312.553 401.272 313.559 403.077 314.236C407.182 316.801 405.493 321.225 405.493 321.225C404.302 324.766 400.115 326.019 395.226 325.298C387.873 324.591 381.507 318.018 376.17 313.311C373.222 310.724 372.126 309.412 366.475 305.208C357.848 298.788 337.457 299.342 337.457 299.342L322.594 299.21C293.611 299.662 282.997 274.733 280.076 269.465C279.068 267.658 278.156 266.171 277.25 264.976C275.916 263.009 268.611 252.858 260.829 249.272C260.829 249.272 268.304 256.195 267.521 259.97C265.962 259.97 264.09 260.05 261.938 260.145C232.717 261.048 226.61 259.292 221.973 258.301C217.35 257.332 209.684 254.869 202.106 251.145C202.106 251.145 202.937 243.487 199.941 237.096C199.941 237.096 224.063 246.168 243.263 243.581C243.263 243.581 212.278 241.985 192.942 225.531C192.942 225.531 197.708 242.918 193.963 250.242C193.963 250.242 188.864 263.482 162.842 254.643C162.842 254.643 150.818 249.637 141.532 249.637C141.532 249.637 134.533 249.957 133.675 253.841C133.675 253.841 133.212 255.7 135.05 256.625C135.05 256.625 137.1 257.237 136.099 258.869C134.533 261.529 132.354 263.54 130.155 264.699C122.884 264.349 123.455 257.98 123.455 257.98C123.592 255.7 124.293 254.126 124.872 252.588C129.481 241.687 145.508 240.076 145.508 240.076C162.604 238.269 180.51 242.67 180.51 242.67C167.696 239.391 163.319 236.994 159.697 233.737C154.726 229.35 150.144 214.521 150.144 214.521C148.184 221.8 150.621 229.117 152.255 232.899C149.845 228.745 146.345 225.247 143.309 222.595C135.37 215.861 123.939 213.668 123.939 213.668C120.657 213.056 119.35 209.398 119.35 209.398C115.081 201.025 110.302 200.668 110.302 200.668C112.671 204.137 112.426 208.866 112.426 208.866C112.426 217.581 101.9 220.481 101.9 220.481C94.0432 228.832 92.6747 228.679 91.1428 228.781C89.5905 228.876 88.4875 227.186 88.4875 227.186C87.9633 226.413 88.7939 225.692 88.7939 225.692C90.1556 224.781 91.3743 223.659 91.3743 223.659C99.0405 217.049 100.116 213.705 99.4899 209.15C98.2644 199.961 91.313 200.639 91.313 200.639C88.0654 200.639 86.4654 203.284 86.4654 203.284C85.2263 204.88 82.4621 209.864 82.4621 209.864C80.0519 214.142 77.8868 213.515 77.8868 213.515C75.2316 213.705 73.298 211.139 73.298 211.139L73.0256 210.855C71.0716 208.596 72.7805 205.842 72.7805 205.842C76.0009 199.699 81.6315 199.109 82.3531 199.036C83.1633 198.999 85.7097 198.824 85.7097 198.824C92.0892 198.307 96.1742 191.843 96.1742 191.843C93.5121 190.474 88.7939 191.195 88.7939 191.195C84.1097 191.501 82.8842 196.806 82.8842 196.806C78.9149 197.403 79.0783 194.117 79.9021 193.243C80.6034 192.412 82.9863 188.258 98.4074 185.788C98.4074 185.788 106.598 184.024 121.107 185.752C121.638 185.81 122.114 186.32 121.454 187.172C119.622 189.49 113.924 194.532 104.732 192.062C104.732 192.062 104.589 196.012 114.598 197.928C114.598 197.928 123.592 200.02 138.291 212.604C138.291 212.604 131.203 198.54 118.846 194.212C118.846 194.212 117.954 193.629 118.744 192.718C118.744 192.718 124.592 187.136 134.887 187.704C134.887 187.704 168.908 189.584 188.067 210.935C188.067 210.935 187.386 207.365 184.486 202.22L184.227 201.164C184.227 201.164 184.486 200.253 187.774 200.952C187.774 200.952 199.941 203.116 228.162 214.142C228.162 214.142 249.275 222.048 260.829 227.171C278.142 234.815 321.553 253.637 348.97 269.88C353.818 272.722 374.243 283.485 374.243 283.485C389.494 293.614 403.546 300.937 403.546 300.937C417.313 307.751 427.382 304.617 427.382 304.617C430.569 303.328 436.683 299.815 439.093 302.3C440.318 303.612 440.346 305.273 439.672 306.855ZM443.083 301.163C441.347 296.667 435.491 297.768 435.491 297.768C432.816 297.921 429.493 300.937 424.789 301.921C414.807 304.144 407.155 300.5 407.155 300.5C392.312 293.439 382.345 285.737 375.836 281.78C369.3 277.757 345.219 264.262 321.165 251.313C321.165 251.313 293.577 236.185 252.733 218.171C252.733 218.171 174.008 180.002 117.355 180.002C117.355 180.002 87.9837 179.565 78.0639 191.683C78.0639 191.683 76.2937 193.221 77.1447 195.123L76.8996 196.012C76.8996 196.012 72.5354 199.072 68.9746 203.474C68.9746 203.474 67.0751 205.558 68.5797 208.676C68.5797 208.676 70.4725 212.203 71.6503 213.705C72.9235 215.213 75.3337 217.836 79.0443 217.45C80.6579 217.275 80.6783 216.845 80.6783 216.845C82.3804 218.682 85.3284 218.82 85.3284 218.82C85.0493 217.647 83.9395 215.439 83.8306 214.142C83.7353 212.713 84.2459 211.314 84.2459 211.314C84.8859 209.777 86.0297 207.766 87.1871 206.796C88.2424 205.944 90.8568 205.011 92.7768 206.476C94.3223 207.613 95.9836 211.314 94.1385 216.291C94.1385 216.291 92.0075 220.146 90.0807 220.598L89.5632 220.634C88.4399 220.598 85.9616 219.119 85.9616 219.119C85.9616 219.119 85.8527 219.41 86.1318 220.758C86.2816 221.509 86.5063 222.362 86.7173 223.017L86.1999 223.484C86.1999 223.484 84.634 224.781 85.3284 226.748C85.3284 226.748 86.8739 232.862 91.0951 232.862C94.8329 232.957 97.9376 229.182 97.9376 229.182C105.999 219.92 117.355 218.645 117.355 218.645C129.923 217.734 147.836 231.499 152.738 235.456C134.131 235.216 126.628 242.896 126.628 242.896C116.191 251.582 120.235 262.098 120.235 262.098C120.95 264.357 123.129 266.047 124.538 266.71C126.478 267.599 128.133 267.658 129.631 267.468C130.761 267.337 131.98 266.9 132.558 266.441C134.015 265.544 136.555 263.766 137.78 261.886C138.584 260.924 139.428 258.622 138.863 256.406C138.863 256.406 138.516 254.643 140.061 254.264C140.061 254.264 144.95 252.916 154.924 257.66C154.924 257.66 165.722 264.357 179.761 265.683C179.761 265.683 195.706 267.468 199.56 258.192C199.56 258.192 208.724 262.214 222.157 263.861C222.157 263.861 235.181 265.304 256.403 263.577C260.59 263.234 265.506 263.628 265.506 263.628C272.253 264.473 276.576 268.248 278.299 271.221C285.216 283.274 293.55 306.927 327.442 305.966L342.849 305.528C352.156 305.528 359.761 305.645 367.203 309.871C370.464 311.715 379.097 320.882 384.415 323.986C400.074 335.274 409.197 330.013 409.197 330.013C414.569 326.682 414.12 320.787 412.806 317.428C411.192 316.896 432.237 320.751 441.278 308.166C443.369 305.317 443.75 302.737 443.083 301.163Z" fill="#231F20"/>
</svg>
