<svg width="512" height="512" viewBox="0 0 512 512" fill="none" xmlns="http://www.w3.org/2000/svg">
<path d="M259.299 428.295C322.521 378.564 352.23 314.2 365.457 263.595C378.988 211.773 381.046 161.981 380.999 160.202L380.913 157.397L378.822 155.684C327.312 108.049 260.801 82.5877 257.664 81.5557L255.997 81L254.336 81.5557C251.2 82.5877 186.297 108.049 133.178 155.684L131.081 157.397L131.001 160.202C130.948 161.981 132.417 211.918 146.491 263.595C159.513 311.388 187.15 380.456 252.702 428.295L255.997 430.703L259.299 428.295Z" fill="#1A377A"/>
<path fill-rule="evenodd" clip-rule="evenodd" d="M256.076 128.349C245.013 131.947 181.063 153.393 142.104 182.426C142.223 203.098 149.111 337.139 256.076 420.402C360.56 337.139 369.764 203.092 369.883 182.426C330.924 153.393 267.139 131.947 256.076 128.349Z" fill="#CB9F18"/>
<path d="M253.43 89.9302L253.595 96.2144C251.273 94.5938 248.123 93.7338 244.497 93.7338C242.797 93.7338 240.587 94.1572 238.708 94.8914L239.038 99.1912C240.99 98.0865 242.81 97.8682 244.663 97.8682C249.982 97.8682 253.76 101.85 253.76 107.129C253.761 112.375 250.002 116.39 244.497 116.39C242.466 116.39 240.09 116.026 238.873 115.398L238.708 119.698C240.593 120.141 242.539 120.525 244.497 120.525C248.031 120.525 251.22 119.737 253.595 118.209L253.43 123.832H255.911H258.558V118.375C260.867 119.731 263.831 120.525 267.159 120.525C269.118 120.525 271.063 120.141 272.949 119.698L272.783 115.398C271.566 116.026 269.191 116.39 267.159 116.39C261.661 116.39 258.392 112.368 258.392 107.129C258.392 101.844 261.681 97.8682 266.994 97.8682C268.846 97.8682 270.659 98.0799 272.618 99.1912L272.949 94.8914C271.07 94.1506 268.86 93.7338 267.159 93.7338C263.752 93.7338 260.827 94.6136 258.558 96.0491V89.9302H255.911H253.43Z" fill="#CB9F18"/>
<path d="M255.911 128.297V145.166L295.28 142.85C276.237 135.045 260.854 129.898 255.911 128.297ZM255.911 145.166V177.745L318.438 171.957L369.387 191.636C369.612 187.588 369.704 184.399 369.718 182.375C363.902 178.042 357.523 173.934 350.86 169.972L318.438 171.791L255.911 145.166ZM255.911 177.745V177.91V210.489L318.438 202.22L366.575 219.089C367.786 210.754 368.427 203.398 368.891 197.424L318.438 202.055L255.911 177.745ZM255.911 210.489V243.233L318.438 232.649L361.612 246.045C363.174 239.092 364.398 232.51 365.417 226.365L318.438 232.319L255.911 210.489ZM255.911 243.233V275.812L318.438 262.913L354.499 272.836C356.273 267.061 357.748 261.431 359.131 255.967L318.438 262.748L255.911 243.233ZM255.911 275.812V308.557L318.438 293.177L345.071 299.461C346.817 295.102 348.359 290.828 349.868 286.562L318.438 293.011L255.911 275.812ZM255.911 308.557V341.136L318.438 323.606L332.83 326.417C334.107 323.917 335.278 321.463 336.469 318.975L318.438 323.275L255.911 308.557ZM255.911 341.136V341.301V373.88L316.453 354.531C316.692 354.174 316.884 353.737 317.115 353.373L255.911 341.136ZM255.911 373.88V406.624L281.881 397.198C287.281 391.741 292.342 386.177 297.1 380.495L255.911 373.88ZM255.911 406.624V420.351C260.946 416.428 265.704 412.406 270.302 408.278L255.911 406.624Z" fill="#CB9F18"/>
<path d="M255.911 128.297C250.975 129.898 235.406 135.045 216.376 142.85L255.911 145.166V128.297ZM255.911 145.166L193.383 171.791L160.962 169.972C154.292 173.941 147.92 178.036 142.104 182.375C142.117 184.406 142.038 187.568 142.269 191.636L193.383 171.957L255.911 177.745V145.166ZM255.911 177.745L193.383 202.055L142.766 197.424C143.229 203.411 144.029 210.734 145.247 219.089L193.383 202.22L255.911 210.489V177.745ZM255.911 210.489L193.383 232.319L146.239 226.365C147.265 232.524 148.648 239.066 150.209 246.045L193.383 232.649L255.911 243.233V210.489ZM255.911 243.233L193.383 262.748L152.525 255.802C153.915 261.279 155.542 267.041 157.322 272.836L193.383 262.913L255.911 275.812V243.233ZM255.911 275.812L193.383 293.011L161.789 286.562C163.304 290.848 164.998 295.082 166.751 299.461L193.383 293.177L255.911 308.557V275.812ZM255.911 308.557L193.383 323.275L175.187 318.975C176.385 321.482 177.536 323.897 178.827 326.417L193.383 323.606L255.911 341.136V308.557ZM255.911 341.301L194.541 353.373C194.759 353.704 194.984 354.035 195.203 354.366L255.911 373.88V341.301ZM255.911 373.88L214.557 380.495C219.287 386.144 224.409 391.774 229.775 397.198L255.911 406.624V373.88ZM255.911 406.624L241.354 408.444C245.946 412.565 250.882 416.434 255.911 420.351V406.624Z" fill="#E3B80F"/>
<path d="M216.541 142.901C199.272 149.979 179.031 159.28 160.961 170.023L193.383 171.842L255.911 145.217L216.541 142.901ZM193.383 172.007L142.435 191.687C142.534 193.434 142.6 195.398 142.765 197.475L193.383 202.106L255.911 177.796L193.383 172.007ZM193.383 202.271L145.247 219.14C145.584 221.461 145.829 223.942 146.239 226.416L193.383 232.37L255.911 210.54L193.383 202.271ZM193.383 232.7L150.209 246.096C150.924 249.291 151.678 252.512 152.525 255.853L193.383 262.799L255.911 243.284L193.383 232.7ZM193.383 262.964L157.322 272.887C158.698 277.385 160.141 281.962 161.788 286.613L193.383 293.062L255.911 275.863L193.383 262.964ZM193.383 293.228L166.751 299.512C169.312 305.902 172.077 312.524 175.187 319.026L193.383 323.326L255.911 308.608L193.383 293.228ZM193.383 323.657L178.826 326.468C183.438 335.478 188.712 344.474 194.541 353.424L255.911 341.187L193.383 323.657ZM195.203 354.417C201.012 363.261 207.41 372.013 214.556 380.546L255.911 373.931L195.203 354.417ZM229.775 397.249C233.52 401.039 237.278 404.843 241.354 408.495L255.911 406.675L229.775 397.249Z" fill="#DA442D"/>
<path d="M295.28 142.901L255.911 145.217L318.438 171.842L350.86 170.023C332.797 159.28 312.55 149.986 295.28 142.901ZM318.438 172.007L255.911 177.796L318.438 202.106L369.056 197.475C369.221 195.372 369.294 193.453 369.387 191.687L318.438 172.007ZM318.438 202.271L255.911 210.54L318.438 232.37L365.417 226.416C365.827 223.922 366.237 221.481 366.575 219.14L318.438 202.271ZM318.438 232.7L255.911 243.284L318.438 262.799L359.131 256.018C359.984 252.658 360.891 249.311 361.612 246.096L318.438 232.7ZM318.438 262.964L255.911 275.863L318.438 293.062L349.868 286.613C351.515 281.949 353.11 277.411 354.499 272.887L318.438 262.964ZM318.438 293.228L255.911 308.608L318.438 323.326L336.469 319.026C339.592 312.504 342.51 305.922 345.071 299.512L318.438 293.228ZM318.438 323.657L255.911 341.187L317.115 353.424C322.944 344.474 328.225 335.478 332.83 326.468L318.438 323.657ZM316.453 354.582L255.911 373.931L297.1 380.546C304.226 372.033 310.657 363.4 316.453 354.582ZM281.881 397.249L255.911 406.675L270.302 408.329C274.345 404.704 278.163 401.013 281.881 397.249Z" fill="#C83E29"/>
<path d="M255.911 89.9814V123.883H258.558V118.426C260.867 119.782 263.831 120.576 267.159 120.576C269.118 120.576 271.063 120.192 272.949 119.749L272.783 115.449C271.566 116.078 269.191 116.442 267.159 116.442C261.661 116.442 258.392 112.42 258.392 107.181C258.392 101.895 261.681 97.9195 266.994 97.9195C268.846 97.9195 270.659 98.1312 272.618 99.2425L272.949 94.9427C271.07 94.2018 268.86 93.7851 267.159 93.7851C263.752 93.7851 260.827 94.6649 258.558 96.1003V89.9814H255.911Z" fill="#CB9F18"/>
<path d="M253.43 89.9814L253.595 96.2657C251.273 94.645 248.123 93.7851 244.497 93.7851C242.797 93.7851 240.587 94.2084 238.708 94.9427L239.038 99.2425C240.99 98.1378 242.81 97.9195 244.663 97.9195C249.982 97.9195 253.76 101.902 253.76 107.181C253.761 112.426 250.002 116.442 244.497 116.442C242.466 116.442 240.09 116.078 238.873 115.449L238.708 119.749C240.593 120.192 242.539 120.576 244.497 120.576C248.031 120.576 251.22 119.789 253.595 118.261L253.43 123.883H255.911V89.9814H253.43Z" fill="#E3B80F"/>
</svg>
