<svg width="512" height="512" viewBox="0 0 512 512" fill="none" xmlns="http://www.w3.org/2000/svg">
<path d="M256 148C142.228 148 50 196.384 50 256C50 315.616 142.228 364 256 364C369.772 364 462 315.616 462 256C462 196.384 369.772 148 256 148Z" fill="#004E25"/>
<path d="M334.905 225.025H355.064L332.05 233.406L330.579 237.985L365.879 225.803L369.858 213.707H338.712L334.905 225.025Z" fill="#F5F0CC"/>
<path d="M174.673 232.715L170.434 244.811H140.152C140.152 244.811 140.844 244.552 141.883 242.478C142.834 240.405 156.85 199.624 156.85 199.624C156.85 199.624 158.754 195.39 156.591 194.267H174.154C174.154 194.267 173.116 194.008 171.472 198.328C170.52 200.834 158.754 233.493 158.754 233.493H171.385C171.385 233.579 174.241 233.925 174.673 232.715Z" fill="#F5F0CC"/>
<path d="M224.594 244.725H238.869C238.869 244.725 237.918 243.17 238.523 241.528C239.388 239.195 246.915 217.682 246.915 217.682L250.203 244.725H263.181L280.138 196.686C280.138 196.686 280.831 194.44 281.782 194.44H268.026C268.026 194.44 268.459 196.082 267.939 197.378C267.42 198.674 259.634 220.446 259.634 220.446L256.606 194.44H241.811C241.811 194.44 242.59 195.736 242.07 197.118C241.638 198.242 226.411 241.96 226.411 241.96C226.411 241.96 225.372 244.725 224.594 244.725Z" fill="#F5F0CC"/>
<path d="M306.094 194.44H289.829C289.829 194.44 291.04 196.514 289.483 201.179C287.925 205.931 275.467 240.923 275.467 240.923C275.467 240.923 274.515 244.206 273.131 244.811H292.684C292.684 244.811 316.39 245.762 323.658 219.755C323.658 219.842 333.002 194.181 306.094 194.44ZM307.825 222.002C303.672 232.542 297.529 233.32 294.241 233.32H291.992L301.509 205.326H305.143C305.143 205.326 314.573 204.722 307.825 222.002Z" fill="#F5F0CC"/>
<path d="M153.303 274.187H133.144L156.158 265.806L157.629 261.227L122.243 273.409L118.35 285.505H149.496L153.303 274.187Z" fill="#F5F0CC"/>
<path d="M206.944 274.878C212.828 255.352 193.102 255.87 193.102 255.87H172.943C174.414 257.598 173.289 261.141 173.289 261.141C173.289 261.141 160.744 298.552 159.792 301.49C158.84 304.341 157.023 306.414 157.023 306.414H172.943C172.424 306.414 172.424 304.773 172.424 304.773L178.134 288.962C178.134 288.962 185.228 303.563 185.748 304.6C186.267 305.637 186.007 306.501 186.007 306.501H203.051C201.407 306.501 199.763 303.304 199.763 303.304L191.285 287.406C203.138 287.147 206.944 274.878 206.944 274.878ZM193.102 273.15C190.852 278.162 184.882 277.557 184.882 277.557H181.768L185.055 267.448H188.43C195.697 267.448 193.102 273.15 193.102 273.15Z" fill="#F5F0CC"/>
<path d="M383.096 275.569C389.325 255.093 369.426 256.043 369.426 256.043H349.44C350.911 257.771 349.786 261.313 349.786 261.313C349.786 261.313 336.722 298.897 335.77 301.749C334.818 304.6 332.915 306.501 332.915 306.501H349.527C348.315 306.501 349.18 303.39 349.18 303.39L354.285 288.961C354.285 288.961 361.12 303.563 361.639 304.6C362.158 305.637 361.899 306.501 361.899 306.501H379.548C377.905 306.501 376.088 303.304 376.088 303.304L367.609 287.406C379.462 287.406 383.096 275.569 383.096 275.569ZM368.907 273.409C367.09 278.248 361.12 277.816 361.12 277.816H358.005L361.293 267.793H365.705C365.705 267.793 371.07 267.621 368.907 273.409Z" fill="#F5F0CC"/>
<path d="M238.61 254.574C223.037 254.574 212.828 266.929 210.232 282.222C207.809 296.305 215.423 307.624 228.055 307.624C245.618 307.624 256.173 289.566 256.173 276.606C256.173 263.041 250.809 254.574 238.61 254.574ZM240.946 282.654C238.437 293.195 233.592 296.478 229.179 295.614C223.21 294.491 224.248 284.814 225.2 280.321C227.276 270.558 232.554 265.893 236.447 266.325C237.745 266.584 244.753 266.67 240.946 282.654Z" fill="#F5F0CC"/>
<path d="M260.326 256.043C260.326 256.043 261.537 256.734 261.537 259.931V303.649C261.537 303.649 261.364 306.069 260.499 306.587H273.65C273.65 306.587 273.65 305.55 274.948 303.822C276.246 302.094 303.412 264.078 303.412 264.078C303.412 264.078 309.555 256.129 311.199 256.129H292.424C292.424 256.129 293.895 257.166 292.771 258.981C291.646 260.881 274.948 286.888 274.948 286.888L275.121 260.622C275.121 260.622 275.121 256.389 276.678 256.043H260.326Z" fill="#F5F0CC"/>
<path d="M339.491 267.966L343.73 256.043H311.978C311.978 256.043 313.103 257.08 311.632 261.313C310.161 265.547 297.27 301.749 297.27 301.749C297.27 301.749 294.934 306.501 294.328 306.501H327.032L330.925 294.405C330.925 294.405 330.406 295.096 327.378 295.096H313.535L316.477 286.974H327.292C327.292 286.974 329.541 286.801 330.06 287.493L334.473 274.619C334.473 274.619 334.127 275.829 331.185 275.829H320.803L323.917 266.843H337.068C337.068 266.757 338.799 266.497 339.491 267.966Z" fill="#F5F0CC"/>
<path d="M222.95 244.811C222.95 244.811 221.825 244.12 221.566 242.133L219.576 197.81C219.576 197.81 219.489 194.958 220.787 194.354H205.3C205.3 194.354 206.425 195.736 204.348 198.933C202.272 202.13 175.797 243.083 175.797 243.083C175.797 243.083 175.278 244.12 173.98 244.725H189.64C189.64 244.725 189.554 243.429 189.986 242.651C190.765 241.182 192.668 237.64 192.668 237.64H208.415V242.046C208.415 242.046 208.501 243.602 207.377 244.725C207.29 244.811 222.95 244.811 222.95 244.811ZM199.33 226.322L207.982 211.547L208.069 226.322H199.33Z" fill="#F5F0CC"/>
<path d="M255.567 168.261C153.13 168.261 70.0723 207.918 70.0723 256.734C70.0723 305.55 153.13 345.208 255.567 345.208C358.005 345.208 441.063 305.55 441.063 256.734C441.063 207.918 358.005 168.261 255.567 168.261Z" stroke="#004E25" stroke-width="2.9504"/>
<path d="M255.567 163.077C150.361 163.077 65.1406 204.721 65.1406 256.043C65.1406 307.365 150.448 348.923 255.567 348.923C360.774 348.923 446.081 307.278 446.081 256.043C445.994 204.721 360.774 163.077 255.567 163.077Z" stroke="#F5F0CC" stroke-width="5.5897"/>
</svg>
