<svg width="512" height="512" viewBox="0 0 512 512" fill="none" xmlns="http://www.w3.org/2000/svg">
<path fill-rule="evenodd" clip-rule="evenodd" d="M246.86 45.2128C236.187 45.7329 220.48 47.8128 216.407 49.2452C212.504 50.618 210.648 53.1278 209.511 58.5707C207.97 65.9475 203.195 97.8857 201.042 115.224C189.561 207.668 189.033 291.244 199.347 383.305C202.595 412.292 208.62 452.767 210.462 457.975C211.917 462.088 214.908 463.874 222.452 465.134C242.381 468.462 260.926 468.882 280.395 466.445C297.099 464.354 300.002 463.077 301.825 457.018C303.276 452.199 308.24 419.904 311.139 396.423C321.798 310.108 322.814 230.078 314.33 145.27C310.909 111.073 303.771 61.0805 301.416 54.8247C299.66 50.1601 296.766 48.8491 284.427 47.1264C270.941 45.2432 258.859 44.6279 246.86 45.2128ZM245.697 52.1071C244.479 53.2315 244.504 53.1359 243.025 62.3276C242.425 66.0516 241.772 69.4953 241.574 69.9799C241.262 70.7407 240.609 70.9324 236.82 71.3751C231.304 72.0191 228.373 72.8355 226.782 74.1706C224.373 76.1912 223.274 80.0163 220.148 97.2611C212.734 138.168 207.524 189.448 206.5 231.597C206.3 239.864 206.069 243.269 205.668 243.912C205.321 244.466 203.651 245.326 201.228 246.197C198.6 247.142 197.13 247.919 196.682 248.601C196.317 249.155 196.093 249.671 196.183 249.746C196.476 249.993 225.51 247.902 230.367 247.284C235.864 246.584 238.9 245.431 240.737 243.346C242.234 241.645 242.744 240.472 243.267 237.522C243.472 236.358 243.842 220.172 244.087 201.552C244.89 140.706 246.566 63.3369 247.284 53.9699C247.404 52.3991 247.339 51.1135 247.137 51.1135C246.936 51.1135 246.288 51.5604 245.697 52.1071ZM264.903 54.5899C264.903 56.5183 265.089 63.5231 265.314 70.1563C266.306 99.3757 267.257 146.691 267.871 197.32C268.116 217.569 268.508 235.438 268.742 237.029C269.517 242.318 271.519 244.727 276.395 246.24C279.693 247.263 283.625 247.686 299.709 248.75C306.83 249.221 313.372 249.713 314.247 249.843C315.37 250.01 315.839 249.922 315.839 249.547C315.839 248.439 314.344 247.457 310.658 246.143C308.301 245.302 306.642 244.449 306.301 243.904C305.905 243.268 305.678 239.781 305.489 231.38C304.672 195.264 300.62 151.419 294.586 113.42C292.311 99.0951 289.338 83.2955 288.265 79.8352C286.457 73.9975 284.517 72.6383 276.464 71.5655C273.643 71.1897 271.12 70.7501 270.859 70.5888C270.597 70.4272 269.757 66.5983 268.994 62.0796C267.558 53.5789 267.16 52.2891 265.74 51.5316C264.935 51.1021 264.901 51.2282 264.903 54.5899ZM196.134 263.469C196.134 264.496 197.891 265.699 200.933 266.755C206.594 268.72 206.138 267.535 206.479 281.191C207.468 320.922 211.722 365.211 218.431 405.632C222.814 432.041 224.204 437.224 227.482 439.381C228.949 440.346 232.462 441.13 238.908 441.93C240.353 442.109 241.269 442.455 241.498 442.907C241.693 443.293 242.384 446.94 243.034 451.013C244.326 459.116 244.88 460.809 246.474 461.533L247.532 462.013L247.298 458.946C246.523 448.768 244.879 373.552 244.093 312.212C243.654 278.074 243.466 274.057 242.18 271.587C241.467 270.216 239.576 268.478 237.862 267.616C234.469 265.91 232.791 265.702 210.142 264.186C204.889 263.835 199.589 263.438 198.363 263.305C197.051 263.163 196.134 263.23 196.134 263.469ZM297.367 264.402C281.045 265.607 277.867 266.029 274.669 267.416C271.048 268.988 269.44 271.345 268.741 276.1C268.507 277.691 268.115 295.75 267.87 316.232C267.253 367.706 266.465 406.782 265.264 445.413C264.995 454.087 264.882 461.291 265.013 461.422C265.475 461.882 266.911 460.767 267.363 459.598C267.613 458.95 268.395 454.914 269.1 450.63C269.805 446.346 270.533 442.692 270.718 442.51C270.904 442.328 273.253 441.886 275.938 441.528C284.148 440.435 285.688 439.649 287.4 435.683C289.729 430.29 295.377 397.495 298.862 369.129C302.668 338.159 305.632 297.437 305.647 275.906C305.652 268.676 305.692 268.607 310.958 266.782C314.038 265.714 315.839 264.503 315.839 263.5C315.839 263.03 316.247 263.01 297.367 264.402Z" fill="#040404"/>
</svg>
