<svg width="512" height="512" viewBox="0 0 512 512" fill="none" xmlns="http://www.w3.org/2000/svg">
<path fill-rule="evenodd" clip-rule="evenodd" d="M123.479 262.858H66.2726C61.151 262.858 58.8736 260.554 58.8736 255.606V244.563H50V255.606C50 262.753 56.1942 266.69 62.1057 266.69H123.479V262.858ZM215.817 244.563V262.858H163.52C158.399 262.858 156.121 260.554 156.121 255.606V244.563H147.245V255.606C147.245 262.753 153.439 266.69 159.353 266.69H224.694V244.563H215.817ZM325.146 262.858H264.838C259.717 262.858 257.439 260.554 257.439 255.606C257.439 250.619 259.717 248.394 264.838 248.394H325.146V244.563H260.671C254.758 244.563 248.563 248.484 248.563 255.606C248.563 262.753 254.757 266.69 260.671 266.69H325.146V262.858ZM449.893 244.563C455.803 244.563 462 248.484 462 255.606C462 262.753 455.804 266.69 449.893 266.69H383.675V244.563H449.893ZM453.125 255.606C453.125 250.619 450.848 248.394 445.726 248.394H392.55V262.857H445.726C450.848 262.857 453.125 260.554 453.125 255.606ZM350.084 267.291H358.724V244H350.084V267.291Z" fill="black"/>
</svg>
