<svg width="512" height="512" viewBox="0 0 512 512" fill="none" xmlns="http://www.w3.org/2000/svg">
<path d="M381.425 256.517C381.425 364.047 324.925 450.461 256.005 450.461C187.057 450.461 130.55 364.047 130.55 256.517C130.55 148.953 187.057 62.5396 256.005 62.5396C324.925 62.5396 381.425 148.953 381.425 256.517Z" fill="white"/>
<path fill-rule="evenodd" clip-rule="evenodd" d="M238.262 273.737H275.314V282.852H238.262V273.737Z" fill="#E21A22"/>
<path fill-rule="evenodd" clip-rule="evenodd" d="M242.785 286.435H270.826V296.593H242.785V286.435Z" fill="#E21A22"/>
<path fill-rule="evenodd" clip-rule="evenodd" d="M201.735 231.296H311.879V235.853H201.735V231.296Z" fill="#E21A22"/>
<path fill-rule="evenodd" clip-rule="evenodd" d="M195.869 239.958H317.723V244.516H195.869V239.958Z" fill="#E21A22"/>
<path fill-rule="evenodd" clip-rule="evenodd" d="M195.713 222.773H317.585V227.33H195.713V222.773Z" fill="#E21A22"/>
<path fill-rule="evenodd" clip-rule="evenodd" d="M276.045 254.395C269.922 259.961 269.957 269.98 269.957 269.98H256.806H243.69C243.69 269.98 243.724 259.961 237.601 254.395C233.343 250.499 228.131 249.664 228.131 249.664C224.718 249.003 224.715 248.586 224.715 248.377H288.883C288.883 248.377 288.883 248.968 285.473 249.664C285.473 249.664 280.289 250.499 276.045 254.395Z" fill="#E21A22"/>
<path fill-rule="evenodd" clip-rule="evenodd" d="M202.257 248.377C203.544 248.377 213.672 248.377 215.481 248.377C215.481 256.204 210.412 259.718 202.257 257.979C202.257 252.969 202.257 250.916 202.257 248.377Z" fill="#E21A22"/>
<path fill-rule="evenodd" clip-rule="evenodd" d="M249.116 122.062C254.404 111.625 255.413 95.9707 256.735 95.6924C258.057 95.9707 259.066 111.625 264.355 122.027C269.33 131.872 280.01 140.186 279.384 141.16C278.654 142.378 272.739 139.317 269.747 137.96C264.981 135.699 261.119 133.994 261.119 133.994C261.119 133.994 259.206 158.937 265.294 181.897C270.269 200.717 282.167 217.868 283.246 219.364H268.077C267.59 218.564 267.103 217.798 266.686 216.998C262.545 209.727 259.588 203.431 256.735 192.577C253.848 203.431 250.96 209.727 246.82 216.998C246.368 217.798 245.916 218.564 245.428 219.364H230.235C231.317 217.868 243.237 200.717 248.212 181.897C254.265 158.972 252.387 133.994 252.387 133.994C252.387 133.994 248.49 135.733 243.724 137.96C240.767 139.351 234.852 142.378 234.087 141.16C233.495 140.186 244.176 131.872 249.116 122.062Z" fill="#E21A22"/>
<path fill-rule="evenodd" clip-rule="evenodd" d="M201.729 219.364C201.67 217.52 200.716 192.264 194.792 172.435C188.303 150.692 175.26 137.751 176.137 136.464C176.937 135.246 187.729 137.438 195.821 143.004C204.456 148.953 212.928 158.763 212.305 159.494C211.922 159.946 209.007 157.511 203.754 155.563C198.163 153.475 195.717 153.858 195.717 153.858C195.717 153.858 204.989 169.2 209.585 185.828C213.436 199.778 215.44 217.798 215.544 219.364H201.729Z" fill="#E21A22"/>
<path fill-rule="evenodd" clip-rule="evenodd" d="M311.914 219.364C311.983 217.52 312.922 192.264 318.872 172.435C325.343 150.692 338.389 137.751 337.519 136.464C336.719 135.246 325.934 137.438 317.828 143.004C309.2 148.953 300.711 158.763 301.337 159.494C301.72 159.946 304.642 157.511 309.896 155.563C315.497 153.475 317.932 153.858 317.932 153.858C317.932 153.858 308.643 169.2 304.051 185.828C300.224 199.778 298.206 217.798 298.102 219.364H311.914Z" fill="#E21A22"/>
<path fill-rule="evenodd" clip-rule="evenodd" d="M311.392 248.377C310.105 248.377 299.981 248.377 298.172 248.377C298.172 256.204 303.251 259.718 311.392 257.979C311.392 252.969 311.392 250.916 311.392 248.377Z" fill="#E21A22"/>
<path d="M256.005 60C327.222 60 384 148.675 384 256.517C384 364.36 327.222 453 256.005 453C184.75 453 128 364.36 128 256.517C128 148.675 184.75 60 256.005 60ZM256.005 63.1658C187.593 63.1658 131.145 149.023 131.145 256.517C131.145 363.978 187.593 449.869 256.005 449.869C324.404 449.869 380.834 363.978 380.834 256.517C380.834 149.023 324.404 63.1658 256.005 63.1658Z" fill="#09264A"/>
<path d="M143.218 296.628H368.762C368.762 296.628 364.309 356.742 329.901 400.714C305.478 431.953 275.384 441.937 256.249 441.937C234.992 441.937 207.198 432.649 182.552 400.54C148.527 356.255 143.218 296.628 143.218 296.628Z" fill="#0C2E59"/>
<path d="M182.555 316.005L174.289 337.121H172.928L164.926 316.04L164.053 332.32C164.004 332.599 163.952 333.399 163.952 334.025C163.952 335.451 165.845 335.521 166.864 335.521H167.136V337.121H157.829V335.556C158.584 335.521 160.682 335.521 161.319 334.755C161.778 334.164 161.875 333.12 162.063 330.824L162.829 315.483C162.936 314.196 162.818 313.709 162.477 313.465C161.941 313.048 160.233 313.013 159.645 312.978V311.413H167.56L174.734 330.094L182.064 311.413H189.871V312.978H189.603C187.944 312.978 187.234 313.013 186.893 313.396C186.549 313.778 186.504 314.579 186.639 316.596L187.471 331.451C187.523 332.32 187.554 334.095 188.066 334.825C188.681 335.73 190.31 335.556 191.176 335.521V337.121H179.789V335.556C180.614 335.486 181.845 335.451 182.6 335.103C183.16 334.86 183.494 334.442 183.494 333.607C183.494 333.225 183.442 332.112 183.39 331.729L182.555 316.005Z" fill="white"/>
<path d="M234.47 311.308H235.792L236.348 317.64H234.887C234.087 315.274 232.567 312.352 229.543 312.352C227.56 312.352 225.556 314.022 225.556 315.796C225.556 316.909 225.852 317.675 226.805 318.614C228.239 320.075 230.469 321.536 232.128 322.754C234.783 324.702 236.836 326.893 236.836 330.546C236.836 334.512 233.332 337.991 228.917 337.991C227.31 337.991 225.856 337.434 224.335 336.982L224.036 336.878H223.751C223.302 336.878 223.358 337.052 223.302 337.399H221.994L221.26 330.616H222.798C223.556 332.981 225.515 336.217 228.496 336.217C229.933 336.217 233.27 335.208 233.27 332.042C233.27 330.581 232.779 329.537 231.836 328.494C230.873 327.485 229.453 326.476 227.595 325.224C222.902 321.988 221.994 319.623 221.994 317.292C221.994 313.431 225.831 310.613 229.022 310.613C230.253 310.613 231.443 310.856 232.459 311.204L233.273 311.587L233.739 311.761L233.913 311.83C234.157 311.83 234.331 311.482 234.47 311.308Z" fill="white"/>
<path d="M204.978 314.857L201.638 324.389H208.064L204.978 314.857ZM203.913 312.491L203.304 310.578H207.625L214.844 332.32C215.7 334.825 215.613 335.347 218.622 335.556V337.121H207.166V335.556C207.956 335.521 209.02 335.521 209.765 335.277C210.335 335.069 210.666 334.756 210.666 334.06C210.666 333.295 210.318 332.077 209.953 330.964L208.439 326.233H201.251C200.493 328.389 199.31 331.277 199.185 333.607C199.105 335.034 200.055 335.243 201.165 335.382L202.556 335.521L202.789 337.121H193.271V335.591C195.261 335.138 195.925 334.721 196.663 332.912C196.892 332.355 197.125 331.659 197.414 330.859L203.913 312.491Z" fill="white"/>
<path d="M254.962 313.291H249.569V323.102H254.336C255.344 323.102 255.832 323.102 256.179 322.788C256.736 322.267 256.806 320.597 256.841 319.971H258.371V328.32H256.841C256.736 325.432 256.875 324.98 253.988 324.98H249.569V333.016C249.569 334.338 249.604 334.79 249.813 334.999C250.091 335.312 251.274 335.242 251.622 335.242H255.588C258.824 335.242 259.241 333.538 259.937 330.442H261.433L260.841 337.121H241.567V335.521C244.559 335.66 245.255 335.347 245.255 332.459V316.074C245.255 313.048 244.351 312.943 241.567 313.013V311.413H259.937L260.146 317.466H258.719C258.197 314.335 258.093 313.291 254.962 313.291Z" fill="white"/>
<path d="M316.367 317.57H315.01L315.497 310.613H316.645C316.819 310.961 316.923 311.169 317.306 311.308C317.445 311.378 317.619 311.413 317.897 311.413H318.837H333.275C334.145 311.413 334.597 311.378 334.84 311.274C335.119 311.169 335.188 310.891 335.293 310.613H336.441L337.032 317.57H335.571C335.397 316.701 335.014 314.579 334.249 313.778C333.762 313.326 333.205 313.291 332.196 313.291H328.126V332.146C328.126 333.886 328.265 334.582 328.752 334.964C329.448 335.486 331.709 335.521 332.405 335.556V337.121H319.567V335.556C320.228 335.521 322.594 335.486 323.255 334.999C323.708 334.651 323.847 334.025 323.847 332.39V313.291H320.228C318.767 313.291 317.758 313.187 317.236 314.648C316.889 315.587 316.645 316.596 316.367 317.57Z" fill="white"/>
<path d="M340.929 311.413H352.966V312.978C348.826 313.187 349.104 313.848 349.104 317.814V331.868C349.348 335.208 349.87 335.312 353.105 335.556V337.121H341.103V335.556C341.938 335.486 342.877 335.486 343.677 335.242C344.025 335.138 344.095 335.034 344.269 334.755C344.756 333.781 344.79 331.833 344.79 329.433V316.666C344.79 313.396 344.095 313.222 340.929 312.978V311.413Z" fill="white"/>
<path d="M274.722 324.215H277.436C278.48 324.18 279.454 324.18 280.393 323.589C281.402 322.962 282.307 321.571 282.307 318.475C282.307 313.744 279.558 312.943 277.366 312.943C276.531 312.909 275.383 312.978 274.722 312.978V324.215ZM301.302 314.857L297.962 324.389H304.399L301.302 314.857ZM303.946 310.578L311.183 332.32C312.018 334.825 311.948 335.347 314.94 335.556V337.121H303.494V335.556C304.538 335.521 307.008 335.695 307.008 334.06C307.008 333.295 306.625 332.077 306.277 330.964L304.781 326.233H297.58C296.745 328.563 295.736 331.103 295.527 333.642C295.353 335.66 297.754 335.521 299.111 335.556V337.121H289.891C286.273 337.26 283.385 336.251 281.124 332.355C280.567 331.381 278.48 327.207 277.819 326.059H274.757L274.792 331.555C274.792 334.999 275.105 335.521 277.158 335.521H279.002V337.121H266.512V335.521C269.608 335.66 270.373 335.312 270.373 332.32V315.344C270.373 313.709 270.443 313.048 268.808 312.909C268.042 312.874 267.277 312.874 266.512 312.874V311.308C269.747 311.239 273.052 311.274 276.253 311.274C278.236 311.274 280.115 311.169 282.063 311.761C284.359 312.491 286.481 314.231 286.481 318.092C286.481 322.754 283.837 324.25 281.993 325.05C282.863 325.919 283.35 326.65 285.09 330.755C286.864 334.825 287.595 335.416 289.682 335.73C292.083 335.625 292.57 334.199 293.753 330.859L300.259 312.491L299.632 310.578H303.946Z" fill="white"/>
</svg>
