<svg width="512" height="512" viewBox="0 0 512 512" fill="none" xmlns="http://www.w3.org/2000/svg">
<path d="M386.611 167.208C360.929 139.687 319.494 127.078 256.324 127C193.155 127.078 151.72 139.687 126.037 167.208C107.001 187.624 95 215.886 95 254.22C95 275.417 100.238 329.404 142.924 357.276C168.489 373.945 201.481 384.758 256.324 384.836C311.207 384.758 344.16 373.984 369.724 357.276C412.411 329.404 417.649 275.417 417.649 254.22C417.649 216.003 405.609 187.546 386.611 167.208ZM256.324 362.624C235.568 362.585 218.72 360.907 204.804 357.433C191.2 354.036 179.903 348.845 170.209 341.467C162.977 335.962 156.684 329.053 151.485 320.855C147.068 313.868 143.393 305.865 140.618 297.121C134.95 279.36 134.325 263.198 134.325 257.07C134.325 248.052 134.95 239.464 136.162 231.579C151.016 239.581 165.127 243.602 177.558 247.154C178.535 247.428 179.473 247.701 180.451 247.974C197.807 252.932 211.566 259.49 222.59 267.961C229 272.88 234.551 278.579 239.125 284.903C244.089 291.734 248.037 299.541 250.891 308.051C252.181 311.955 253.549 314.336 256.324 314.336C259.1 314.336 260.468 311.916 261.758 308.051C264.611 299.541 268.599 291.734 273.524 284.903C278.097 278.579 283.648 272.88 290.059 267.961C301.082 259.49 314.842 252.932 332.198 247.974C333.175 247.701 334.113 247.428 335.091 247.154C347.521 243.602 361.633 239.581 376.487 231.579C377.699 239.464 378.324 248.052 378.324 257.07C378.324 263.198 377.699 279.438 372.07 297.121C369.294 305.865 365.62 313.868 361.203 320.855C356.004 329.053 349.71 336.002 342.44 341.467C332.745 348.806 321.409 354.036 307.806 357.394C293.929 360.868 277.081 362.585 256.324 362.624ZM256.324 267.688C255.816 267.688 254.917 267.102 253.353 264.213C246.669 251.839 237.718 241.221 226.772 232.594C218.485 226.075 208.986 220.649 198.549 216.511C197.025 215.886 195.461 215.301 193.898 214.676C180.294 209.328 166.183 203.785 153.088 196.212C151.602 195.353 150.156 194.494 148.788 193.635C151.407 189.068 154.417 184.696 157.779 180.714C162.626 174.937 168.294 169.823 174.626 165.529C181.037 161.196 188.347 157.566 196.399 154.677C212.778 148.86 232.362 146.011 256.324 145.972C280.286 146.011 299.91 148.86 316.288 154.677C324.302 157.527 331.651 161.196 338.061 165.529C344.394 169.823 350.062 174.898 354.909 180.714C358.271 184.696 361.281 189.068 363.9 193.635C362.532 194.494 361.085 195.353 359.6 196.212C346.505 203.785 332.393 209.328 318.79 214.676C317.227 215.301 315.702 215.886 314.138 216.511C303.662 220.649 294.163 226.075 285.915 232.594C274.97 241.221 266.058 251.839 259.334 264.213C257.732 267.063 256.833 267.688 256.324 267.688Z" fill="black"/>
<path d="M408.385 204.331C403.264 190.551 395.68 178.294 385.947 167.832C373.126 154.091 356.551 144.215 335.247 137.696C313.982 131.177 288.183 127.976 256.325 127.937C224.466 127.976 198.667 131.138 177.402 137.696C156.098 144.254 139.524 154.091 126.702 167.832C116.891 178.333 109.346 190.629 104.226 204.331C98.7139 219.126 95.8994 235.912 95.8994 254.259C95.8994 270.967 99.3393 327.765 143.433 356.535C157.153 365.513 172.047 371.993 188.855 376.404C208.009 381.44 230.095 383.899 256.286 383.899C282.515 383.86 304.562 381.401 323.716 376.404C340.564 371.993 355.418 365.474 369.138 356.535C413.232 327.765 416.672 270.967 416.672 254.259C416.75 235.951 413.935 219.165 408.385 204.331ZM147.694 193.635C150.43 188.834 153.557 184.345 157.075 180.129C177.089 156.277 208.635 145.113 256.364 145.074C304.093 145.113 335.638 156.277 355.652 180.129C359.17 184.305 362.298 188.834 365.034 193.635C365.112 193.752 365.151 193.869 365.229 193.987C365.112 194.065 364.995 194.143 364.917 194.182C362.415 195.743 359.835 197.266 357.138 198.749C344.824 205.502 331.768 210.655 319.142 215.613C317.579 216.237 316.054 216.823 314.491 217.448C290.255 227.011 272 242.899 260.234 264.643C258.748 267.414 257.576 268.624 256.403 268.624C255.23 268.624 254.057 267.414 252.572 264.643C240.767 242.899 222.512 227.011 198.315 217.448C196.791 216.862 195.266 216.237 193.742 215.652L193.703 215.613C181.076 210.655 168.02 205.502 155.707 198.749C153.01 197.266 150.43 195.743 147.928 194.182C147.811 194.104 147.694 194.026 147.615 193.987C147.537 193.83 147.615 193.752 147.694 193.635ZM343.026 342.208C323.325 357.081 297.408 363.483 256.364 363.522H256.325C215.202 363.444 189.246 357.081 169.623 342.208C135.107 316.054 133.348 266.673 133.348 257.031C133.348 247.545 134.012 238.644 135.302 230.408C135.341 230.291 135.341 230.134 135.38 230.017C135.498 230.095 135.615 230.134 135.732 230.212C150.86 238.527 164.893 242.509 177.832 246.178C178.809 246.452 179.787 246.725 180.725 246.998C198.159 251.995 212.036 258.553 223.137 267.102C229.626 272.099 235.255 277.837 239.868 284.239C244.871 291.148 248.859 298.995 251.751 307.622C253.119 311.721 254.37 313.243 256.286 313.243C258.201 313.243 259.413 311.721 260.82 307.622C263.713 298.995 267.7 291.148 272.703 284.239C277.316 277.876 282.945 272.099 289.434 267.102C300.535 258.553 314.412 251.956 331.847 246.998C332.824 246.725 333.762 246.452 334.739 246.178C347.678 242.509 361.711 238.488 376.839 230.212C376.956 230.134 377.074 230.095 377.191 230.017C377.23 230.134 377.23 230.291 377.269 230.408C378.598 238.683 379.224 247.545 379.224 257.031C379.302 266.673 377.543 316.132 343.026 342.208Z" fill="white"/>
<path fill-rule="evenodd" clip-rule="evenodd" d="M220.01 360.985C186.275 356.3 134.09 338.5 134.09 252.893C134.09 201.755 150.781 145.425 256.95 145.425C348.459 145.425 379.145 192.464 379.145 252.737C379.145 274.675 375.392 292.163 369.724 306.139C354.323 344.043 322.23 356.027 293.89 360.712C275.048 363.756 242.017 364.069 220.01 360.985ZM401.231 253.439C401.231 188.209 370.467 134.183 257.301 134.183C138.429 134.183 113.372 199.608 113.372 253.595C113.372 343.926 174.079 365.864 218.211 371.056C240.571 373.711 272.937 373.516 293.655 371.095C337.397 365.981 401.231 344.199 401.231 253.439Z" fill="url(#paint0_linear_1532_19160)"/>
<path fill-rule="evenodd" clip-rule="evenodd" d="M220.01 360.985C186.275 356.3 133.777 338.5 134.09 252.893C134.285 199.998 156.488 145.425 256.95 145.425C348.616 145.425 377.777 192.659 379.145 252.737C379.614 274.324 375.509 291.656 369.92 305.553C354.244 344.55 323.676 355.793 293.89 360.673C275.048 363.756 242.017 364.069 220.01 360.985ZM401.231 253.439C401.231 188.209 370.467 134.183 257.301 134.183C138.429 134.183 113.372 199.608 113.372 253.595C113.372 343.926 174.079 366.489 218.211 371.72C240.571 374.374 272.859 374.57 293.577 372.149C337.319 366.996 401.231 344.199 401.231 253.439Z" fill="url(#paint1_linear_1532_19160)"/>
<path fill-rule="evenodd" clip-rule="evenodd" d="M257.458 136.095V144.293C165.402 144.488 133.739 193.128 133.739 254.727C133.739 309.73 159.03 339.593 185.924 352.085C216.805 366.411 252.729 363.913 235.842 370.354C231.737 371.915 228.297 374.491 213.443 372.774C169.701 367.66 113.764 346.112 113.764 255.352C113.764 190.161 144.449 136.174 257.458 136.095Z" fill="url(#paint2_linear_1532_19160)"/>
<path fill-rule="evenodd" clip-rule="evenodd" d="M416.555 256.094C416.164 289.197 404.749 327.336 377.699 349.742C349.32 373.242 305.734 383.47 256.442 383.47C207.579 383.47 165.44 375.116 133.543 348.376C108.213 327.101 95.8994 289.314 95.8994 255.704C95.8994 219.126 107.705 180.324 138.429 156.863C167.825 134.456 215.71 127.547 256.247 127.547C301.513 127.547 345.411 134.925 374.689 158.268C405.101 182.51 416.985 218.775 416.555 256.094ZM400.567 254.884C400.567 194.26 365.151 135.627 256.637 135.627C137.765 135.627 112.708 201.052 112.708 255.04C112.708 347.088 175.76 368.09 220.088 372.774C244.05 375.311 268.013 375.585 294.164 372.696C321.722 369.612 400.567 356.223 400.567 254.884Z" fill="url(#paint3_linear_1532_19160)"/>
<path opacity="0.74" fill-rule="evenodd" clip-rule="evenodd" d="M116.031 224.943C121.542 209.211 128.461 183.174 148.749 165.178C171.616 144.918 211.84 137.735 223.606 136.408C218.993 133.714 216.57 133.129 209.807 130.982C176.737 135.822 148.671 144.84 128.657 165.841C107.509 187.975 101.372 206.049 97.6191 230.798C104.499 228.222 107.313 227.597 116.031 224.943Z" fill="url(#paint4_linear_1532_19160)"/>
<path fill-rule="evenodd" clip-rule="evenodd" d="M255.503 141.014C293.85 141.014 330.361 147.533 353.267 176.928C318.204 133.558 199.722 132.543 160.632 176.928C183.499 150.851 217.117 141.014 255.503 141.014Z" fill="url(#paint5_linear_1532_19160)"/>
<path fill-rule="evenodd" clip-rule="evenodd" d="M405.062 311.487C407.055 307.036 406.938 307.349 407.798 304.577C408.15 303.328 407.485 305.319 406.625 306.88C405.57 308.91 405.765 308.754 404.163 311.057C402.482 313.399 401.973 313.634 398.885 315.585C396.423 317.147 393.335 318.162 388.448 320.855C387.197 321.558 386.572 322.026 383.992 325.384C382.155 327.765 380.161 330.536 379.106 331.708C375.9 335.377 367.926 342.443 363.274 346.502C359.248 350.016 360.147 349.977 365.854 347.986C370.975 346.229 378.559 343.067 383.054 341.232C385.868 340.061 388.214 338.11 389.152 337.016C394.664 330.536 401.192 320.075 405.062 311.487Z" fill="url(#paint6_linear_1532_19160)"/>
<path opacity="0.9" fill-rule="evenodd" clip-rule="evenodd" d="M113.372 254.766C113.372 225.567 123.731 187.585 148.631 165.49C171.499 145.23 210.628 137.657 222.433 136.291C217.82 133.597 215.397 133.012 208.634 130.865C175.564 135.705 147.497 145.308 127.444 166.31C104.498 190.356 96.1332 222.952 95.5859 250.082C101.371 251.761 105.71 252.971 113.372 254.766Z" fill="url(#paint7_linear_1532_19160)"/>
<path opacity="0.2" fill-rule="evenodd" clip-rule="evenodd" d="M339.43 150.461C346.231 151.398 370.663 156.668 378.911 161.703C386.768 166.466 385.439 166.661 385.439 166.661L370.78 172.243C370.819 172.204 360.499 160.728 339.43 150.461Z" fill="url(#paint8_linear_1532_19160)"/>
<path opacity="0.2" fill-rule="evenodd" clip-rule="evenodd" d="M172.437 150.071C157.896 153.506 138.351 158.502 130.65 163.499C127.015 165.841 117.008 178.919 117.008 178.919L131.197 167.13C138.116 165.334 138.468 164.943 143.745 163.694C149.609 162.289 152.971 161.821 159.42 157.487C165.87 153.154 186.979 146.635 172.437 150.071Z" fill="url(#paint9_linear_1532_19160)" fill-opacity="0.42"/>
<path fill-rule="evenodd" clip-rule="evenodd" d="M107.039 307.349C108.017 309.418 108.955 312.463 112.747 314.141C115.678 315.429 117.985 316.405 120.916 317.537C125.607 319.372 129.203 325.618 132.253 329.639C135.262 333.581 144.8 342.404 149.569 346.307C156.684 352.124 169.818 359.97 179.864 364.03C180.607 364.303 207.97 375.702 204.96 378.356C204.061 379.137 178.887 371.993 177.714 371.642C156.097 365.084 133.269 352.007 118.063 330.224C115.991 327.257 108.447 313.517 106.727 307.973C105.632 304.421 105.828 304.694 107.039 307.349Z" fill="url(#paint10_linear_1532_19160)"/>
<path opacity="0.9" fill-rule="evenodd" clip-rule="evenodd" d="M397.478 225.333C391.966 209.601 385.047 183.564 364.76 165.568C341.892 145.308 301.708 138.125 289.902 136.798C294.515 134.105 296.939 133.519 303.701 131.372C336.771 136.213 364.838 145.816 384.891 166.817C401.7 184.462 409.088 205.034 412.879 221.859C407.055 223.498 405.101 223.498 397.478 225.333Z" fill="url(#paint11_linear_1532_19160)"/>
<path fill-rule="evenodd" clip-rule="evenodd" d="M377.738 182.432L364.955 192.347L360.655 185.867C363.743 181.612 368.669 174.039 369.255 173.219C369.841 172.399 371.327 171.306 372.578 170.916C373.789 170.526 379.223 167.832 383.601 166.193L389.152 172.712L377.738 182.432Z" fill="url(#paint12_linear_1532_19160)"/>
<path fill-rule="evenodd" clip-rule="evenodd" d="M135.145 183.213L147.928 193.167L152.619 185.75C149.531 181.495 144.644 173.922 144.019 173.102C143.433 172.282 141.947 171.189 140.696 170.799C139.484 170.409 133.621 167.832 129.282 166.193L124.122 172.556L135.145 183.213Z" fill="url(#paint13_linear_1532_19160)"/>
<path d="M135.849 229.744C135.771 229.744 135.732 229.705 135.693 229.666C135.654 229.588 131.549 222.093 129.79 217.994C128.031 213.856 124.239 203.355 124.2 203.238C124.161 203.121 124.2 203.043 124.317 203.004C124.435 202.965 124.513 203.004 124.552 203.121C124.591 203.238 128.383 213.739 130.142 217.838C131.901 221.937 135.966 229.432 136.005 229.51C136.044 229.588 136.044 229.705 135.927 229.744C135.927 229.744 135.888 229.744 135.849 229.744Z" fill="#1A1A1A"/>
<path d="M135.263 229.744C135.185 229.744 135.146 229.705 135.107 229.666C135.068 229.588 130.963 222.093 129.204 217.994C127.445 213.856 123.653 203.355 123.614 203.238C123.575 203.121 123.614 203.043 123.732 203.004C123.849 202.965 123.927 203.004 123.966 203.121C124.005 203.238 127.797 213.739 129.556 217.838C131.315 221.937 135.38 229.432 135.419 229.51C135.459 229.588 135.459 229.705 135.341 229.744C135.302 229.744 135.302 229.744 135.263 229.744Z" fill="#1A1A1A"/>
<path fill-rule="evenodd" clip-rule="evenodd" d="M152.736 185.789C152.736 185.789 150.859 188.405 149.999 189.849C149.178 191.176 147.615 194.026 147.615 194.026C147.615 194.026 140.031 189.185 133.855 183.759C128.148 178.723 125.334 175.444 123.223 172.868C124.356 171.424 124.356 171.424 129.164 166.349C129.164 166.349 128.93 167.012 129.946 168.145C133.034 171.736 145.308 182.159 150.468 185.477C151.837 186.336 152.736 185.789 152.736 185.789Z" fill="url(#paint14_linear_1532_19160)"/>
<path fill-rule="evenodd" clip-rule="evenodd" d="M359.874 185.633C359.874 185.633 361.711 188.287 362.61 189.732C363.431 191.059 365.19 194.026 365.19 194.026C365.19 194.026 372.461 189.419 378.637 183.993C384.344 178.958 387.432 175.288 389.543 172.712C388.41 171.267 386.69 169.472 383.602 166.271C383.602 166.271 383.719 166.622 382.742 167.754C379.654 171.346 367.027 182.198 361.868 185.516C360.46 186.336 359.874 185.633 359.874 185.633Z" fill="url(#paint15_linear_1532_19160)"/>
<path d="M301.786 234.585C301.63 234.663 301.512 234.702 301.395 234.78C293.772 238.566 256.989 278.852 256.09 279.789C255.191 280.687 215.866 248.872 215.123 247.623C214.381 246.335 147.459 222.288 147.459 222.288L131.275 220.844C131.275 220.844 132.37 225.021 136.553 230.837C153.361 241.455 184.008 246.998 203.905 255.938C224.896 265.384 240.766 282.131 246.864 296.419C252.806 310.277 252.962 313.477 256.481 313.477C260.038 313.477 261.875 304.968 264.377 299.58C276.299 274.129 297.056 256.445 341.619 244.422C372.851 235.99 376.604 229.237 376.604 229.237L383.249 213.505C383.288 213.466 311.207 230.447 301.786 234.585Z" fill="url(#paint16_linear_1532_19160)"/>
<path fill-rule="evenodd" clip-rule="evenodd" d="M128.774 216.355C131.471 223.381 135.38 230.017 135.38 230.017C135.38 230.017 144.41 235.17 154.339 238.449C168.099 242.978 184.086 246.296 196.282 249.106C210.824 252.424 219.424 256.289 229.274 262.925C245.106 273.582 248.35 281.585 253.745 290.602C250.735 282.99 250.5 277.876 239.946 264.799C224.701 245.905 214.928 241.533 193.077 233.492C185.572 230.72 175.096 226.582 162.431 221.859C149.765 217.135 133.504 208.821 123.692 202.223C123.536 202.106 126.546 210.616 128.774 216.355Z" fill="url(#paint17_linear_1532_19160)"/>
<path fill-rule="evenodd" clip-rule="evenodd" d="M275.556 243.056C281.733 236.302 287.596 231.501 297.447 225.489C315.624 214.403 339.977 209.914 365.112 193.987C380.435 184.306 389.504 172.673 389.504 172.673C389.504 172.673 390.129 177.865 390.364 183.915C390.481 187.312 390.403 190.864 389.973 194.689C389.582 198.242 389.074 200.194 388.996 200.272C379.028 206.947 366.597 215.886 353.776 220.688C340.915 225.489 328.875 229.627 321.253 232.477C288.3 244.812 273.993 263.472 263.243 282.678C258.201 291.617 256.324 292.749 256.324 292.632C256.363 292.281 256.871 271.357 256.871 268.312C257.106 268.312 258.122 267.649 259.1 265.931C263.634 258.046 268.325 250.941 275.556 243.056Z" fill="url(#paint18_linear_1532_19160)"/>
<path fill-rule="evenodd" clip-rule="evenodd" d="M389.269 202.067C379.379 208.664 362.336 216.511 349.593 221.234C336.85 225.958 329.344 228.026 321.761 230.798C300.418 238.605 286.853 246.725 271.139 266.126C260.507 279.242 258.826 286.23 256.363 292.085C256.363 295.482 256.363 312.853 256.363 313.243C257.301 313.243 258.005 312.736 258.513 311.916C258.865 311.369 258.67 306.1 258.67 301.61C258.67 298.214 258.709 297.277 260.507 293.92C261.914 291.305 263.556 288.416 264.65 286.698C273.602 272.918 290.332 263.12 306.985 255.508C321.8 248.755 343.456 244.422 357.763 239.152C367.848 235.443 376.956 230.564 376.956 230.564C376.956 230.564 380.122 224.943 383.21 217.877C385.829 211.904 389.426 201.95 389.269 202.067Z" fill="url(#paint19_linear_1532_19160)"/>
<path fill-rule="evenodd" clip-rule="evenodd" d="M253.666 266.204C255.112 268.781 256.402 268.429 256.911 268.429C256.911 272.216 256.989 292.164 256.989 292.515C256.989 292.632 256.559 291.227 251.594 282.287C231.737 246.764 212.622 239.972 194.718 233.257C187.096 230.408 172.945 224.982 160.085 220.18C147.224 215.418 132.8 207.298 122.793 200.662C122.207 200.272 122.949 198.203 122.519 194.65C122.089 190.786 122.167 186.531 122.285 183.096C122.48 177.006 123.731 172.556 123.731 172.556C123.731 172.556 132.292 184.267 147.498 193.948C156.762 199.842 166.261 204.175 177.323 208.821C191.396 214.676 202.771 218.111 216.609 226.582C227.71 233.336 233.496 238.566 239.437 245.281C246.904 253.674 250.891 261.208 253.666 266.204Z" fill="url(#paint20_linear_1532_19160)"/>
<path fill-rule="evenodd" clip-rule="evenodd" d="M226.225 233.335C235.293 242.899 239.711 247.935 246.004 260.036C250.343 268.312 251.203 268.976 256.676 290.016L255.308 269.288C255.308 269.288 248.662 257.499 243.932 251.565C236.232 241.884 234.59 239.894 226.225 233.335Z" fill="black"/>
<path d="M256.324 269.483H257.028L256.324 288.806V269.483Z" fill="white"/>
<path d="M376.643 231.227C377.855 239.191 378.52 247.779 378.52 257.07C378.52 274.909 373.712 318.006 342.557 341.623C323.481 356.066 297.877 362.741 256.324 362.781C214.772 362.702 189.168 356.027 170.092 341.623C138.82 318.006 134.129 274.909 134.129 257.07C134.129 247.779 134.755 239.191 136.005 231.227C135.888 231.149 135.771 231.11 135.654 231.032C134.403 239.113 133.777 247.779 133.777 257.07C133.777 266.673 135.536 315.976 169.896 341.935C189.52 356.769 215.358 363.132 256.364 363.171C297.408 363.093 323.246 356.769 342.831 341.935C377.191 315.898 378.95 266.673 378.95 257.07C378.95 247.779 378.324 239.113 377.073 231.032C376.917 231.071 376.8 231.149 376.643 231.227Z" fill="black"/>
<path d="M157.622 180.597C177.05 157.41 208.439 145.855 256.324 145.816C304.17 145.855 335.559 157.41 355.026 180.597C358.388 184.618 361.437 188.99 364.134 193.714C364.251 193.635 364.369 193.557 364.486 193.518C361.828 188.834 358.779 184.462 355.339 180.402C335.403 156.629 303.936 145.542 256.363 145.503C208.712 145.503 177.284 156.59 157.348 180.363C153.908 184.462 150.859 188.834 148.201 193.479C148.318 193.557 148.436 193.635 148.553 193.674C151.211 188.99 154.26 184.657 157.622 180.597Z" fill="black"/>
<path d="M334.895 246.569C333.917 246.842 332.94 247.115 332.002 247.389C314.607 252.385 300.769 258.943 289.707 267.453C283.257 272.411 277.667 278.149 273.054 284.512C268.09 291.383 264.103 299.229 261.21 307.778C259.764 312.072 258.435 313.673 256.324 313.673C254.213 313.673 252.884 312.072 251.438 307.778C248.545 299.19 244.558 291.383 239.593 284.512C234.981 278.149 229.391 272.411 222.941 267.453C211.879 258.943 198.041 252.385 180.646 247.389C179.668 247.115 178.73 246.842 177.753 246.569C164.932 242.938 151.015 238.957 136.044 230.837C136.005 230.954 136.005 231.11 135.966 231.228C152.032 239.933 166.886 243.875 180.528 247.779C210.862 256.445 239.124 272.372 251.047 307.895C252.376 311.916 253.744 314.063 256.285 314.063C258.826 314.063 260.194 311.916 261.523 307.895C273.484 272.333 301.707 256.445 332.041 247.779C345.684 243.875 360.538 239.972 376.604 231.228C376.565 231.11 376.565 230.954 376.526 230.837C361.632 238.957 347.716 242.899 334.895 246.569Z" fill="black"/>
<path d="M376.644 231.228C376.761 231.15 376.878 231.111 376.995 231.032C376.956 230.915 376.956 230.759 376.917 230.642C376.8 230.72 376.683 230.759 376.565 230.837C376.605 230.954 376.644 231.071 376.644 231.228Z" fill="black"/>
<path d="M136.044 230.798C135.927 230.72 135.81 230.681 135.692 230.603C135.653 230.72 135.653 230.876 135.614 230.993C135.732 231.071 135.849 231.111 135.966 231.189C136.005 231.071 136.044 230.954 136.044 230.798Z" fill="black"/>
<path d="M148.514 193.713C148.397 193.635 148.28 193.557 148.162 193.518C148.084 193.635 148.045 193.753 147.967 193.831C148.084 193.909 148.201 193.987 148.319 194.026C148.397 193.948 148.475 193.831 148.514 193.713Z" fill="black"/>
<path d="M364.33 194.026C364.447 193.948 364.565 193.87 364.682 193.831C364.604 193.714 364.565 193.596 364.487 193.518C364.369 193.596 364.252 193.674 364.135 193.713C364.174 193.831 364.252 193.948 364.33 194.026Z" fill="black"/>
<path d="M155.59 198.749C167.903 205.503 180.959 210.655 193.585 215.613C195.149 216.238 196.673 216.823 198.237 217.448C222.473 227.012 240.728 242.899 252.494 264.643C253.979 267.414 255.152 268.625 256.325 268.625C257.497 268.625 258.67 267.414 260.155 264.643C271.961 242.899 290.216 227.012 314.412 217.448C315.937 216.862 317.461 216.238 318.986 215.652L319.025 215.613C331.651 210.655 344.707 205.503 357.02 198.749C359.718 197.266 362.298 195.743 364.799 194.182C364.917 194.104 365.034 194.026 365.112 193.987C365.034 193.87 364.995 193.753 364.917 193.635C362.18 188.834 359.053 184.345 355.535 180.129C335.521 156.277 303.975 145.113 256.246 145.074C208.518 145.113 176.972 156.277 156.958 180.129C153.44 184.306 150.313 188.834 147.576 193.635C147.498 193.753 147.459 193.87 147.381 193.987C147.498 194.065 147.615 194.143 147.694 194.182C150.313 195.743 152.893 197.266 155.59 198.749ZM157.349 180.363C177.285 156.59 208.713 145.503 256.325 145.464C303.936 145.503 335.365 156.59 355.3 180.363C358.819 184.54 361.907 189.029 364.643 193.831C362.141 195.392 359.561 196.914 356.864 198.398C344.551 205.151 331.534 210.304 318.908 215.262C317.344 215.886 315.82 216.472 314.256 217.096C289.942 226.699 271.648 242.665 259.804 264.448C258.396 267.024 257.302 268.234 256.325 268.234C255.347 268.234 254.253 267.024 252.846 264.448C241.001 242.626 222.707 226.699 198.393 217.096C196.869 216.472 195.305 215.886 193.742 215.262C181.115 210.304 168.059 205.151 155.785 198.398C153.088 196.914 150.508 195.392 148.006 193.831C150.704 189.029 153.831 184.54 157.349 180.363Z" fill="#666666"/>
<path d="M377.308 230.408C377.269 230.291 377.269 230.134 377.23 230.017C377.113 230.095 376.995 230.134 376.878 230.213C361.75 238.527 347.717 242.509 334.778 246.178C333.801 246.452 332.824 246.725 331.886 246.998C314.451 251.995 300.575 258.553 289.473 267.102C282.984 272.099 277.355 277.837 272.742 284.239C267.739 291.149 263.752 298.995 260.859 307.622C259.491 311.721 258.24 313.243 256.325 313.243C254.409 313.243 253.197 311.721 251.79 307.622C248.898 298.995 244.91 291.149 239.907 284.239C235.294 277.876 229.665 272.099 223.176 267.102C212.075 258.553 198.198 251.956 180.764 246.998C179.787 246.725 178.848 246.452 177.871 246.178C164.932 242.509 150.899 238.488 135.771 230.213C135.654 230.134 135.537 230.095 135.419 230.017C135.38 230.134 135.38 230.291 135.341 230.408C134.012 238.683 133.387 247.545 133.387 257.031C133.387 266.673 135.146 316.132 169.662 342.208C189.364 357.081 215.28 363.483 256.325 363.522H256.364C297.486 363.444 323.442 357.081 343.065 342.208C377.582 316.054 379.341 266.673 379.341 257.031C379.302 247.545 378.637 238.683 377.308 230.408ZM342.792 341.935C323.208 356.769 297.369 363.132 256.325 363.171C215.358 363.093 189.481 356.769 169.858 341.935C135.498 315.976 133.739 266.673 133.739 257.07C133.739 247.623 134.403 238.84 135.693 230.642C150.821 238.918 164.854 242.899 177.754 246.569C178.731 246.842 179.708 247.115 180.646 247.389C198.042 252.385 211.879 258.943 222.942 267.453C229.392 272.411 234.982 278.149 239.594 284.512C244.559 291.383 248.546 299.229 251.438 307.778C252.885 312.072 254.214 313.673 256.325 313.673C258.436 313.673 259.765 312.072 261.211 307.778C264.104 299.19 268.091 291.383 273.055 284.512C277.668 278.149 283.258 272.411 289.708 267.453C300.77 258.943 314.608 252.385 332.003 247.389C332.98 247.115 333.918 246.842 334.896 246.569C347.834 242.899 361.868 238.918 376.956 230.642C378.246 238.84 378.911 247.662 378.911 257.07C378.911 266.634 377.152 315.859 342.792 341.935Z" fill="#666666"/>
<path fill-rule="evenodd" clip-rule="evenodd" d="M123.145 173.297C123.419 172.009 123.771 172.204 123.536 173.258C122.793 176.654 122.481 183.173 122.598 189.771C122.676 194.494 123.653 199.569 123.653 199.569C123.028 199.53 122.168 199.725 121.933 200.506C121.191 192.855 120.761 183.876 123.145 173.297Z" fill="white"/>
<path fill-rule="evenodd" clip-rule="evenodd" d="M389.895 173.727C389.621 172.438 389.27 172.634 389.504 173.688C390.247 177.084 390.442 183.525 390.325 190.122C390.247 194.845 389.074 199.998 389.074 199.998C389.7 199.959 390.521 200.779 390.755 201.599C391.459 193.987 392.28 184.306 389.895 173.727Z" fill="#CCCCCC"/>
<path d="M417.492 254.22C417.492 275.378 412.254 329.326 369.607 357.159C344.081 373.828 311.128 384.602 256.324 384.68C201.52 384.602 168.567 373.828 143.041 357.159C100.394 329.326 95.1562 275.378 95.1562 254.22C95.1562 216.042 107.196 187.624 126.155 167.286C151.798 139.804 193.194 127.234 256.324 127.156C319.455 127.234 360.851 139.804 386.494 167.325C405.531 187.702 417.492 215.925 417.492 254.22ZM256.324 384.29C282.593 384.251 304.679 381.791 323.872 376.756C340.759 372.345 355.652 365.826 369.412 356.808C413.661 327.921 417.101 270.967 417.101 254.22C417.101 235.834 414.287 219.009 408.775 204.175C403.654 190.434 396.032 178.099 386.22 167.559C373.36 153.779 356.707 143.864 335.364 137.306C314.06 130.748 288.222 127.547 256.324 127.547C224.427 127.586 198.588 130.787 177.284 137.306C155.941 143.864 139.289 153.779 126.428 167.559C116.617 178.06 109.033 190.395 103.912 204.214C98.3616 219.087 95.5471 235.912 95.5471 254.259C95.5471 271.006 98.9871 327.96 143.237 356.847C156.997 365.826 171.929 372.345 188.777 376.795C207.97 381.791 230.095 384.251 256.324 384.29Z" fill="black"/>
<path d="M256.324 384.29C230.095 384.251 208.009 381.791 188.776 376.756C171.89 372.345 156.996 365.826 143.237 356.808C98.9868 327.921 95.5469 270.967 95.5469 254.22C95.5469 235.912 98.3614 219.087 103.912 204.175C109.072 190.356 116.655 178.06 126.428 167.52C139.289 153.74 155.941 143.825 177.284 137.267C198.588 130.709 224.427 127.508 256.324 127.508C288.221 127.547 314.06 130.748 335.364 137.267C356.707 143.825 373.359 153.74 386.22 167.52C396.071 178.06 403.654 190.395 408.775 204.136C414.326 218.97 417.101 235.795 417.101 254.181C417.101 270.928 413.661 327.882 369.411 356.769C355.652 365.747 340.719 372.267 323.871 376.717C304.678 381.791 282.553 384.251 256.324 384.29ZM256.324 383.899C282.514 383.86 304.6 381.401 323.754 376.404C340.602 371.993 355.456 365.474 369.177 356.535C413.27 327.765 416.71 270.967 416.71 254.259C416.71 235.912 413.896 219.126 408.384 204.331C403.263 190.63 395.719 178.333 385.907 167.832C373.086 154.091 356.512 144.215 335.208 137.696C313.943 131.177 288.143 127.976 256.285 127.937C224.427 127.976 198.627 131.138 177.362 137.696C156.058 144.254 139.484 154.091 126.663 167.832C116.89 178.294 109.346 190.591 104.225 204.331C98.6741 219.165 95.8987 235.951 95.8987 254.22C95.8987 270.928 99.3386 327.726 143.432 356.496C157.153 365.474 172.046 371.954 188.855 376.365C208.048 381.401 230.095 383.86 256.324 383.899Z" fill="url(#paint21_linear_1532_19160)"/>
<path d="M388.917 203.433C388.956 203.316 388.917 203.238 388.8 203.199C388.683 203.16 388.604 203.199 388.565 203.316C388.526 203.433 384.774 213.934 383.054 218.072C381.295 222.171 377.268 229.666 377.229 229.744C377.19 229.822 377.229 229.939 377.307 229.978C377.346 229.978 377.346 229.978 377.386 229.978C377.464 229.978 377.503 229.939 377.542 229.9C377.542 229.9 381.138 223.537 383.366 218.189C385.555 212.841 388.917 203.433 388.917 203.433Z" fill="#1A1A1A"/>
<path d="M123.771 203.433C123.731 203.316 123.771 203.238 123.888 203.199C124.005 203.16 124.083 203.199 124.122 203.316C124.161 203.433 127.914 213.934 129.634 218.072C131.393 222.171 135.419 229.666 135.458 229.744C135.498 229.822 135.458 229.939 135.38 229.978C135.341 229.978 135.341 229.978 135.302 229.978C135.224 229.978 135.185 229.939 135.146 229.9C135.146 229.9 131.549 223.537 129.321 218.189C127.132 212.841 123.771 203.433 123.771 203.433Z" fill="#1A1A1A"/>
<path fill-rule="evenodd" clip-rule="evenodd" d="M347.482 338.539C349.71 336.587 349.241 336.665 346.465 338.968C342.517 342.208 339.156 344.941 332.276 348.727C329.891 349.938 327.624 351.304 325.083 352.358C302.528 361.57 287.244 362.546 260.389 363.366C259.686 363.405 259.021 363.405 258.357 363.405C257.692 363.405 256.988 363.405 256.324 363.405C234.043 363.405 210.549 361.336 191.356 354.193C188.776 353.217 186.196 351.968 183.773 350.835C178.613 347.986 174.274 345.331 169.857 341.896C167.003 339.671 166.261 339.398 168.528 341.311C166.925 340.178 167.199 340.452 169.349 342.404C186.196 357.784 205.038 363.991 233.417 365.943C241.196 366.645 249.483 366.84 258.435 366.645C267.347 366.567 275.634 366.099 283.413 365.201C311.714 362.351 330.321 355.598 346.7 339.71C348.772 337.641 349.045 337.368 347.482 338.539Z" fill="url(#paint22_linear_1532_19160)"/>
<path d="M393.921 209.562C393.022 206.908 392.006 204.253 390.911 201.716C390.52 200.857 389.856 200.35 389.035 200.35C388.605 200.35 388.214 200.506 387.823 200.74C367.926 214.247 347.091 221.585 330.322 227.48C315.311 232.75 301.122 237.747 291.779 244.461C284.938 249.379 277.98 256.211 271.179 264.721C266.292 270.85 261.133 279.32 256.324 289.275C251.477 279.32 246.357 270.811 241.47 264.721C234.63 256.211 227.711 249.379 220.87 244.461C211.527 237.747 197.377 232.75 182.327 227.48C165.597 221.585 144.762 214.247 124.826 200.74C124.435 200.467 124.005 200.35 123.614 200.35C122.793 200.35 122.129 200.857 121.738 201.716C120.643 204.253 119.627 206.908 118.728 209.562C113.841 223.772 111.496 239.698 111.496 258.202C111.496 277.681 115.679 325.852 154.3 352.124C166.261 360.243 179.786 366.099 195.579 369.924C212.192 373.945 231.893 375.975 255.777 376.014H256.833C280.717 375.936 300.418 373.945 317.031 369.924C332.863 366.099 346.349 360.243 358.31 352.124C396.97 325.852 401.114 277.681 401.114 258.202C401.192 239.698 398.807 223.811 393.921 209.562ZM358.154 351.811C346.231 359.931 332.745 365.708 316.992 369.573C300.301 373.633 280.521 375.624 256.481 375.663H256.324H256.168C232.128 375.624 212.348 373.633 195.657 369.573C179.864 365.747 166.418 359.931 154.495 351.811C115.991 325.657 111.848 277.642 111.848 258.202C111.848 239.737 114.193 223.85 119.08 209.679C119.979 207.025 120.995 204.37 122.089 201.833C122.402 201.091 122.949 200.701 123.614 200.701C123.966 200.701 124.279 200.818 124.63 201.052C144.566 214.598 165.44 221.937 182.21 227.831C197.181 233.101 211.371 238.098 220.635 244.773C227.984 250.043 234.903 257.109 241.158 264.955C246.669 271.825 251.907 280.921 256.324 290.134C260.742 280.921 265.98 271.825 271.491 264.955C277.785 257.109 284.704 250.043 292.014 244.773C301.317 238.098 315.468 233.101 330.439 227.831C347.209 221.937 368.083 214.598 388.019 201.052C388.331 200.818 388.683 200.701 389.035 200.701C389.699 200.701 390.247 201.13 390.559 201.833C391.654 204.37 392.67 206.986 393.569 209.679C398.417 223.85 400.801 239.737 400.801 258.202C400.801 277.642 396.618 325.618 358.154 351.811Z" fill="url(#paint23_linear_1532_19160)"/>
<path d="M143.667 172.868C143.549 172.868 143.432 172.829 143.354 172.751C142.963 172.36 142.416 171.97 141.908 171.658C141.751 171.58 141.673 171.423 141.673 171.267C141.634 170.877 141.399 170.877 142.572 169.745C142.65 169.667 142.689 169.628 142.728 169.628C144.37 167.949 146.481 165.997 148.436 164.358C151.915 161.352 155.667 158.541 159.576 156.004C167.238 151.046 175.955 146.87 185.493 143.59C195.148 140.272 205.937 137.735 217.625 136.056C229.235 134.378 242.095 133.519 255.816 133.519H256.988C270.748 133.558 283.609 134.417 295.218 136.056C306.867 137.735 317.695 140.272 327.35 143.59C336.888 146.87 345.605 151.046 353.267 156.004C357.176 158.541 360.929 161.313 364.408 164.358C366.323 165.997 368.473 167.988 370.115 169.667C370.154 169.706 370.193 169.745 370.271 169.823C371.327 170.838 371.053 170.916 371.014 171.267C371.014 171.423 370.897 171.58 370.779 171.658C370.349 171.892 369.88 172.282 369.333 172.829C369.255 172.907 369.138 172.946 369.02 172.946C368.551 172.946 368.238 172.009 367.73 171.463C344.159 148.08 307.766 136.681 256.441 136.642C205.077 136.681 168.684 148.08 145.191 171.424C144.37 172.126 144.097 172.868 143.667 172.868Z" fill="#B3B3B3"/>
<path opacity="0.9" d="M389.034 202.809L388.839 202.38L388.448 202.653C381.607 207.298 373.946 211.475 362.023 217.057C352.212 221.664 341.462 225.45 331.103 229.12C316.249 234.351 302.216 239.308 293.186 245.866C279.309 255.899 266.37 272.45 257.692 291.266C257.067 292.632 256.793 292.983 256.324 292.983C255.855 292.983 255.581 292.632 254.956 291.266C246.278 272.45 233.339 255.899 219.462 245.866C210.432 239.308 196.399 234.351 181.545 229.12C171.147 225.45 160.397 221.664 150.625 217.057C138.702 211.475 131.08 207.298 124.2 202.653L123.809 202.38L123.613 202.809C116.929 218.58 113.685 236.654 113.685 258.085C113.685 277.252 117.75 324.603 155.55 350.289C179.121 366.333 210.198 373.516 256.246 373.633H256.363H256.48C302.528 373.555 333.605 366.333 357.176 350.289C394.976 324.564 399.041 277.213 399.041 258.085C399.002 236.654 395.758 218.58 389.034 202.809ZM356.707 349.664C333.253 365.63 302.294 372.774 256.324 372.852C210.354 372.774 179.395 365.63 155.941 349.664C118.454 324.135 114.427 277.096 114.427 258.085C114.427 236.966 117.594 219.126 124.122 203.551C130.923 208.118 138.546 212.256 150.234 217.76C160.084 222.366 170.834 226.192 181.232 229.861C196.008 235.092 210.002 240.05 218.954 246.491C232.714 256.445 245.574 272.88 254.213 291.617C254.878 292.944 255.308 293.842 256.324 293.842C257.34 293.842 257.77 292.905 258.396 291.578C267.035 272.88 279.895 256.406 293.655 246.452C302.606 239.972 316.601 235.053 331.377 229.822C341.775 226.153 352.563 222.327 362.375 217.721C374.102 212.217 381.725 208.079 388.487 203.512C395.015 219.087 398.181 236.927 398.181 258.046C398.22 277.096 394.194 324.135 356.707 349.664Z" fill="url(#paint24_linear_1532_19160)"/>
<path d="M389.034 202.809L388.839 202.38L388.448 202.653C381.607 207.298 373.946 211.475 362.023 217.057C352.212 221.664 341.462 225.45 331.103 229.12C316.249 234.351 302.216 239.308 293.186 245.866C279.309 255.899 266.37 272.45 257.692 291.266C257.067 292.632 256.793 292.983 256.324 292.983C255.855 292.983 255.581 292.632 254.956 291.266C246.278 272.45 233.339 255.899 219.462 245.866C210.432 239.308 196.399 234.351 181.545 229.12C171.147 225.45 160.397 221.664 150.625 217.057C138.702 211.475 131.08 207.298 124.2 202.653L123.809 202.38L123.613 202.809C116.929 218.58 113.685 236.654 113.685 258.085C113.685 277.252 117.75 324.603 155.55 350.289C179.121 366.333 210.198 373.516 256.246 373.633H256.363H256.48C302.528 373.555 333.605 366.333 357.176 350.289C394.976 324.564 399.041 277.213 399.041 258.085C399.002 236.654 395.758 218.58 389.034 202.809ZM356.707 349.664C333.253 365.63 302.294 372.774 256.324 372.852C210.354 372.774 179.395 365.63 155.941 349.664C118.454 324.135 114.427 277.096 114.427 258.085C114.427 236.966 117.594 219.126 124.122 203.551C130.923 208.118 138.546 212.256 150.234 217.76C160.084 222.366 170.834 226.192 181.232 229.861C196.008 235.092 210.002 240.05 218.954 246.491C232.714 256.445 245.574 272.88 254.213 291.617C254.878 292.944 255.308 293.842 256.324 293.842C257.34 293.842 257.77 292.905 258.396 291.578C267.035 272.88 279.895 256.406 293.655 246.452C302.606 239.972 316.601 235.053 331.377 229.822C341.775 226.153 352.563 222.327 362.375 217.721C374.102 212.217 381.725 208.079 388.487 203.512C395.015 219.087 398.181 236.927 398.181 258.046C398.22 277.096 394.194 324.135 356.707 349.664Z" fill="url(#paint25_linear_1532_19160)"/>
<path d="M393.569 208.977C392.67 206.322 391.654 203.668 390.559 201.13C390.246 200.389 389.699 199.998 389.035 199.998C388.683 199.998 388.37 200.115 388.018 200.35C368.082 213.973 347.208 221.351 330.439 227.246C315.467 232.555 301.278 237.551 292.013 244.266C284.664 249.575 277.745 256.679 271.491 264.526C265.979 271.435 260.741 280.57 256.324 289.821C251.907 280.57 246.669 271.435 241.157 264.526C234.864 256.64 227.945 249.575 220.635 244.266C211.332 237.551 197.181 232.555 182.21 227.246C165.44 221.312 144.566 213.934 124.63 200.35C124.317 200.115 123.966 199.998 123.614 199.998C122.949 199.998 122.402 200.428 122.089 201.13C120.995 203.668 119.978 206.322 119.079 208.977C114.232 223.225 111.848 239.152 111.848 257.694C111.848 277.213 115.991 325.423 154.495 351.694C166.417 359.853 179.903 365.669 195.657 369.534C212.348 373.594 232.128 375.624 256.168 375.663H256.324H256.481C280.521 375.624 300.3 373.594 316.992 369.534C332.784 365.669 346.231 359.853 358.154 351.694C396.657 325.423 400.801 277.213 400.801 257.694C400.801 239.152 398.416 223.225 393.569 208.977ZM357.098 350.25C333.527 366.294 302.411 373.516 256.324 373.555C210.198 373.477 179.122 366.294 155.55 350.25C117.789 324.525 113.685 277.213 113.685 258.046C113.685 236.458 117.008 218.267 123.809 202.419C130.728 207.142 138.507 211.397 150.586 217.057C160.397 221.664 171.147 225.45 181.506 229.12C196.36 234.35 210.354 239.308 219.423 245.866C233.3 255.899 246.239 272.45 254.917 291.266C255.503 292.515 255.777 292.905 256.168 292.983H256.324H256.481C256.871 292.905 257.184 292.515 257.731 291.266C266.409 272.45 279.348 255.899 293.225 245.866C302.255 239.347 316.288 234.389 331.142 229.12C341.54 225.45 352.29 221.664 362.063 217.057C374.141 211.397 381.881 207.142 388.839 202.419C395.641 218.267 398.964 236.458 398.964 258.046C398.964 277.213 394.859 324.564 357.098 350.25Z" fill="white"/>
<path d="M383.328 166.036C381.217 166.934 374.376 169.237 371.484 170.174L371.406 170.213C371.21 170.291 371.015 170.291 370.819 170.291C370.389 170.291 369.998 170.135 369.725 169.901C368.044 168.222 365.933 166.232 364.018 164.592C360.539 161.586 356.786 158.776 352.916 156.277C345.294 151.359 336.576 147.182 327.078 143.903C317.461 140.585 306.673 138.047 295.024 136.408C283.336 134.729 270.358 133.87 256.481 133.87H256.286H256.051C242.174 133.909 229.196 134.768 217.508 136.408C205.86 138.086 195.071 140.585 185.455 143.903C175.956 147.182 167.278 151.32 159.616 156.277C155.707 158.776 151.994 161.586 148.515 164.592C146.56 166.271 144.488 168.183 142.847 169.862C142.612 170.096 142.065 170.37 141.635 170.37C141.439 170.37 141.283 170.33 141.087 170.252L141.009 170.213C138.156 169.276 131.354 167.012 129.282 166.115L129.165 166.271C129.83 166.544 131.12 167.247 132.644 167.949C135.732 169.316 139.563 171.033 140.306 171.306C140.657 171.423 141.009 171.58 141.4 171.814C141.947 172.126 142.534 172.556 142.925 172.985C143.081 173.141 143.198 173.297 143.316 173.414C143.667 173.883 151.134 183.876 152.58 185.867L152.697 185.672C152.619 185.594 146.521 176.498 144.645 173.805C144.097 172.985 144.176 171.697 144.723 171.111C168.333 147.689 204.804 136.252 256.286 136.213C307.728 136.252 344.238 147.728 367.848 171.15C368.396 171.736 368.396 172.985 367.848 173.805C366.128 176.303 360.851 184.11 359.835 185.633L359.991 185.828L360.109 185.672C361.555 183.681 368.787 173.844 369.138 173.336C369.217 173.219 369.373 173.063 369.529 172.907C369.959 172.517 370.467 172.009 371.054 171.697C371.445 171.463 371.953 171.15 372.305 171.033C373.047 170.799 376.8 169.081 379.849 167.715C381.374 167.012 382.859 166.505 383.524 166.232L383.328 166.036Z" fill="white"/>
<path d="M364.838 194.182C364.956 194.104 365.073 194.026 365.151 193.987C365.073 193.87 365.034 193.753 364.956 193.635C362.219 188.834 359.092 184.345 355.574 180.129C335.56 156.277 304.014 145.113 256.285 145.074C208.557 145.113 177.011 156.277 156.997 180.129C153.479 184.306 150.352 188.834 147.615 193.635C147.537 193.753 147.498 193.87 147.42 193.987C147.537 194.065 147.654 194.143 147.733 194.182C150.234 195.743 152.814 197.266 155.512 198.749C167.825 205.503 180.881 210.655 193.507 215.613L193.546 215.652C195.071 216.238 196.595 216.862 198.12 217.448C222.355 227.012 240.61 242.899 252.377 264.643C253.862 267.414 255.035 268.625 256.207 268.625C257.38 268.625 258.553 267.414 260.038 264.643C271.843 242.899 290.098 227.012 314.295 217.448C315.82 216.823 317.383 216.238 318.947 215.613C331.573 210.655 344.629 205.503 356.942 198.749C359.757 197.266 362.337 195.743 364.838 194.182ZM364.643 193.831C362.141 195.392 359.561 196.914 356.864 198.398C344.551 205.151 331.534 210.304 318.908 215.262C317.344 215.886 315.82 216.472 314.256 217.096C289.942 226.699 271.648 242.665 259.804 264.448C258.396 267.024 257.302 268.234 256.325 268.234C255.347 268.234 254.253 267.024 252.846 264.448C241.001 242.626 222.707 226.699 198.393 217.096C196.869 216.472 195.305 215.886 193.742 215.262C181.115 210.304 168.059 205.151 155.785 198.398C153.088 196.914 150.508 195.392 148.006 193.831C150.703 189.029 153.831 184.54 157.349 180.363C177.285 156.59 208.752 145.503 256.325 145.464C303.897 145.503 335.365 156.59 355.3 180.363C358.819 184.54 361.946 189.029 364.643 193.831Z" fill="#4D4D4D"/>
<path d="M133.348 257.031C133.348 266.673 135.107 316.054 169.623 342.208C189.246 357.081 215.202 363.483 256.325 363.522H256.364C297.408 363.444 323.364 357.081 343.026 342.208C377.543 316.132 379.302 266.673 379.302 257.031C379.302 247.545 378.637 238.644 377.347 230.408C377.308 230.291 377.308 230.134 377.269 230.017C377.152 230.095 377.035 230.134 376.917 230.213C361.789 238.527 347.756 242.509 334.817 246.178C333.84 246.452 332.863 246.725 331.925 246.998C314.491 251.995 300.614 258.553 289.512 267.102C283.023 272.099 277.394 277.837 272.782 284.239C267.778 291.149 263.791 298.995 260.898 307.622C259.53 311.721 258.279 313.243 256.364 313.243C254.448 313.243 253.237 311.721 251.829 307.622C248.937 298.995 244.95 291.149 239.946 284.239C235.333 277.876 229.704 272.099 223.215 267.102C212.114 258.553 198.237 251.956 180.803 246.998C179.826 246.725 178.887 246.452 177.91 246.178C164.971 242.509 150.938 238.488 135.81 230.213C135.693 230.134 135.576 230.095 135.459 230.017C135.419 230.134 135.419 230.291 135.38 230.408C134.012 238.683 133.348 247.545 133.348 257.031ZM133.739 257.031C133.739 247.584 134.403 238.801 135.693 230.603C150.821 238.879 164.854 242.86 177.754 246.53C178.731 246.803 179.708 247.076 180.647 247.35C198.042 252.346 211.879 258.904 222.942 267.414C229.392 272.372 234.982 278.11 239.594 284.473C244.559 291.344 248.546 299.19 251.438 307.739C252.885 312.033 254.214 313.634 256.325 313.634C258.436 313.634 259.765 312.033 261.211 307.739C264.104 299.151 268.091 291.344 273.055 284.473C277.668 278.11 283.258 272.372 289.708 267.414C300.77 258.904 314.608 252.346 332.003 247.35C332.98 247.076 333.918 246.803 334.896 246.53C347.834 242.86 361.868 238.879 376.956 230.603C378.246 238.801 378.911 247.623 378.911 257.031C378.911 266.634 377.152 315.937 342.792 341.896C323.169 356.73 297.33 363.093 256.325 363.132C215.28 363.054 189.442 356.73 169.858 341.896C135.498 315.859 133.739 266.634 133.739 257.031Z" fill="#4D4D4D"/>
<path d="M256.324 384.29C230.055 384.251 207.97 381.791 188.776 376.756C171.89 372.345 156.996 365.826 143.237 356.808C98.9868 327.921 95.5469 270.967 95.5469 254.22C95.5469 235.834 98.3614 219.009 103.873 204.175C108.994 190.434 116.616 178.099 126.428 167.559C139.289 153.779 155.941 143.864 177.284 137.306C198.588 130.748 224.427 127.547 256.324 127.547C288.221 127.586 314.06 130.787 335.364 137.306C356.707 143.864 373.359 153.779 386.22 167.559C396.032 178.06 403.615 190.395 408.736 204.214C414.287 219.087 417.101 235.912 417.101 254.259C417.101 271.006 413.661 327.96 369.411 356.847C355.652 365.826 340.719 372.345 323.871 376.795C304.678 381.791 282.553 384.251 256.324 384.29ZM256.324 383.899C282.553 383.86 304.6 381.401 323.754 376.404C340.602 371.993 355.456 365.474 369.177 356.535C413.27 327.765 416.71 270.967 416.71 254.259C416.71 235.99 413.896 219.204 408.384 204.371C403.263 190.591 395.68 178.333 385.946 167.871C373.125 154.13 356.551 144.254 335.247 137.735C313.982 131.216 288.182 128.015 256.324 127.976C224.466 128.015 198.666 131.177 177.401 137.735C156.097 144.293 139.523 154.13 126.702 167.871C116.89 178.372 109.346 190.669 104.225 204.371C98.7132 219.165 95.8987 235.951 95.8987 254.298C95.8987 271.006 99.3386 327.804 143.432 356.574C157.153 365.552 172.046 372.032 188.855 376.443C208.048 381.401 230.095 383.86 256.324 383.899Z" fill="url(#paint26_linear_1532_19160)"/>
<defs>
<linearGradient id="paint0_linear_1532_19160" x1="225.181" y1="133.784" x2="289.515" y2="374.212" gradientUnits="userSpaceOnUse">
<stop offset="0.2121"/>
<stop offset="0.3594" stop-color="#0B0B0B"/>
<stop offset="0.5939" stop-color="#262626"/>
<stop offset="0.8496" stop-color="#B2B2B2"/>
<stop offset="1" stop-color="white"/>
</linearGradient>
<linearGradient id="paint1_linear_1532_19160" x1="225.174" y1="133.786" x2="289.737" y2="375.067" gradientUnits="userSpaceOnUse">
<stop/>
<stop offset="0.5636" stop-color="#1A1A1A"/>
<stop offset="0.6183" stop-color="#202020"/>
<stop offset="0.7091" stop-color="#262626"/>
<stop offset="0.8364" stop-color="white"/>
<stop offset="0.8909" stop-color="white"/>
<stop offset="1" stop-color="#808080"/>
</linearGradient>
<linearGradient id="paint2_linear_1532_19160" x1="223.482" y1="127.007" x2="160.976" y2="360.601" gradientUnits="userSpaceOnUse">
<stop stop-opacity="0"/>
<stop offset="0.6061" stop-color="#1A1A1A"/>
<stop offset="0.6637" stop-color="#1D1D1D"/>
<stop offset="0.7091" stop-color="#262626"/>
<stop offset="0.8667" stop-color="#EEEEEE"/>
<stop offset="1" stop-color="#DCDCDC" stop-opacity="0"/>
</linearGradient>
<linearGradient id="paint3_linear_1532_19160" x1="303.442" y1="383.97" x2="209.652" y2="125.931" gradientUnits="userSpaceOnUse">
<stop offset="0.0364"/>
<stop offset="0.1939"/>
<stop offset="0.2857" stop-color="#343434"/>
<stop offset="0.448" stop-color="#8A8A8A"/>
<stop offset="0.5807" stop-color="#C9C9C9"/>
<stop offset="0.6771" stop-color="#F0F0F0"/>
<stop offset="0.7273" stop-color="white"/>
<stop offset="1" stop-color="#4D4D4D"/>
</linearGradient>
<linearGradient id="paint4_linear_1532_19160" x1="142.573" y1="243.634" x2="177.483" y2="121.719" gradientUnits="userSpaceOnUse">
<stop stop-color="white" stop-opacity="0"/>
<stop offset="0.4606" stop-color="white"/>
<stop offset="0.5396" stop-color="#F0F0F0" stop-opacity="0.8536"/>
<stop offset="1" stop-color="#9A9A9A" stop-opacity="0"/>
</linearGradient>
<linearGradient id="paint5_linear_1532_19160" x1="160.615" y1="158.974" x2="353.248" y2="158.974" gradientUnits="userSpaceOnUse">
<stop/>
<stop offset="0.00346498" stop-color="#020202" stop-opacity="0.9965"/>
<stop offset="0.0735" stop-color="#272727" stop-opacity="0.9265"/>
<stop offset="0.1469" stop-color="#464646" stop-opacity="0.8531"/>
<stop offset="0.2233" stop-color="#5E5E5E" stop-opacity="0.7767"/>
<stop offset="0.3043" stop-color="#6F6F6F" stop-opacity="0.6957"/>
<stop offset="0.3928" stop-color="#797979" stop-opacity="0.6072"/>
<stop offset="0.503" stop-color="#7C7C7C" stop-opacity="0.497"/>
<stop offset="1"/>
</linearGradient>
<linearGradient id="paint6_linear_1532_19160" x1="379.842" y1="314.346" x2="389.009" y2="339.568" gradientUnits="userSpaceOnUse">
<stop offset="0.2364" stop-opacity="0"/>
<stop offset="0.4424"/>
<stop offset="0.6909" stop-opacity="0.7394"/>
<stop offset="1" stop-opacity="0"/>
</linearGradient>
<linearGradient id="paint7_linear_1532_19160" x1="190.981" y1="118.884" x2="113.019" y2="259.724" gradientUnits="userSpaceOnUse">
<stop stop-color="white" stop-opacity="0"/>
<stop offset="0.3697" stop-color="white"/>
<stop offset="1" stop-color="#808080" stop-opacity="0"/>
</linearGradient>
<linearGradient id="paint8_linear_1532_19160" x1="339.436" y1="161.332" x2="385.564" y2="161.332" gradientUnits="userSpaceOnUse">
<stop/>
<stop offset="0.0896" stop-opacity="0.9104"/>
<stop offset="1" stop-opacity="0"/>
</linearGradient>
<linearGradient id="paint9_linear_1532_19160" x1="147.215" y1="149.116" x2="147.215" y2="178.929" gradientUnits="userSpaceOnUse">
<stop/>
<stop offset="1" stop-opacity="0"/>
</linearGradient>
<linearGradient id="paint10_linear_1532_19160" x1="161.488" y1="325.489" x2="148.502" y2="361.215" gradientUnits="userSpaceOnUse">
<stop offset="0.0485" stop-opacity="0"/>
<stop offset="0.2606"/>
<stop offset="0.5333" stop-opacity="0.8517"/>
<stop offset="0.5997" stop-color="#040404" stop-opacity="0.8155"/>
<stop offset="0.6665" stop-color="#101010" stop-opacity="0.7791"/>
<stop offset="0.7333" stop-color="#242424" stop-opacity="0.7427"/>
<stop offset="0.7394" stop-color="#262626" stop-opacity="0.7394"/>
<stop offset="0.7412" stop-color="#252525" stop-opacity="0.7344"/>
<stop offset="0.7705" stop-color="#141414" stop-opacity="0.6512"/>
<stop offset="0.8068" stop-color="#090909" stop-opacity="0.5481"/>
<stop offset="0.858" stop-color="#020202" stop-opacity="0.403"/>
<stop offset="1" stop-opacity="0"/>
</linearGradient>
<linearGradient id="paint11_linear_1532_19160" x1="367.45" y1="234.815" x2="335.234" y2="122.308" gradientUnits="userSpaceOnUse">
<stop stop-color="white" stop-opacity="0"/>
<stop offset="0.09" stop-color="#E3E3E3" stop-opacity="0.1953"/>
<stop offset="0.2828" stop-color="#9C9C9C" stop-opacity="0.6139"/>
<stop offset="0.4606" stop-color="#565656"/>
<stop offset="0.4727" stop-color="#404040"/>
<stop offset="0.5792" stop-color="#444444" stop-opacity="0.7981"/>
<stop offset="0.6903" stop-color="#505050" stop-opacity="0.5875"/>
<stop offset="0.8034" stop-color="#656565" stop-opacity="0.373"/>
<stop offset="0.9174" stop-color="#828282" stop-opacity="0.1569"/>
<stop offset="0.9717" stop-color="#939393" stop-opacity="0.054"/>
<stop offset="1" stop-color="#9A9A9A" stop-opacity="0"/>
</linearGradient>
<linearGradient id="paint12_linear_1532_19160" x1="360.664" y1="179.297" x2="389.142" y2="179.297" gradientUnits="userSpaceOnUse">
<stop/>
<stop offset="0.3075" stop-color="#060606"/>
<stop offset="0.7008" stop-color="#151515"/>
<stop offset="1" stop-color="#262626"/>
</linearGradient>
<linearGradient id="paint13_linear_1532_19160" x1="152.622" y1="179.668" x2="124.15" y2="179.668" gradientUnits="userSpaceOnUse">
<stop/>
<stop offset="0.3075" stop-color="#060606"/>
<stop offset="0.7008" stop-color="#151515"/>
<stop offset="1" stop-color="#262626"/>
</linearGradient>
<linearGradient id="paint14_linear_1532_19160" x1="123.223" y1="180.188" x2="152.748" y2="180.188" gradientUnits="userSpaceOnUse">
<stop stop-color="#B2B2B2"/>
<stop offset="0.00266789" stop-color="#B1B1B1"/>
<stop offset="0.2557" stop-color="#676767"/>
<stop offset="0.4368" stop-color="#383838"/>
<stop offset="0.5273" stop-color="#262626"/>
</linearGradient>
<linearGradient id="paint15_linear_1532_19160" x1="389.534" y1="180.11" x2="359.885" y2="180.11" gradientUnits="userSpaceOnUse">
<stop stop-color="#B2B2B2"/>
<stop offset="0.00266789" stop-color="#B1B1B1"/>
<stop offset="0.2557" stop-color="#676767"/>
<stop offset="0.4368" stop-color="#383838"/>
<stop offset="0.5273" stop-color="#262626"/>
</linearGradient>
<linearGradient id="paint16_linear_1532_19160" x1="131.292" y1="263.437" x2="383.292" y2="263.437" gradientUnits="userSpaceOnUse">
<stop/>
<stop offset="0.0332" stop-color="#171717"/>
<stop offset="0.0963" stop-color="#3C3C3C"/>
<stop offset="0.1623" stop-color="#5B5B5B"/>
<stop offset="0.2312" stop-color="#737373"/>
<stop offset="0.3041" stop-color="#838383"/>
<stop offset="0.3838" stop-color="#8D8D8D"/>
<stop offset="0.483" stop-color="#919191"/>
<stop offset="0.497" stop-color="white" stop-opacity="0.7679"/>
<stop offset="0.498" stop-opacity="0.9"/>
<stop offset="0.5163" stop-color="#090909" stop-opacity="0.9342"/>
<stop offset="0.546" stop-color="#212121" stop-opacity="0.9897"/>
<stop offset="0.5515" stop-color="#262626"/>
<stop offset="0.5573" stop-color="#323232"/>
<stop offset="0.5654" stop-color="#393939"/>
<stop offset="0.5879" stop-color="#3B3B3B"/>
<stop offset="1"/>
</linearGradient>
<linearGradient id="paint17_linear_1532_19160" x1="134.321" y1="256.937" x2="243.099" y2="235.763" gradientUnits="userSpaceOnUse">
<stop/>
<stop offset="0.5569" stop-color="#181818"/>
<stop offset="1" stop-color="#262626"/>
</linearGradient>
<linearGradient id="paint18_linear_1532_19160" x1="256.337" y1="232.655" x2="390.426" y2="232.655" gradientUnits="userSpaceOnUse">
<stop/>
<stop offset="0.031" stop-color="#292929"/>
<stop offset="0.0661" stop-color="#4F4F4F"/>
<stop offset="0.1052" stop-color="#717171"/>
<stop offset="0.1478" stop-color="#8D8D8D"/>
<stop offset="0.1952" stop-color="#A4A4A4"/>
<stop offset="0.2495" stop-color="#B6B6B6"/>
<stop offset="0.3148" stop-color="#C3C3C3"/>
<stop offset="0.4024" stop-color="#CACACA"/>
<stop offset="0.6061" stop-color="#CCCCCC"/>
<stop offset="0.8242" stop-color="white"/>
</linearGradient>
<linearGradient id="paint19_linear_1532_19160" x1="312.931" y1="225.361" x2="332.666" y2="290.002" gradientUnits="userSpaceOnUse">
<stop/>
<stop offset="0.0304"/>
<stop offset="0.3394"/>
<stop offset="0.4177" stop-color="#090909"/>
<stop offset="0.5697" stop-color="#171717"/>
<stop offset="0.8061"/>
</linearGradient>
<linearGradient id="paint20_linear_1532_19160" x1="256.992" y1="232.563" x2="122.197" y2="232.563" gradientUnits="userSpaceOnUse">
<stop/>
<stop offset="0.0381" stop-color="#1F1F1F"/>
<stop offset="0.0845" stop-color="#3E3E3E"/>
<stop offset="0.1299" stop-color="#545454"/>
<stop offset="0.1731" stop-color="#616161"/>
<stop offset="0.2121" stop-color="#666666"/>
<stop offset="0.2408" stop-color="#737373"/>
<stop offset="0.3455" stop-color="#9E9E9E"/>
<stop offset="0.4522" stop-color="#C1C1C1"/>
<stop offset="0.5594" stop-color="#DCDCDC"/>
<stop offset="0.6676" stop-color="#F0F0F0"/>
<stop offset="0.7774" stop-color="#FBFBFB"/>
<stop offset="0.8909" stop-color="white"/>
<stop offset="1" stop-color="#ADADAD"/>
</linearGradient>
<linearGradient id="paint21_linear_1532_19160" x1="183.838" y1="129.447" x2="328.646" y2="380.605" gradientUnits="userSpaceOnUse">
<stop stop-color="#F2F2F2"/>
<stop offset="0.9717" stop-color="#262626"/>
</linearGradient>
<linearGradient id="paint22_linear_1532_19160" x1="167.203" y1="351.935" x2="348.895" y2="351.935" gradientUnits="userSpaceOnUse">
<stop/>
<stop offset="0.2378" stop-color="#262626"/>
<stop offset="0.503" stop-color="#565656"/>
<stop offset="1"/>
</linearGradient>
<linearGradient id="paint23_linear_1532_19160" x1="256.324" y1="376.032" x2="256.324" y2="200.34" gradientUnits="userSpaceOnUse">
<stop offset="0.1213" stop-color="#333333"/>
<stop offset="0.1777" stop-color="#3C3C3C"/>
<stop offset="0.2711" stop-color="#555555"/>
<stop offset="0.3899" stop-color="#7E7E7E"/>
<stop offset="0.5294" stop-color="#B7B7B7"/>
<stop offset="0.6698" stop-color="#F8F8F8"/>
<stop offset="0.7273" stop-color="white"/>
</linearGradient>
<linearGradient id="paint24_linear_1532_19160" x1="126.812" y1="319.438" x2="395.959" y2="221.342" gradientUnits="userSpaceOnUse">
<stop stop-color="#4D4D4D"/>
<stop offset="0.2075" stop-color="#999999"/>
<stop offset="0.3726" stop-color="#F2F2F2"/>
<stop offset="0.6339" stop-color="#F0F0F0"/>
<stop offset="0.728" stop-color="#EAEAEA"/>
<stop offset="0.795" stop-color="#DEDEDE"/>
<stop offset="0.8493" stop-color="#CDCDCD"/>
<stop offset="0.8957" stop-color="#B7B7B7"/>
<stop offset="0.9361" stop-color="#9C9C9C"/>
<stop offset="0.9725" stop-color="#7D7D7D"/>
<stop offset="0.9764" stop-color="#797979"/>
<stop offset="0.9981" stop-color="#505050"/>
<stop offset="1" stop-color="#4D4D4D"/>
</linearGradient>
<linearGradient id="paint25_linear_1532_19160" x1="256.324" y1="373.622" x2="256.324" y2="202.381" gradientUnits="userSpaceOnUse">
<stop offset="0.3632" stop-color="#F2F2F2" stop-opacity="0"/>
<stop offset="0.4287" stop-color="#E0E0E0" stop-opacity="0.1956"/>
<stop offset="0.5605" stop-color="#B1B1B1" stop-opacity="0.5892"/>
<stop offset="0.6981" stop-color="#797979"/>
<stop offset="0.7897" stop-color="#515151"/>
<stop offset="0.8753" stop-color="#323232"/>
<stop offset="0.9482" stop-color="#202020"/>
<stop offset="1" stop-color="#1A1A1A"/>
</linearGradient>
<linearGradient id="paint26_linear_1532_19160" x1="328.81" y1="129.447" x2="184.002" y2="380.605" gradientUnits="userSpaceOnUse">
<stop stop-color="#E6E6E6"/>
<stop offset="1" stop-color="#333333"/>
</linearGradient>
</defs>
</svg>
