<svg width="512" height="512" viewBox="0 0 512 512" fill="none" xmlns="http://www.w3.org/2000/svg">
<path d="M290.089 270.285C289.762 270.367 288.454 270.367 287.882 270.367H245.701V280.184H288.617C288.944 280.184 291.478 280.184 291.969 280.103C300.716 279.284 304.721 272.003 304.721 265.622C304.721 259.077 300.552 252.041 292.623 251.305C291.07 251.141 289.762 251.141 289.19 251.141H261.151C259.924 251.141 258.535 251.059 258.044 250.896C255.837 250.323 255.02 248.36 255.02 246.723C255.02 245.251 255.837 243.287 258.126 242.633C258.78 242.469 259.516 242.387 261.069 242.387H301.533V232.734H260.415C258.698 232.734 257.39 232.815 256.328 232.979C249.297 233.961 244.393 239.606 244.393 246.805C244.393 252.696 248.071 259.568 256.164 260.713C257.635 260.877 259.679 260.877 260.578 260.877H287.882C288.372 260.877 289.598 260.877 289.844 260.959C292.95 261.368 294.013 263.658 294.013 265.704C294.013 267.667 292.786 269.794 290.089 270.285Z" fill="black"/>
<path d="M210.142 270.285C209.815 270.367 208.507 270.367 208.016 270.367H165.753V280.184H208.67C208.997 280.184 211.531 280.184 212.022 280.103C220.769 279.284 224.774 272.003 224.774 265.622C224.774 259.077 220.605 252.041 212.676 251.305C211.122 251.141 209.815 251.141 209.242 251.141H181.203C179.977 251.141 178.587 251.059 178.097 250.896C175.89 250.323 175.072 248.36 175.072 246.723C175.072 245.251 175.89 243.287 178.179 242.633C178.833 242.469 179.568 242.387 181.122 242.387H221.586V232.734H180.468C178.751 232.734 177.443 232.815 176.38 232.979C169.35 233.961 164.445 239.606 164.445 246.805C164.445 252.696 168.124 259.568 176.217 260.713C177.688 260.877 179.732 260.877 180.631 260.877H207.934C208.425 260.877 209.651 260.877 209.896 260.959C213.003 261.368 214.065 263.658 214.065 265.704C214.065 267.667 212.921 269.794 210.142 270.285Z" fill="black"/>
<path d="M143.763 232.406H133.136V280.43H143.763V232.406Z" fill="black"/>
<path d="M109.675 280.43V232.406H99.0478V268.24L63.6516 232.406H50V280.43H60.627V244.433L96.2684 280.43H109.675Z" fill="black"/>
<path d="M451.456 232.406V268.24L416.06 232.406H402.408V280.43H413.035V244.433L448.595 280.43H462.001V232.406H451.456Z" fill="black"/>
<path d="M347.067 232.406L317.147 280.43H330.063L335.377 271.839H370.283L375.596 280.43H388.43L358.511 232.406H347.067ZM364.806 262.758H340.854L352.871 243.451L364.806 262.758Z" fill="black"/>
<path d="M109.103 205.163C130.52 142.577 189.541 100.526 256.083 100.526C322.624 100.526 381.727 142.577 403.063 205.163L403.226 205.654H450.067V200.009L430.611 197.718C418.594 196.327 416.06 191.01 412.79 184.301L411.973 182.665C383.852 122.779 322.624 84 256.083 84C189.459 84 128.313 122.779 100.192 182.828L99.375 184.465C96.1051 191.173 93.571 196.491 81.5543 197.882L62.0986 200.173V205.818H108.858L109.103 205.163Z" fill="black"/>
<path d="M403.226 307.264L403.063 307.755C381.645 370.341 322.624 412.31 256.083 412.31C189.541 412.31 130.439 370.259 109.103 307.673L108.94 307.182H62.1807V312.827L81.6363 315.118C93.653 316.509 96.1871 321.826 99.457 328.535L100.274 330.171C128.395 390.221 189.623 429 256.165 429C322.706 429 383.934 390.221 412.055 330.253L412.872 328.617C416.142 321.908 418.676 316.59 430.693 315.2L450.149 312.909V307.264H403.226Z" fill="black"/>
</svg>
