<svg width="512" height="512" viewBox="0 0 512 512" fill="none" xmlns="http://www.w3.org/2000/svg">
<path fill-rule="evenodd" clip-rule="evenodd" d="M185.442 229.42H440.347C448.695 229.193 452.528 218.814 446.664 213.174C392.075 160.142 269.131 156.984 253.793 157.887C234.393 186.545 210.031 205.952 182.509 217.911C177.321 220.845 179.352 229.193 185.442 229.42ZM450.276 275.003V242.734H457.266V275.003H450.276ZM268.905 249.73H232.138C218.152 249.73 217.7 268.008 232.138 268.008H261.914V262.591H240.709V255.596H268.905V275.003H232.138C208.452 275.003 208.678 242.734 232.138 242.734H268.905V249.73ZM58.4384 275.003V242.734H100.622C117.541 242.734 117.541 268.91 100.622 268.91H65.6576V275.003H58.4384ZM65.6576 249.73V261.691H100.622C108.068 261.691 108.068 249.73 100.622 249.73H65.6576ZM135.363 275.003V257.401C135.363 244.763 153.635 242.281 163.108 242.281C172.582 242.281 190.857 244.763 190.857 257.401V275.003H183.637V268.46H142.356V275.003H135.363ZM183.637 261.465V257.401C183.637 250.406 167.62 249.277 163.108 249.277C157.92 249.277 142.356 250.406 142.356 257.401V261.465H183.637ZM293.046 275.003V257.401C293.046 244.763 311.317 242.281 321.015 242.281C330.265 242.281 348.537 244.763 348.537 257.401V275.003H341.546V268.46H300.265V275.003H293.046ZM341.544 261.465V257.401C341.544 250.406 325.524 249.277 321.015 249.277C315.829 249.277 300.262 250.406 300.262 257.401V261.465H341.544ZM426.587 266.881V242.734H419.371V263.268C419.371 265.976 416.44 267.105 414.632 265.523L386.211 244.763C381.02 240.25 372.452 243.861 372.452 251.082V275.003H379.442V254.47C379.442 251.988 382.601 250.632 384.406 252.214L413.054 273.2C418.242 277.485 426.587 273.877 426.587 266.881ZM52.1243 228.967C67.915 203.694 107.615 181.579 157.471 169.393L119.346 228.743L52.1243 228.967ZM189.728 162.851C204.616 160.819 221.985 158.563 237.326 158.111C216.571 189.477 187.923 206.402 156.342 212.945L189.728 162.851ZM256.5 148.183C379.894 148.183 480.502 196.925 480.502 256.499C480.502 316.073 379.894 364.814 256.5 364.814C133.106 364.814 32.4978 316.073 32.4978 256.499C32.4978 196.925 133.106 148.183 256.5 148.183ZM256.5 138.704C385.08 138.704 489.976 191.508 489.976 256.499C489.976 321.489 385.077 374.52 256.5 374.52C127.694 374.52 22.7977 321.489 22.7977 256.499C22.7977 191.508 127.694 138.704 256.5 138.704ZM256.5 129C390.044 129 499 186.318 499 256.499C499 326.682 390.044 384 256.5 384C122.956 384 14 326.682 14 256.499C14 186.318 122.956 129 256.5 129ZM446.437 299.826C411.473 332.998 337.934 355.11 256.5 355.11C174.39 355.11 100.399 332.771 65.6576 299.374C60.4695 293.507 64.5289 283.577 72.6505 283.577H440.126C448.695 283.58 452.754 294.407 446.437 299.826ZM281.991 215.655C284.695 215.655 287.182 217.911 287.182 220.619C287.182 223.554 284.698 225.809 281.991 225.809C281.306 225.821 280.626 225.694 279.991 225.438C279.357 225.181 278.78 224.799 278.295 224.315C277.811 223.831 277.429 223.254 277.172 222.619C276.915 221.984 276.789 221.304 276.8 220.619C276.8 217.911 279.06 215.655 281.991 215.655ZM249.055 215.655C251.762 215.655 254.019 217.911 254.019 220.619C254.019 223.554 251.762 225.809 249.055 225.809C248.37 225.82 247.69 225.694 247.056 225.437C246.421 225.18 245.845 224.798 245.361 224.314C244.877 223.83 244.495 223.253 244.239 222.618C243.982 221.984 243.855 221.304 243.866 220.619C243.866 217.911 246.124 215.655 249.055 215.655ZM216.121 215.655C218.828 215.655 221.086 217.911 221.086 220.619C221.086 223.554 218.831 225.809 216.121 225.809C215.437 225.82 214.757 225.694 214.122 225.437C213.488 225.18 212.912 224.798 212.428 224.314C211.944 223.83 211.562 223.253 211.305 222.618C211.048 221.984 210.922 221.304 210.933 220.619C210.933 217.911 213.188 215.655 216.121 215.655ZM314.924 215.655C317.634 215.655 320.115 217.911 320.115 220.619C320.115 223.554 317.637 225.809 314.924 225.809C314.24 225.82 313.56 225.694 312.926 225.437C312.292 225.18 311.715 224.798 311.232 224.314C310.748 223.829 310.366 223.253 310.11 222.618C309.853 221.983 309.727 221.304 309.739 220.619C309.739 217.911 311.991 215.655 314.924 215.655ZM347.86 215.655C350.565 215.655 353.046 217.911 353.046 220.619C353.046 223.554 350.568 225.809 347.86 225.809C347.176 225.821 346.496 225.694 345.861 225.438C345.226 225.181 344.649 224.799 344.165 224.315C343.681 223.831 343.299 223.254 343.042 222.619C342.785 221.984 342.658 221.304 342.67 220.619C342.672 217.911 344.93 215.655 347.86 215.655ZM380.794 215.655C383.498 215.655 385.985 217.911 385.985 220.619C385.985 223.554 383.501 225.809 380.794 225.809C380.11 225.82 379.43 225.694 378.796 225.437C378.161 225.18 377.585 224.798 377.101 224.314C376.618 223.829 376.236 223.253 375.98 222.618C375.723 221.983 375.597 221.304 375.609 220.619C375.609 217.911 377.86 215.655 380.794 215.655ZM413.733 215.655C416.437 215.655 418.918 217.911 418.918 220.619C418.918 223.554 416.44 225.809 413.733 225.809C413.048 225.821 412.368 225.694 411.733 225.438C411.099 225.181 410.522 224.799 410.038 224.315C409.553 223.831 409.171 223.254 408.914 222.619C408.657 221.984 408.531 221.304 408.542 220.619C408.542 217.911 410.799 215.655 413.733 215.655ZM274.322 288.541C277.026 288.541 279.286 290.799 279.286 293.734C279.286 296.668 277.029 298.924 274.322 298.924C271.391 298.924 269.131 296.668 269.131 293.734C269.131 290.799 271.388 288.541 274.322 288.541ZM240.483 288.541C243.19 288.541 245.671 290.799 245.671 293.734C245.671 296.668 243.19 298.924 240.483 298.924C237.552 298.924 235.295 296.668 235.295 293.734C235.295 290.799 237.552 288.541 240.483 288.541ZM206.647 288.541C209.578 288.541 211.835 290.799 211.835 293.734C211.835 296.668 209.581 298.924 206.647 298.924C203.714 298.924 201.459 296.668 201.459 293.734C201.459 290.799 203.714 288.541 206.647 288.541ZM307.934 288.541C310.865 288.541 313.119 290.799 313.119 293.734C313.119 296.668 310.868 298.924 307.934 298.924C305.23 298.924 302.969 296.668 302.969 293.734C302.969 290.799 305.227 288.541 307.934 288.541ZM341.77 288.541C344.701 288.541 346.955 290.799 346.955 293.734C346.955 296.668 344.703 298.924 341.77 298.924C339.065 298.924 336.579 296.668 336.579 293.734C336.579 290.799 339.065 288.541 341.77 288.541ZM375.609 288.541C378.539 288.541 380.794 290.799 380.794 293.734C380.794 296.668 378.542 298.924 375.609 298.924C372.675 298.924 370.418 296.668 370.418 293.734C370.418 290.799 372.678 288.541 375.609 288.541ZM409.447 288.541C412.152 288.541 414.632 290.799 414.632 293.734C414.632 296.668 412.154 298.924 409.447 298.924C406.511 298.924 404.256 296.668 404.256 293.734C404.256 290.799 406.508 288.541 409.447 288.541ZM172.809 288.541C175.739 288.541 177.997 290.799 177.997 293.734C177.997 296.668 175.742 298.924 172.809 298.924C170.101 298.924 167.62 296.668 167.62 293.734C167.62 290.799 170.101 288.541 172.809 288.541ZM138.973 288.541C141.903 288.541 144.161 290.799 144.161 293.734C144.161 296.668 141.903 298.924 138.973 298.924C136.268 298.924 133.785 296.668 133.785 293.734C133.785 290.799 136.266 288.541 138.973 288.541ZM105.36 288.541C108.068 288.541 110.322 290.799 110.322 293.734C110.322 296.668 108.068 298.924 105.36 298.924C102.43 298.924 100.172 296.668 100.172 293.734C100.172 290.799 102.427 288.541 105.36 288.541ZM236.424 187.448C239.128 187.448 241.385 189.703 241.385 192.638C241.385 195.343 239.131 197.827 236.424 197.827C233.49 197.827 231.236 195.346 231.236 192.638C231.224 191.953 231.351 191.273 231.608 190.638C231.864 190.003 232.246 189.427 232.73 188.943C233.214 188.459 233.791 188.077 234.425 187.82C235.06 187.563 235.739 187.436 236.424 187.448ZM256.953 161.721C257.637 161.71 258.317 161.837 258.951 162.094C259.586 162.351 260.162 162.732 260.646 163.217C261.13 163.701 261.512 164.277 261.769 164.912C262.025 165.547 262.152 166.227 262.141 166.911C262.152 167.596 262.025 168.276 261.769 168.911C261.512 169.545 261.13 170.122 260.646 170.606C260.162 171.09 259.586 171.472 258.951 171.729C258.317 171.986 257.637 172.113 256.953 172.101C254.245 172.101 251.764 169.846 251.764 166.911C251.762 163.977 254.245 161.721 256.953 161.721ZM285.151 162.398C288.081 162.398 290.336 164.88 290.336 167.588C290.336 170.52 288.084 172.778 285.151 172.778C282.446 172.778 280.186 170.522 280.186 167.588C280.186 164.88 282.443 162.398 285.151 162.398ZM313.572 165.559C316.282 165.559 318.763 168.041 318.763 170.749C318.763 173.68 316.285 175.939 313.572 175.939C312.888 175.95 312.208 175.823 311.574 175.566C310.939 175.309 310.363 174.928 309.879 174.443C309.396 173.959 309.014 173.382 308.758 172.748C308.501 172.113 308.375 171.433 308.387 170.749C308.387 168.041 310.638 165.559 313.572 165.559ZM341.77 170.972C344.701 170.972 346.955 173.228 346.955 176.162C346.955 179.097 344.703 181.352 341.77 181.352C339.065 181.352 336.579 179.097 336.579 176.162C336.579 173.23 339.065 170.972 341.77 170.972ZM370.191 178.194C372.896 178.194 375.156 180.452 375.156 183.384C375.156 186.089 372.899 188.574 370.191 188.574C367.261 188.574 365.006 186.092 365.006 183.384C364.995 182.7 365.121 182.02 365.378 181.385C365.634 180.751 366.016 180.174 366.5 179.69C366.983 179.206 367.559 178.824 368.194 178.567C368.828 178.31 369.507 178.183 370.191 178.194ZM398.392 187.671C401.096 187.671 403.577 190.153 403.577 192.861C403.577 195.793 401.099 198.051 398.392 198.051C397.708 198.062 397.028 197.936 396.393 197.679C395.758 197.422 395.182 197.04 394.698 196.556C394.213 196.072 393.831 195.495 393.574 194.861C393.317 194.226 393.19 193.546 393.201 192.861C393.201 190.156 395.459 187.671 398.392 187.671ZM423.207 200.988C426.137 200.988 428.392 203.244 428.392 206.178C428.392 208.886 426.14 211.368 423.207 211.368C420.497 211.368 418.016 208.886 418.016 206.178C418.016 203.244 420.497 200.988 423.207 200.988ZM99.4962 306.369C102.427 306.369 104.684 308.624 104.684 311.559C104.684 314.493 102.43 316.749 99.4962 316.749C96.789 316.749 94.3081 314.493 94.3081 311.559C94.3081 308.624 96.789 306.369 99.4962 306.369ZM130.175 319.91C130.859 319.899 131.539 320.025 132.174 320.282C132.808 320.539 133.384 320.921 133.869 321.405C134.353 321.889 134.734 322.466 134.991 323.1C135.248 323.735 135.374 324.415 135.363 325.1C135.375 325.785 135.248 326.465 134.992 327.1C134.735 327.735 134.354 328.312 133.87 328.796C133.385 329.281 132.809 329.663 132.174 329.92C131.54 330.177 130.86 330.304 130.175 330.292C129.49 330.304 128.811 330.177 128.176 329.92C127.541 329.663 126.965 329.281 126.481 328.796C125.996 328.312 125.615 327.735 125.358 327.1C125.102 326.465 124.975 325.785 124.987 325.1C124.976 324.415 125.102 323.735 125.359 323.1C125.616 322.466 125.998 321.889 126.482 321.405C126.966 320.921 127.542 320.539 128.176 320.282C128.811 320.025 129.491 319.899 130.175 319.91ZM413.733 306.369C410.802 306.369 408.542 308.624 408.542 311.559C408.542 314.493 410.799 316.749 413.733 316.749C416.437 316.749 418.918 314.493 418.918 311.559C418.918 308.624 416.437 306.369 413.733 306.369ZM383.051 319.91C382.367 319.898 381.687 320.025 381.052 320.281C380.417 320.538 379.84 320.92 379.356 321.404C378.872 321.888 378.49 322.465 378.233 323.1C377.976 323.735 377.849 324.415 377.86 325.1C377.86 328.034 380.118 330.292 383.051 330.292C385.985 330.292 388.237 328.037 388.237 325.1C388.237 322.165 385.985 319.91 383.051 319.91ZM162.432 324.873L153.185 338.411L156.794 339.54L158.599 336.832L164.011 338.188L164.237 341.346L168.073 342.249L166.045 325.776L162.432 324.873ZM159.951 334.577L163.335 329.161L163.787 335.48L159.951 334.577ZM176.418 343.83L179.802 344.733L182.282 333.674L178.899 332.774L177.547 339.09C177.321 339.767 176.645 342.022 174.613 341.572C173.485 341.346 173.035 340.443 173.485 338.411L174.837 331.869L171.68 331.19L170.099 338.188C169.649 339.314 169.196 342.701 172.58 343.378C173.935 343.828 175.287 343.601 176.868 342.475L176.418 343.83ZM182.961 335.93L184.99 336.382L183.861 342.249C183.408 344.504 184.087 345.636 186.342 346.086C187.018 346.312 188.147 346.312 189.049 346.312L189.499 344.057C189.273 344.057 188.823 344.283 188.373 344.057C187.018 343.83 187.244 342.928 187.471 342.251L188.373 337.061L190.854 337.511L191.08 335.256L188.826 334.806L189.502 331.419L186.118 330.742L185.442 334.13L183.411 333.677L182.961 335.93ZM196.495 347.891C199.878 348.568 202.811 347.215 203.714 343.151C204.39 339.088 202.135 336.609 198.526 335.93C195.369 335.48 192.209 336.609 191.533 340.896C190.63 344.96 193.111 347.439 196.495 347.891ZM196.947 345.859C194.466 345.409 194.69 342.928 194.916 341.572C195.592 337.961 197.397 338.188 198.299 338.188C198.975 338.411 200.78 338.864 200.104 342.475C199.878 343.83 199.202 346.086 196.947 345.859ZM206.195 337.285L204.842 348.57L208.226 349.02L208.902 342.478C209.354 340.222 210.48 339.77 211.383 339.77C212.738 339.996 212.961 341.125 212.738 342.704L211.835 349.473L215.219 349.697L216.121 343.38C216.347 341.125 217.476 340.672 218.378 340.672C219.957 340.899 219.957 342.478 219.731 343.604L219.055 350.376L222.438 350.599L223.114 343.83C223.34 342.478 223.567 339.09 219.957 338.64C219.278 338.414 217.7 338.414 215.895 340.443C215.668 339.317 214.992 337.964 212.738 337.738C211.835 337.511 210.707 337.738 209.128 339.317L209.354 337.738L206.195 337.285ZM230.783 351.502C234.393 351.729 237.1 349.923 237.552 345.859C237.779 341.799 235.295 339.543 231.688 339.317C228.528 339.09 225.371 340.443 225.145 344.96C224.919 349.247 227.4 351.276 230.783 351.502ZM231.009 349.247C228.528 349.02 228.528 346.765 228.528 345.183C228.755 341.572 230.783 341.572 231.462 341.572C232.364 341.799 234.166 342.022 233.943 345.636C233.943 346.989 233.49 349.473 231.009 349.247ZM242.514 350.149C243.643 351.502 244.542 351.952 246.124 352.178C248.831 352.178 251.312 350.599 251.538 346.312C251.764 342.701 249.96 340.22 246.8 339.993C245.448 339.993 244.095 340.443 243.19 341.346L243.417 335.93L240.033 335.703L239.357 351.276L242.517 351.502L242.514 350.149ZM242.74 345.859C242.74 344.96 243.193 342.022 245.671 342.249C247.476 342.249 248.152 344.054 248.152 346.086C247.926 348.568 246.797 349.923 245.219 349.697C243.866 349.697 242.74 348.568 242.74 345.859ZM253.793 340.443L253.567 351.728H256.953L257.179 340.443H253.793ZM253.793 338.867H257.179V336.159H253.793V338.867ZM259.434 336.382L259.654 351.952L263.04 351.728L262.814 336.156L259.434 336.382ZM265.298 340.67L265.971 351.952L269.357 351.728L268.684 340.443L265.298 340.67ZM265.298 338.867H268.684L268.457 336.159L265.071 336.385L265.298 338.867ZM285.151 350.826L287.629 350.599L290.788 339.317L291.694 350.376L295.3 350.149L294.174 334.577L288.984 335.03L286.053 345.859L281.541 335.48L276.576 335.93L277.482 351.276L281.315 351.052L280.415 339.993H280.641L285.151 350.826ZM303.875 349.473C307.255 349.02 309.739 346.765 309.286 342.704C308.834 338.64 305.9 337.061 302.296 337.511C299.365 337.738 296.426 339.767 297.105 344.283C297.558 348.341 300.489 349.923 303.875 349.473ZM303.648 347.215C301.165 347.439 300.718 345.183 300.489 343.828C300.036 340.217 301.841 339.764 302.74 339.764C303.419 339.54 305.45 339.54 305.671 343.151C305.9 344.507 306.126 346.989 303.648 347.215ZM323.498 346.312L320.794 330.966L317.408 331.642L318.534 336.832C317.634 336.156 315.829 335.703 314.921 335.93C311.541 336.609 310.189 339.317 310.636 342.925C311.315 346.312 313.796 348.568 316.953 347.891C318.305 347.665 318.984 346.989 319.883 345.636L320.11 346.989L323.498 346.312ZM319.436 341.346C319.889 344.054 318.763 345.41 317.411 345.636C315.832 345.859 314.706 344.507 314.251 342.249C313.798 340.443 314.251 338.411 316.056 337.961C317.855 337.738 318.986 338.867 319.436 341.346ZM333.422 341.122C333.422 342.249 332.522 342.701 331.617 342.925C329.365 343.378 328.463 341.572 328.237 340.67L336.805 338.867L336.579 338.414C336.353 337.061 335.227 332.098 329.815 333.224C326.203 333.901 323.945 336.611 324.624 340.443C325.75 346.086 330.262 345.41 331.841 345.183C333.872 344.733 336.579 343.83 336.805 340.443L333.422 341.122ZM328.01 338.64C327.784 335.932 329.815 335.48 330.036 335.48C330.941 335.253 332.52 335.253 332.972 337.735L328.01 338.64ZM340.418 331.645L337.258 332.321L339.962 343.38L343.122 342.478L341.77 336.385C341.544 335.932 340.865 333.453 343.122 332.774C344.927 332.321 345.379 334.127 345.6 335.253L347.179 341.572L350.565 340.67L348.76 333.901C347.86 329.837 345.6 329.837 344.022 330.29C342.67 330.516 341.317 331.416 340.641 332.995L340.418 331.645ZM354.627 331.871C354.18 330.292 355.532 329.84 355.985 329.613C356.432 329.39 357.784 329.163 358.237 330.519V330.742C358.463 331.871 357.563 331.871 355.306 332.998C353.501 333.901 351.694 335.03 352.375 337.511C352.601 338.414 353.501 340.672 356.887 339.543C357.604 339.417 358.282 339.127 358.869 338.697C359.457 338.267 359.937 337.707 360.273 337.061L360.947 337.964L364.333 337.061L364.106 336.835C363.659 336.835 363.207 336.159 362.98 335.032L361.628 330.066C361.402 328.713 360.276 326.002 355.538 327.361C354.406 327.811 350.573 328.94 351.478 332.777L354.627 331.871ZM359.136 333.674C359.815 335.93 358.463 336.835 357.563 337.061C356.884 337.285 355.759 337.285 355.532 336.385C355.306 335.032 356.432 334.58 357.111 334.13C358.237 333.677 358.01 333.677 358.916 333.001L359.136 333.674Z" fill="black"/>
</svg>
