<svg width="512" height="512" viewBox="0 0 512 512" fill="none" xmlns="http://www.w3.org/2000/svg">
<path d="M255.835 89.0326C266.403 89.0326 276.84 89.0326 287.407 89.0326C302.019 89.2935 316.762 89.8154 331.374 90.3372C344.681 90.8591 357.858 91.5114 371.165 92.4247C379.645 92.8161 388.125 93.7293 396.475 95.2949C398.301 95.6863 399.997 96.2081 401.693 96.73C405.999 98.1651 409.26 101.688 410.434 106.123C411.478 110.037 412 114.082 412 118.126C412 139.913 412 161.57 412 183.227C412 197.317 411.609 211.407 411.217 225.628C410.826 238.805 410.304 251.982 409.521 265.158C408.738 278.335 408.086 291.121 406.26 304.036C404.694 319.562 398.693 334.304 388.908 346.568C380.558 356.222 370.643 364.311 359.554 370.573C332.678 386.489 305.15 401.101 276.97 414.409C272.143 416.626 267.186 418.975 262.489 421.454C258.444 423.672 253.487 423.672 249.442 421.454C237.309 415.844 225.437 409.712 213.565 403.58C192.299 392.621 171.034 381.532 150.551 369.268C138.288 362.354 127.72 352.83 119.37 341.61C112.456 331.173 107.89 319.431 106.194 307.037C104.628 297.252 103.976 287.468 103.323 277.552C102.541 265.289 101.888 253.025 101.366 240.762C100.975 234.108 100.975 227.454 100.845 220.67C99.9313 187.272 99.9313 153.873 100.062 120.474C99.9313 116.169 100.323 111.864 101.236 107.558C102.149 101.949 106.454 97.3823 111.934 95.9472C116.892 94.6425 121.98 93.8598 127.198 93.4684C143.767 91.7724 160.727 91.12 177.557 90.4677C190.473 89.9459 203.258 89.5545 216.174 89.1631C228.829 88.9022 242.528 89.0326 255.835 89.0326ZM255.835 97.3823C241.093 97.3823 226.35 97.3823 211.608 97.7737C201.04 98.0346 190.473 98.426 179.905 98.9478C163.337 99.6002 147.159 100.383 130.721 101.688C125.894 101.949 121.197 102.601 116.5 103.775C112.586 104.558 109.455 107.689 108.803 111.603C108.281 113.951 108.02 116.43 108.02 118.909C108.02 128.563 108.02 138.217 107.629 147.872C107.368 171.094 107.237 194.317 108.02 217.539C108.02 221.714 108.02 225.758 108.411 230.194C109.325 245.98 109.977 261.897 111.282 277.683C112.064 287.598 112.586 297.513 114.282 307.298C115.848 318.127 120.023 328.433 126.154 337.566C134.374 348.525 144.941 357.657 156.944 364.311C177.688 376.705 199.344 387.794 220.871 398.883C231.439 404.363 242.006 409.842 252.835 414.8C254.661 415.713 256.879 415.713 258.705 414.8C265.229 411.669 271.752 408.668 278.275 405.537C300.062 394.97 321.328 383.75 342.333 371.617C352.378 366.268 361.902 360.136 370.904 353.221C383.82 343.176 392.822 328.825 396.344 312.908C398.562 301.688 399.867 290.338 400.519 278.988C401.302 268.942 401.693 258.766 402.346 248.589C403.52 231.107 404.042 213.756 404.303 196.274C404.303 180.879 404.564 165.354 404.303 149.959C404.042 140.044 404.303 129.998 404.042 120.083C404.042 117.996 403.911 115.908 403.65 113.821C403.259 108.733 399.476 104.688 394.518 103.775C390.343 102.601 386.038 101.949 381.732 101.688C367.642 100.774 353.683 99.8611 339.723 99.2088C322.763 98.426 305.672 97.9041 288.582 97.5127C277.492 96.9909 266.664 97.3823 255.835 97.3823Z" fill="black"/>
<path d="M214.87 278.074C216.566 282.771 218.131 286.815 219.567 290.86C219.958 291.643 220.741 292.295 221.524 292.556C225.698 294.904 229.743 297.252 233.918 299.601C235.353 300.253 236.266 301.558 236.396 303.123C238.092 314.735 239.919 326.215 241.615 337.827C241.745 339.653 241.484 341.61 241.093 343.437C240.702 346.176 240.31 348.916 239.788 351.656C239.527 352.569 240.049 353.482 240.963 353.743C245.137 355.439 249.182 357.266 253.618 359.092C254.4 359.484 255.444 359.484 256.227 359.092C260.663 357.396 265.229 355.57 269.665 353.874C270.578 353.743 271.23 352.83 271.1 351.917C271.1 351.786 271.1 351.656 270.969 351.525C270.317 347.742 269.665 343.958 269.273 340.175C269.273 337.696 269.534 335.217 270.186 332.869C271.622 322.954 273.187 313.039 274.753 303.123C274.883 301.558 275.796 300.253 277.231 299.601C281.406 297.383 285.451 294.904 289.626 292.686C290.8 292.164 291.582 291.121 291.974 289.947C293.278 286.163 294.714 282.38 296.279 278.205C293.278 278.727 290.669 279.379 288.06 279.77C286.103 280.031 284.407 281.075 283.363 282.771C281.667 285.119 279.841 287.468 278.014 289.686C277.753 290.077 277.492 290.599 276.971 290.468C276.449 290.338 276.579 289.686 276.71 289.164C277.753 282.51 278.667 275.856 279.58 269.203C279.71 267.898 280.624 266.724 281.928 266.463C286.494 264.898 290.93 263.202 295.496 261.766C296.54 261.505 297.453 260.592 297.584 259.549C298.367 254.591 299.28 249.764 300.193 244.806C300.454 243.893 300.063 242.98 299.28 242.588C297.584 241.545 296.018 240.501 294.322 239.457C293.409 239.066 293.018 238.022 293.409 237.239C297.714 221.714 305.151 207.233 315.066 194.447C321.067 186.75 329.286 181.27 338.549 178.531C355.118 174.095 368.165 179.966 376.123 195.491C380.037 203.188 381.994 211.668 381.733 220.279C381.733 221.975 381.08 222.627 379.384 222.758L367.643 224.062C366.077 224.062 365.294 224.845 364.903 226.541C362.163 242.458 359.815 258.374 355.901 274.03C354.596 280.031 352.378 285.902 349.639 291.512C348.465 293.86 346.769 295.817 344.551 297.122C341.55 298.688 339.332 297.774 338.549 294.513C337.506 289.816 337.506 284.989 338.549 280.292C339.984 272.073 342.463 264.245 343.507 256.026C344.812 248.459 344.942 240.762 344.029 233.195C343.637 230.064 342.463 227.063 340.506 224.584C336.984 220.801 330.852 220.54 327.068 224.062C326.416 224.715 325.764 225.498 325.242 226.28C324.981 227.063 324.981 227.846 325.242 228.498C326.025 233.847 326.155 239.327 325.764 244.676C325.242 251.851 321.589 258.374 315.849 262.419C313.239 264.245 310.891 266.594 308.412 268.551C307.629 269.203 307.108 270.247 306.847 271.16C303.716 283.815 300.323 296.47 297.192 309.125C295.235 315.126 292.365 320.736 288.973 325.954C287.799 328.433 286.364 330.912 284.798 333.13C281.276 337.957 281.145 343.697 280.102 349.177C279.058 354.656 278.406 359.223 277.623 364.18C277.101 369.529 273.057 373.704 267.708 374.617C259.88 376.574 251.661 376.574 243.702 374.617C238.614 373.574 234.7 369.399 234.179 364.18C232.874 355.961 231.439 348.003 230.004 339.914C229.743 338.87 229.351 337.827 228.829 336.783C225.177 330.521 221.654 324.389 218.001 317.996C216.305 315.126 215.131 311.995 214.218 308.733C211.217 296.339 207.955 283.945 204.955 271.421C204.563 269.986 203.78 268.551 202.606 267.637C200.128 265.55 197.649 263.462 195.039 261.375C189.69 257.331 186.429 251.068 185.907 244.415C185.385 239.457 185.516 234.369 186.298 229.411C186.951 226.019 184.994 222.627 181.602 221.584C176.775 219.496 171.295 221.714 169.208 226.541C169.208 226.541 169.208 226.672 169.077 226.672C167.642 229.672 166.859 233.064 166.859 236.326C166.598 248.329 168.164 260.201 171.295 271.812C172.991 277.552 173.643 283.554 173.513 289.555C173.513 291.121 173.252 292.556 172.73 294.121C172.469 296.078 170.643 297.513 168.555 297.252C167.903 297.122 167.381 296.992 166.859 296.6C164.511 295.296 162.684 293.339 161.51 290.86C158.249 284.337 155.9 277.292 154.465 270.116C150.943 255.504 148.725 240.631 146.246 225.889C146.246 224.454 145.072 223.28 143.637 223.41L131.765 222.106C130.46 222.106 129.547 221.584 129.547 220.018C128.894 207.885 132.808 196.013 140.506 186.75C147.551 178.009 159.162 174.225 169.99 177.226C181.341 179.966 191.386 186.619 198.04 196.274C206.259 207.363 212.522 219.888 216.566 233.064C218.262 238.022 218.262 238.022 213.696 240.892C210.565 242.849 210.565 242.849 211.217 246.502C211.869 250.155 212.652 254.721 213.304 258.896C213.435 260.201 214.348 261.375 215.653 261.636C220.219 263.071 224.655 264.767 229.221 266.333C230.395 266.594 231.178 267.507 231.308 268.551C232.352 275.465 233.396 282.249 234.309 289.294C234.309 289.686 234.57 290.207 234.048 290.338C233.526 290.468 233.396 289.947 233.135 289.686C231.047 287.076 228.96 284.467 227.003 281.858C226.22 280.814 225.177 280.162 223.872 279.901C221.263 279.509 218.262 278.857 214.87 278.074ZM202.084 256.678C201.693 253.286 201.302 249.372 200.78 245.458C200.78 244.676 200.388 244.023 199.997 243.371L192.561 233.586C192.3 233.195 192.039 232.804 191.647 232.934C191.256 233.195 191.256 233.456 191.256 233.847C190.343 237.761 189.951 241.806 189.951 245.85C189.821 251.068 193.213 255.765 198.171 257.331C198.953 257.722 199.867 257.983 200.649 258.374C201.954 259.157 202.345 258.505 202.084 256.678ZM319.632 232.282C317.023 235.674 314.805 238.805 312.326 241.675C311.021 243.11 310.239 244.937 310.108 246.894C309.847 249.633 309.456 252.243 309.195 255.113C308.804 259.288 308.804 259.288 312.848 257.592C317.284 256.287 320.545 252.504 321.067 247.807C321.589 242.719 321.067 237.37 319.632 232.282Z" fill="black"/>
<path d="M121.196 225.758C121.979 226.932 122.631 228.107 123.284 229.411C123.805 230.977 125.371 231.89 127.067 231.76C128.893 231.76 130.85 232.151 132.677 232.151C134.503 232.281 134.895 232.803 135.156 234.499C137.634 254.721 142.983 274.421 151.203 293.077C154.203 300.383 158.639 307.037 164.249 312.647C166.728 315.256 170.12 316.952 173.773 317.213C176.121 317.735 178.47 316.17 178.991 313.691C180.035 310.299 180.557 306.776 180.427 303.123C180.818 297.644 180.427 292.034 179.383 286.554C179.383 286.163 179.383 285.902 179.383 285.511C180.427 285.511 180.427 286.554 180.557 287.076C183.427 295.687 184.862 304.689 184.732 313.691C184.34 328.172 174.817 334.043 162.292 333.26C153.29 332.738 144.94 328.694 139.07 322.04L138.548 321.519H138.026C140.113 325.563 142.592 329.346 145.723 332.608C152.899 340.175 161.379 346.568 170.511 351.525C197.517 367.05 225.175 381.271 253.095 394.969C254.399 395.622 255.965 395.622 257.27 394.969C274.882 387.272 291.973 378.662 308.803 369.66C321.197 363.136 333.591 356.222 345.463 348.916C355.9 343.175 364.902 334.956 371.686 325.172C372.991 323.215 374.034 321.127 374.817 318.909C371.164 323.736 366.467 327.52 360.988 330.129C354.204 333.391 346.507 334.174 339.201 332.347C332.025 330.651 326.676 324.389 326.285 316.952C325.632 306.646 326.937 296.339 330.46 286.554C330.46 286.032 330.72 285.25 331.764 284.989C331.503 286.293 331.373 287.468 331.112 288.772C330.199 295.948 330.199 303.123 331.112 310.168C331.895 316.822 335.026 318.909 341.94 315.778C345.593 313.821 348.724 310.951 351.073 307.559C357.596 298.296 362.684 288.12 365.946 277.291C370.642 263.462 373.904 249.242 375.73 234.891C375.73 233.195 376.513 232.412 378.34 232.412C380.166 232.412 382.514 231.76 384.341 231.89C386.167 232.021 387.994 230.716 388.516 228.889C388.777 228.237 389.038 227.454 389.82 227.063C390.342 227.585 390.081 228.107 390.081 228.629C390.081 235.021 390.081 241.414 390.081 247.807C390.081 265.028 387.863 282.249 383.689 298.948C382.645 304.689 381.21 310.429 379.514 315.909C375.209 327.128 367.642 336.913 357.857 343.958C349.246 350.221 340.114 355.83 330.72 360.788C313.369 370.703 295.495 380.097 277.491 388.707C270.838 391.969 263.923 394.839 257.139 397.97C255.965 398.622 254.53 398.622 253.356 397.97C234.569 388.968 216.043 379.314 197.648 369.529C186.95 363.919 176.513 358.179 166.076 351.917C156.552 346.698 148.202 339.653 141.287 331.173C136.46 324.911 132.938 317.605 130.981 309.907C128.763 301.949 126.154 294.252 124.588 286.163C122.631 275.856 121.327 265.419 121.066 254.852C120.674 245.98 121.066 237.109 121.066 228.107C120.544 227.585 120.674 226.541 121.196 225.758Z" fill="black"/>
<path d="M376.253 182.053L372.469 175.53C367.642 166.658 361.641 158.439 354.335 151.394C347.42 144.218 338.027 140.044 328.112 139.522C320.023 139.391 312.065 141.479 305.15 145.523C294.713 151.785 285.841 160.265 278.927 170.311C272.404 179.444 266.663 189.098 261.706 199.274C261.445 200.187 260.792 201.101 260.01 201.622C259.227 199.013 258.705 196.404 258.314 193.664C257.922 191.707 257.792 189.489 257.139 187.663C256.357 184.923 256.748 182.053 258.314 179.705C263.532 168.485 270.577 158.178 279.057 149.176C288.451 139.261 300.975 132.999 314.413 131.303C325.763 129.867 337.374 133.259 346.116 140.565C359.162 151.263 369.338 164.962 375.731 180.487C375.861 180.748 375.861 181.009 375.992 181.27C376.253 181.531 376.514 181.661 376.253 182.053Z" fill="black"/>
<path d="M132.547 182.053C134.634 176.834 137.113 171.746 140.114 166.919C145.724 157.395 152.899 148.915 161.249 141.87C172.73 131.824 188.646 128.563 203.128 133.129C215 136.651 225.437 143.566 233.395 153.09C240.962 161.961 247.224 171.877 251.921 182.444C252.443 183.357 252.573 184.401 252.312 185.445C251.399 190.272 250.486 195.23 249.703 200.057C249.703 200.579 249.703 201.361 249.181 201.492C248.659 201.622 248.268 200.709 248.007 200.187C242.789 189.228 236.526 178.791 229.481 169.006C222.436 158.569 212.912 150.089 201.693 144.218C186.037 136.651 171.164 137.826 157.465 149.176C153.291 152.698 149.638 156.743 146.376 161.048C142.071 166.919 138.157 173.051 134.634 179.574C134.112 180.748 133.46 181.531 132.547 182.053Z" fill="black"/>
<path d="M127.199 183.88V219.105C127.199 219.757 127.199 220.54 127.199 221.192C127.068 222.236 126.155 222.888 125.111 222.888C124.198 222.888 124.589 221.714 124.459 221.192C123.806 211.147 124.198 200.97 124.067 190.925C124.067 179.835 124.067 168.876 124.067 157.787C124.067 148.785 124.067 139.653 124.459 130.651C124.459 129.085 124.589 127.65 124.981 126.084C125.372 121.257 129.547 117.474 134.504 117.865C140.636 117.343 146.898 116.952 152.769 116.561L189.56 114.604C197.127 114.212 204.563 113.951 212.13 113.69C231.308 113.168 250.356 113.038 269.534 113.299C284.277 113.56 299.149 114.082 313.892 114.604C326.155 114.995 338.288 115.517 350.552 116.169C359.554 116.3 368.426 117.082 377.428 118.126C382.777 118.257 386.951 122.562 386.951 127.911C386.951 128.302 386.951 128.694 386.821 128.955C387.865 157.917 387.734 186.88 387.473 216.235C387.473 218.061 387.473 219.888 387.212 221.584C387.212 222.236 387.604 223.28 386.69 223.41C385.647 223.41 384.733 222.758 384.473 221.845C384.342 221.062 384.342 220.279 384.473 219.627C384.473 196.796 384.473 174.095 384.473 151.394C384.473 143.566 384.473 135.869 383.82 128.041C383.429 123.866 382.255 122.431 378.21 121.518C372.6 120.474 366.99 119.953 361.25 119.953C343.377 119.039 325.373 118.387 307.369 117.735C299.932 117.474 292.365 117.213 284.798 116.952C266.012 116.3 247.094 116.3 228.308 116.561C208.738 116.821 189.038 117.604 169.469 118.909C158.901 119.561 148.203 120.083 137.636 120.735C136.07 120.735 134.635 120.996 133.069 121.257C130.46 121.518 128.373 123.475 127.981 126.084C127.59 127.65 127.459 129.215 127.459 130.781V184.01H127.199V183.88Z" fill="black"/>
</svg>
