<svg width="512" height="512" viewBox="0 0 512 512" fill="none" xmlns="http://www.w3.org/2000/svg">
<path d="M268.96 293.014C277.79 284.96 293.344 269.893 299.132 263.14C301.773 260.154 301.6 256.422 301.6 256.422C301.6 256.422 301.773 252.689 299.132 249.704C293.344 242.952 277.79 227.884 268.96 219.829C265.345 216.462 264.476 214.344 264.476 210.212V164.541C264.476 162.372 266.544 161.417 268.3 162.944C287.991 181.154 331.858 224.569 346.561 241.39C353.582 248.837 352.939 256.423 352.939 256.423C352.939 256.423 353.582 263.991 346.561 271.455C331.84 288.277 287.974 331.691 268.3 349.9C266.544 351.428 264.476 350.473 264.476 348.304V302.632C264.494 298.483 265.345 296.382 268.96 293.014ZM243.064 292.98C234.236 284.925 218.681 269.857 212.893 263.105C210.251 260.119 210.425 256.387 210.425 256.387C210.425 256.387 210.251 252.655 212.893 249.669C218.681 242.916 234.236 227.849 243.064 219.794C246.679 216.427 247.548 214.309 247.548 210.177V164.367C247.548 162.527 245.393 161.382 243.725 162.926C224.034 181.136 180.167 224.551 165.464 241.372C158.425 248.819 159.085 256.405 159.085 256.405C159.085 256.405 158.442 263.973 165.464 271.437C180.184 288.259 224.051 331.674 243.725 349.883C245.48 351.411 247.548 350.456 247.548 348.286V302.614C247.548 298.448 246.679 296.33 243.064 292.98ZM81.6912 269.631C101.487 290.028 208.582 400.362 228.651 416.278C235.655 421.886 244.675 426 255.989 426C267.321 426 276.341 421.886 283.328 416.278C303.402 400.361 410.491 290.024 430.287 269.631C431.903 267.774 430.443 264.858 428.01 264.858C418.121 264.858 395.197 264.823 381.381 264.823C376.514 264.823 375.072 265.673 372.012 268.954C368.953 272.235 353.729 288.553 353.729 288.553C334.368 309.401 287.147 355.437 269.889 369.949C263.407 375.4 256.072 375.226 255.968 375.226C255.863 375.226 248.529 375.4 242.046 369.949C224.788 355.419 177.568 309.383 158.206 288.553C158.206 288.553 142.981 272.235 139.922 268.954C136.863 265.673 135.421 264.823 130.555 264.823C116.755 264.823 93.814 264.858 83.9243 264.858C81.5258 264.858 80.0659 267.774 81.6823 269.631H81.6912ZM430.314 243.368C410.518 222.971 303.423 112.637 283.354 96.7207C276.35 91.1137 267.33 87 256.016 87C244.684 87 235.664 91.114 228.678 96.7207C208.603 112.639 101.489 222.975 81.6929 243.368C80.0766 245.225 81.5365 248.141 83.9697 248.141C93.8585 248.141 116.783 248.176 130.6 248.176C135.466 248.176 136.909 247.326 139.968 244.045C143.027 240.764 158.251 224.446 158.251 224.446C177.612 203.598 224.834 157.562 242.092 143.051C248.574 137.6 255.908 137.773 256.013 137.773C256.117 137.773 263.451 137.6 269.934 143.051C287.192 157.58 334.413 203.615 353.774 224.446C353.774 224.446 368.999 240.764 372.058 244.045C375.116 247.326 376.559 248.176 381.425 248.176C395.225 248.176 418.167 248.141 428.056 248.141C430.488 248.159 431.93 245.225 430.314 243.368Z" fill="#FFB100"/>
</svg>
