<svg width="512" height="512" viewBox="0 0 512 512" fill="none" xmlns="http://www.w3.org/2000/svg">
<path fill-rule="evenodd" clip-rule="evenodd" d="M117.843 395.035V86.2525C117.843 86.2525 118.915 68.995 109.75 63.145V61H228.7C239.063 60.9957 249.406 61.9093 259.608 63.73C274.665 66.3988 288.684 73.2006 300.099 83.376C311.514 93.5514 319.876 106.7 324.25 121.353C328.855 136.367 329.895 152.247 327.289 167.734C324.682 183.22 318.501 197.885 309.235 210.565C300.269 222.14 289.735 232.411 277.938 241.083C275.305 242.935 273.745 243.91 271.015 245.665C286.757 269.446 299.558 295.048 309.138 321.91C317.308 345.363 323.473 369.467 327.565 393.963C330.1 414.243 336.145 416.29 337.315 416.68V418.922H266.14V416.68C268.285 415.51 287.59 406.93 287.688 376.997C286.88 351.674 281.735 326.677 272.478 303.093C266.64 286.939 259.701 271.204 251.71 256C237.999 261.516 223.799 265.727 209.298 268.578C200.035 270.333 190.675 271.795 179.073 273.063C167.47 274.33 159.573 274.915 153.235 275.305V395.23C153.235 397.862 153.918 412 162.985 416.875V419.117H108.093V416.875C116.965 412.195 117.843 397.862 117.843 395.23M230.26 81.28H152.943V253.075C169.688 252.17 186.307 249.656 202.57 245.568C258.925 228.895 285.835 189.603 286.225 143.29C286.225 116.38 276.475 99.9025 266.725 91.1275C260.402 86.2607 252.898 83.1647 244.983 82.1575C240.235 81.4973 235.443 81.2039 230.65 81.28M222.85 270.82V288.955C235.15 288.207 247.393 286.709 259.51 284.47C262.825 292.075 265.75 299.29 267.798 304.848V305.628C261.655 306.7 255.123 307.578 248.298 308.358C238.548 309.528 228.798 310.113 223.045 310.503V427.503C223.045 430.038 223.63 443.882 232.795 448.66V451H178.878V448.855C187.555 444.272 188.628 430.233 188.628 427.698V277.06C200.201 275.578 211.689 273.495 223.045 270.82M293.928 273.16C311.762 265.396 326.918 252.558 337.51 236.244C348.103 219.931 353.664 200.863 353.5 181.413C353.5 154.99 344.433 139 334 130.225L332.148 129.25C331.368 126.13 330.588 123.108 329.613 120.183C327.63 114.264 325.151 108.524 322.203 103.023C324.055 103.023 325.81 103.608 327.468 103.9C342.223 106.545 355.96 113.217 367.161 123.179C378.363 133.142 386.592 146.006 390.94 160.353C395.491 175.115 396.53 190.737 393.974 205.972C391.418 221.207 385.338 235.634 376.218 248.103C367.412 259.423 357.076 269.464 345.505 277.938C342.97 279.79 341.41 280.765 338.778 282.52C354.191 305.804 366.698 330.885 376.023 357.205C384.019 380.197 390.117 403.806 394.255 427.795C396.595 447.295 402.543 449.245 404.005 449.635V451H334V448.855C336.145 447.783 355.06 439.983 355.158 410.44C354.448 385.617 349.434 361.105 340.338 337.998C334.413 322.227 327.476 306.855 319.57 291.978C316.06 293.538 310.99 295.293 305.433 297.145C301.825 288.76 298.12 281.155 293.928 273.453M278.133 120.573H222.85V232.113C215.79 235.423 208.489 238.193 201.01 240.4C196.872 241.623 192.674 242.632 188.433 243.423V125.448C188.433 125.448 189.408 108.58 179.95 102.828V100.683H268.383C272.941 106.442 276.26 113.08 278.133 120.183" fill="black"/>
</svg>
