<svg width="512" height="512" viewBox="0 0 512 512" fill="none" xmlns="http://www.w3.org/2000/svg">
<path d="M256.005 152.816C300.556 152.816 348.319 161.861 386.332 185.891C411.018 201.626 434 225.468 434 256.542C434 292.826 402.891 319.21 373.089 334.653C337.628 352.941 295.723 360.183 255.995 360.183C211.454 360.183 163.786 351.243 125.762 327.119C101.076 311.384 78 287.542 78 256.542C78 220.091 109.026 193.8 138.911 178.347C174.477 160.069 216.287 152.816 256.005 152.816ZM255.629 163.841C214.205 163.841 169.56 171.563 133.618 193.133C111.013 206.607 88.6906 227.812 88.6906 255.979C88.6906 289.064 118.953 312.218 146.003 325.515C179.487 341.802 218.641 348.137 255.629 348.137C297.136 348.137 341.791 340.395 377.733 318.825C400.244 305.257 422.661 284.156 422.661 255.989C422.661 222.831 392.483 199.646 365.348 186.464C331.854 170.146 292.7 163.841 255.629 163.841ZM99.287 233.085L167.479 221.498L188.002 177.117L208.442 221.498L276.623 233.085L208.442 244.777L188.002 289.251L167.479 244.777L99.287 233.085ZM249.195 266.9L279.269 261.637L288.255 241.567L297.24 261.637L327.324 266.9L297.24 272.078L288.255 292.159L279.269 272.078L249.195 266.9ZM311.435 213.39L341.509 208.212L350.494 188.058L359.48 208.212L389.554 213.39L359.48 218.663L350.494 238.743L341.498 218.663L311.435 213.39ZM279.269 308.373L309.249 303.194L318.234 283.03L327.314 303.194L357.388 308.373L327.314 313.646L318.234 333.726L309.249 313.646L279.269 308.373ZM186.872 315.626L216.946 310.447L226.026 290.262L235.001 310.447L265.085 315.626L235.001 320.898L226.026 340.979L216.946 320.898L186.872 315.626ZM338.109 266.076L368.089 260.793L377.074 240.723L386.154 260.793L416.228 266.076L386.154 271.255L377.064 291.304L368.078 271.245L338.109 266.076Z" fill="#14478A"/>
</svg>
