<svg width="512" height="512" viewBox="0 0 512 512" fill="none" xmlns="http://www.w3.org/2000/svg">
<path d="M255.806 382.502L291.282 182.983C325.097 182.983 335.763 186.691 337.303 201.826C337.303 201.826 359.987 193.368 371.428 176.19C326.782 155.502 281.923 154.569 281.923 154.569L255.747 186.451L255.806 186.447L229.63 154.564C229.63 154.564 184.77 155.498 140.13 176.186C151.561 193.364 174.254 201.822 174.254 201.822C175.803 186.686 186.456 182.978 220.044 182.954L255.806 382.502Z" fill="#E82127"/>
<path d="M255.792 145.36C291.882 145.084 333.191 150.943 375.479 169.374C381.131 159.201 382.584 154.705 382.584 154.705C336.357 136.416 293.066 130.157 255.787 130C218.51 130.157 175.221 136.417 129 154.705C129 154.705 131.062 160.243 136.1 169.374C178.38 150.943 219.696 145.084 255.787 145.36H255.792Z" fill="#E82127"/>
</svg>
