<svg width="512" height="512" viewBox="0 0 512 512" fill="none" xmlns="http://www.w3.org/2000/svg">
<path d="M431.903 69.5616C425.415 66.3652 415.819 77.8025 412.575 79.0012C402.883 81.0836 393.921 86.1026 386.713 93.4853C374.193 106.97 295.692 235.978 276.866 259.952C266.814 272.788 258.589 284.225 256.03 284.225C253.472 284.225 245.247 272.788 235.194 259.952C216.369 235.928 137.777 106.97 125.302 93.4853C118.094 86.1026 109.132 81.0836 99.44 79.0012C96.1958 77.8025 86.6459 66.3652 80.1118 69.5616C75.1311 72.0589 80.5231 83.5962 80.5231 83.5962C82.762 90.7882 110.087 161.061 137.411 226.189C162.085 284.924 185.297 335.568 194.39 355.347C230.945 434.659 251.05 442.9 255.939 443C260.828 443 281.162 434.709 317.488 355.347C326.626 335.369 349.838 284.924 374.513 226.189C401.929 161.261 429.344 90.7882 431.309 83.5962C431.446 83.5962 436.884 72.0589 431.903 69.5616ZM422.765 85.9436C410.747 100.877 325.758 293.765 306.567 329.425C287.376 365.086 262.884 409.337 256.076 409.337C249.313 408.988 225.05 365.236 205.814 329.425C186.577 293.615 101.496 100.877 89.4789 85.9436C86.3261 81.898 78.5583 74.0067 81.3455 72.3086C85.4122 69.8613 95.0535 81.6483 100.719 83.2465C108.651 84.5784 115.95 88.761 121.464 95.1334C131.745 105.822 150.616 139.485 183.972 193.875C204.808 227.937 222.172 254.158 231.904 267.544C244.013 284.325 252.375 292.516 256.03 292.516C259.686 292.516 268.002 284.475 280.111 267.544C289.843 254.208 307.207 227.987 328.043 193.875C361.399 139.485 380.224 105.822 390.597 95.1334C396.104 88.7517 403.406 84.5673 411.341 83.2465C417.099 81.6483 426.648 69.8613 430.669 72.3086C433.594 74.0067 425.826 81.898 422.582 85.9436H422.765Z" fill="#3C3C3C"/>
<path d="M403.482 96.4293C398.913 104.62 381.092 142.878 358.337 188.028C333.069 238.523 302.866 295.61 296.834 306.747C285.548 327.574 263.067 363.085 256.03 363.335C249.039 363.035 226.558 327.574 215.272 306.697C209.286 295.61 179.266 238.523 153.815 188.028C130.968 143.078 112.965 104.62 108.67 96.4293C104.375 88.2384 105.7 85.4414 114.61 96.4293C127.907 113.261 159.801 173.894 159.801 173.894C159.801 173.894 214.815 274.183 223.405 287.469C231.996 300.754 249.588 325.577 255.939 325.826C262.382 325.577 280.385 300.055 288.518 287.469C296.652 274.882 352.214 173.894 352.214 173.894C352.214 173.894 384.2 113.411 397.496 96.729C406.406 85.4414 407.823 87.5391 403.482 96.4293Z" fill="#3C3C3C"/>
</svg>
