<svg width="512" height="512" viewBox="0 0 512 512" fill="none" xmlns="http://www.w3.org/2000/svg">
<path d="M256.212 416.579C168.015 416.579 95.757 343.967 95.757 255.769C95.757 235.934 99.2991 217.161 106.029 199.451L199.894 388.242C200.956 390.722 202.727 392.847 205.561 392.847C208.394 392.847 210.165 390.722 211.228 388.242L254.441 291.544C254.795 290.481 255.504 289.419 256.566 289.419C257.629 289.419 257.983 290.481 258.692 291.544L301.905 388.242C302.967 390.722 304.738 392.847 307.572 392.847C310.406 392.847 312.177 390.722 313.239 388.242L407.104 199.451C413.834 217.161 417.376 235.934 417.376 255.769C416.667 343.967 344.409 416.579 256.212 416.579ZM256.212 219.286C255.15 219.286 254.795 218.224 254.087 217.161L203.79 103.815C220.083 97.7936 237.794 94.6058 256.212 94.6058C274.631 94.6058 292.341 97.7936 308.635 103.815L258.337 217.161C257.629 218.578 257.275 219.286 256.212 219.286ZM204.852 335.82C203.79 335.82 203.436 334.757 202.727 333.695L121.26 169.343C135.782 147.028 155.264 128.255 178.995 115.15L237.794 245.852C238.502 247.977 240.273 248.685 242.044 248.685H270.38C272.506 248.685 273.923 248.331 274.985 245.852L333.783 115.15C357.161 128.255 376.996 147.028 391.519 169.343L309.343 333.695C308.989 334.757 308.28 335.82 307.218 335.82C306.155 335.82 305.801 334.757 305.093 333.695L274.277 263.562C273.214 261.082 271.797 260.728 269.672 260.728H241.336C239.21 260.728 237.794 261.082 236.731 263.562L206.978 333.695C206.623 334.757 205.915 335.82 204.852 335.82ZM256.212 432.872C354.327 432.872 433.315 353.884 433.315 255.769C433.315 157.654 354.327 78.6665 256.212 78.6665C158.097 78.6665 79.1094 157.654 79.1094 255.769C79.1094 353.884 158.097 432.872 256.212 432.872Z" fill="#001E50"/>
</svg>
